<svg width="100" height="116" viewBox="0 0 100 116" fill="none" xmlns="http://www.w3.org/2000/svg">
<path d="M0.287747 4.37064C-0.169162 10.5891 -0.0676268 32.3268 0.490817 42.3845C1.55694 61.2021 4.19686 75.9102 10.9997 101.325C13.995 112.626 16.0257 115.384 21.3055 115.384C23.6916 115.384 24.1485 115.168 25.6716 113.491C28.6669 110.085 28.6669 110.139 28.6669 80.2361V52.9289H35.2666H41.8664L42.2218 59.4177C43.2879 81.1013 49.837 96.7827 61.1074 104.786C64.0519 106.894 67.098 106.732 69.281 104.407L70.9563 102.623L71.2609 104.515C71.8701 108.787 73.2408 112.356 74.7131 113.87C75.9823 115.114 76.693 115.384 78.7745 115.384C82.0236 115.384 84.3589 113.924 85.9835 110.896C87.3542 108.3 94.2079 81.8583 96.137 71.5843C97.7616 63.0406 98.8277 54.3888 99.4877 45.0882C100.046 37.1934 100.198 2.47806 99.6908 1.07214C99.3862 0.315109 94.5632 0.206963 49.9893 0.206963H0.64312L0.287747 4.37064ZM97.3047 25.7298C97.1016 45.0882 96.8986 49.7926 95.9847 56.4436C94.0556 70.665 92.4818 78.1813 87.2019 98.6212C84.7143 108.138 84.5113 108.733 82.4806 110.95C81.3129 112.194 79.8406 113.221 79.2822 113.221C77.4038 113.221 75.17 110.626 74.307 107.381C73.5454 104.623 73.4947 101.649 73.7993 79.1546C74.0024 65.3117 74.2054 53.2533 74.2562 52.3881L74.3577 50.7659L63.7473 50.6037C57.909 50.5496 52.9338 50.6578 52.68 50.9281C52.4261 51.1985 52.4769 55.0918 52.7307 59.634C53.7968 76.8835 57.3506 85.6975 66.8949 94.3493C68.621 95.9175 69.0271 96.6204 69.0271 98.1345C69.0271 100.352 67.5041 103.217 66.0826 103.596C62.5289 104.623 54.203 95.593 49.9893 86.1301C46.994 79.425 45.1156 69.4213 44.4048 56.5518L44.0494 50.4955H35.0636H26.0269L26.0777 78.9924C26.1285 107.381 26.1285 107.543 25.0116 109.76C23.0316 113.708 19.8333 114.032 17.0918 110.517C14.1473 106.786 6.37986 74.2339 3.94302 55.3622C3.13073 49.0355 2.8769 43.2497 2.67383 25.189L2.36922 2.91064H49.9893H97.5585L97.3047 25.7298ZM71.5655 59.3096C71.5655 62.7162 71.4132 72.0169 71.2609 80.0198L70.9055 94.5656L68.621 92.4027C63.8488 87.9146 61.8181 85.265 59.889 81.0472C56.8937 74.4502 54.8122 64.2303 54.8122 56.0651V53.1992H63.1888H71.5655V59.3096Z" fill="#5738AF"/>
</svg>
