<svg width="115" height="105" viewBox="0 0 115 105" fill="none" xmlns="http://www.w3.org/2000/svg">
<path d="M19.5793 1.47096C18.8705 3.44761 17.8283 11.0784 17.2863 18.6172C17.0361 21.881 16.6609 35.9473 16.4524 49.8298C16.2023 63.7123 15.9105 75.2045 15.7854 75.3424C15.6603 75.4803 14.4513 75.848 13.0338 76.1698C7.73899 77.365 2.73605 80.9046 0.901638 84.7659C-0.307406 87.3861 -0.307406 91.937 0.943329 94.5112C2.86112 98.6024 7.82237 101.912 13.5758 102.923C17.1195 103.567 30.2105 104.349 37.3397 104.349C46.3867 104.349 49.1383 103.291 51.0144 99.1541L51.9733 96.9935H57.2681H62.5212L63.4384 99.1541C65.4396 103.889 67.9827 104.578 81.9076 104.211C98.7508 103.705 102.962 103.107 107.631 100.487C110.633 98.8323 112.134 97.2694 113.343 94.6032C116.636 87.3402 112.342 79.4795 103.587 76.7214C102.545 76.3997 101.461 75.94 101.211 75.7101C100.794 75.3883 100.669 71.9867 100.669 61.6438C100.627 31.7182 99.4596 7.95252 97.7919 2.52824C97.1249 0.321747 96.9998 0.229813 95.4155 0.0919037C93.8729 -0.0459976 93.6228 0.137871 92.0802 2.16048C91.1213 3.35567 88.2446 7.86059 85.6598 12.1816C78.5306 24.0415 77.6551 25.1907 75.5288 25.5125C74.5699 25.6504 66.2317 25.7423 57.018 25.6504L40.2998 25.5125L39.1741 24.3633C38.5488 23.7197 35.7971 19.4906 33.0038 14.9397C30.2522 10.3889 27.0003 5.14845 25.7496 3.3097C23.6233 0.137871 23.4566 -3.05176e-05 21.8306 -3.05176e-05C20.3297 -3.05176e-05 20.1213 0.137871 19.5793 1.47096ZM96.0409 3.53954C96.7079 6.43556 97.3333 11.8139 97.7502 18.8471C98.2088 25.8802 99.0427 74.2851 98.7508 75.1125C98.5841 75.5722 88.0362 81.3183 84.3674 82.9272C83.5752 83.2949 80.0315 84.4441 76.5711 85.4554C67.941 87.9837 64.8142 89.9144 63.6052 93.362C63.1466 94.7411 61.7291 95.1548 57.1013 95.1548C52.557 95.1548 51.1812 94.7871 50.8894 93.4999C50.5558 92.0749 48.096 89.4087 46.0115 88.2595C45.0943 87.7079 41.5922 86.5127 38.2152 85.5014C30.7108 83.3409 30.0438 83.0651 23.4566 79.5255L18.1201 76.7214V73.7794C18.1201 72.1246 18.2452 70.7915 18.4536 70.7915C18.6204 70.7915 19.7877 71.1133 21.0385 71.481C28.9598 73.8254 36.9228 72.0326 43.51 66.4245C50.4724 60.5405 56.7678 48.3589 60.4366 33.7868L61.8124 28.2706L67.7743 27.9948C71.0679 27.8109 74.695 27.673 75.8207 27.6271C77.6551 27.5811 78.0303 27.3972 79.5312 25.6044C80.4067 24.5472 83.7837 19.3067 86.9939 14.0204C92.5388 4.82666 94.5817 1.83871 95.2905 1.83871C95.4989 1.83871 95.8324 2.62017 96.0409 3.53954ZM24.7073 6.06781C26.0414 8.18237 29.2516 13.2849 31.7531 17.468C36.5893 25.4206 37.5899 26.7536 39.5077 27.5351C40.1747 27.8569 44.052 28.0408 48.6797 28.0408C53.099 28.0408 57.3932 28.1787 58.2687 28.3625C59.853 28.6384 59.8946 28.6384 59.6028 30.2932C58.4355 37.1885 53.8494 49.0943 49.5969 56.0816C43.4266 66.3325 35.2969 71.3891 26.1248 70.6536C24.3738 70.5157 21.9974 70.01 20.83 69.5503L18.7455 68.6769L18.6204 56.0816C18.4953 42.8886 19.079 20.8237 19.7877 13.3308C20.3297 7.99849 21.372 2.29839 21.8723 2.29839C22.0808 2.29839 23.3315 3.99923 24.7073 6.06781ZM20.2463 80.261C27.8758 84.3982 31.4613 85.9151 36.5893 87.3402C43.1765 89.087 45.0109 89.8225 46.7619 91.2935C50.931 94.7871 50.0138 99.7976 44.8858 101.407C42.843 102.096 41.1336 102.142 32.712 101.912C15.6186 101.407 10.6157 100.533 6.44656 97.4073C3.56987 95.2467 2.27745 92.8564 2.27745 89.5926C2.27745 84.8579 5.15414 81.5941 11.658 79.0199C14.8265 77.7787 15.9521 77.9626 20.2463 80.261ZM102.378 78.882C115.511 83.203 115.636 96.2121 102.545 100.027C99.0843 101.039 90.2041 101.728 79.6146 101.774C69.9422 101.82 69.567 101.774 67.816 100.763C64.439 98.7863 64.1055 95.1548 67.0238 92.0289C68.7749 90.1442 70.3174 89.5007 77.8218 87.2942C82.7831 85.8692 85.5347 84.7659 91.0379 81.8699C94.8318 79.8473 98.459 78.1924 99.0427 78.1924C99.6263 78.1465 101.127 78.4682 102.378 78.882Z" fill="#5738AF"/>
<path d="M91.6212 12.7332C89.7034 16.5027 88.2025 21.2374 88.1608 23.4439C88.1608 25.2826 89.3698 28.4085 90.3704 29.3738C91.2876 30.2013 92.2465 29.7416 92.7468 28.2246C93.539 26.0181 94.8731 15.3534 94.748 12.5953C94.5812 8.68801 93.664 8.73398 91.6212 12.7332Z" fill="#5738AF"/>
<path d="M78.7385 54.5644C78.2382 54.6564 77.321 55.3459 76.6539 56.1274C75.6533 57.3225 75.4449 57.8742 75.4449 60.1266V62.7468H79.8225H84.2L84.3251 60.5863C84.4919 57.8282 83.6164 55.9895 81.7403 54.9781C80.9481 54.5644 80.156 54.2886 79.9475 54.2886C79.7808 54.3346 79.1971 54.4725 78.7385 54.5644Z" fill="#5738AF"/>
<path d="M55.6416 66.0567C53.8906 68.7688 53.0567 69.6882 52.0145 69.964C51.0972 70.2398 50.6386 70.6535 50.6386 71.2051C50.6386 72.4003 51.7226 73.2277 52.8483 72.906C53.8489 72.6302 56.392 69.872 57.8095 67.5736L58.5183 66.4244L59.227 67.5736C60.5194 69.5962 63.8547 73.0898 64.4801 73.0898C64.8136 73.0898 65.439 72.814 65.8976 72.4463C66.523 71.8947 66.6064 71.6189 66.2311 70.9293C65.981 70.4696 65.3973 70.0559 64.897 69.964C63.9381 69.8261 62.4789 68.1252 60.3527 64.6776C59.6022 63.4824 58.7684 62.5171 58.4766 62.5171C58.1847 62.5171 56.8923 64.126 55.6416 66.0567Z" fill="#5738AF"/>
<path d="M22.0393 9.74524C21.1221 11.4001 23.3317 28.7302 24.5824 29.8794C25.4163 30.6609 27.0839 29.5577 28.0845 27.581C29.7938 24.2253 28.9183 19.0768 25.458 12.2735C23.9571 9.23959 22.7897 8.41215 22.0393 9.74524Z" fill="#5738AF"/>
<path d="M34.4623 54.9783C33.962 55.3461 33.2533 56.2655 32.9197 57.001C32.1276 58.7018 32.0859 62.2414 32.878 62.9309C33.2533 63.2986 34.8375 63.4365 37.339 63.3446C41.1746 63.2067 41.258 63.2067 41.8416 61.8736C42.5921 60.1268 41.8833 57.3687 40.2157 55.53C39.2568 54.5187 38.6314 54.2428 37.2139 54.2428C36.2133 54.2428 34.9626 54.5646 34.4623 54.9783Z" fill="#5738AF"/>
</svg>
