<svg width="132" height="144" viewBox="0 0 132 144" fill="none" xmlns="http://www.w3.org/2000/svg">
<path d="M62.6794 0.156219C62.2861 0.549469 62.4217 0.969833 63.2625 1.89194C64.8355 3.62767 65.9881 5.68884 66.5034 7.69577C66.856 9.01112 67.0051 10.0417 66.856 9.96036C66.7882 9.93323 66.3407 9.71626 65.8525 9.47218C63.6964 8.42804 61.1471 8.55008 58.435 9.83832C57.0925 10.4892 56.0755 11.2079 54.7466 12.4826C52.5905 14.5573 51.5192 16.6999 51.2751 19.4255C51.1531 20.768 51.2209 20.7002 50.231 20.4832C49.0512 20.2391 48.1156 20.2527 47.4782 20.551C47.1799 20.6866 40.6574 24.375 32.9686 28.755C25.2935 33.1486 18.554 36.9726 18.0116 37.2845C16.3436 38.2202 14.4994 40.2678 13.4688 42.3289C13.2925 42.6951 12.94 43.5494 12.6959 44.2274C12.3162 45.2851 12.2484 45.6784 12.1806 47.1022C12.1128 49.0684 12.3569 50.1126 13.2112 51.4144C14.3231 53.0959 15.6385 54.0451 17.9031 54.818L19.2727 55.2655L19.3133 60.1744L19.3405 65.0697L19.0015 64.9883C18.7438 64.9205 18.5675 64.9883 18.3234 65.2324C17.6861 65.8697 17.8624 66.0867 20.0049 67.4156C20.3304 67.619 20.5338 67.8224 20.4795 67.8767C20.4117 67.9309 20.0185 68.1208 19.6117 68.2835C17.6725 69.0835 5.95639 73.9517 3.61045 74.9416C2.15949 75.5518 0.844133 76.1485 0.708529 76.2705C0.572925 76.3926 0.342399 76.7587 0.193235 77.0706C-0.0644117 77.6401 -0.0644117 77.6673 0.193235 78.2368C0.600046 79.1453 1.48147 79.7827 3.02735 80.2844C3.47484 80.4336 3.74605 80.5963 3.74605 80.7319C3.74605 80.8404 4.01726 81.4641 4.32915 82.1015C5.30549 84.0406 5.67162 85.139 5.91571 86.8612C6.07843 87.9731 5.86147 89.3292 5.37329 90.3462C5.02072 91.0513 3.56977 92.6514 2.66122 93.3159C1.88828 93.8854 1.73912 94.2651 2.051 94.8618C2.34933 95.4449 3.73249 96.028 9.1702 97.8586C10.1059 98.1841 10.8924 98.4553 10.9195 98.4824C10.933 98.496 10.811 98.7265 10.6347 98.9706C9.1702 100.937 7.69212 105.208 7.20394 108.843C6.74289 112.165 7.17682 115.921 8.35657 118.877C9.25156 121.169 11.3263 123.732 13.74 125.562C15.53 126.932 16.3572 127.203 31.6804 131.76C32.1686 131.909 36.2502 133.129 40.7658 134.472C45.2814 135.814 49.4038 137.048 49.9191 137.197C50.4479 137.36 51.1395 137.563 51.4785 137.672C52.3735 137.943 66.978 142.296 68.09 142.621C68.6188 142.784 69.2833 142.988 69.5816 143.082C70.4224 143.367 71.9818 143.815 72.4293 143.91C72.7141 143.964 73.0395 143.882 73.5141 143.652C73.8938 143.462 76.9991 141.984 80.4299 140.37C83.8607 138.743 87.2236 137.157 87.8881 136.845C90.5324 135.597 94.1801 133.875 95.0751 133.455C96.5125 132.777 97.8685 132.139 107.279 127.691C112.053 125.44 116.324 123.42 116.772 123.217C117.219 123.013 118.412 122.444 119.416 121.969C120.419 121.494 122.209 120.64 123.403 120.084C125.789 118.972 126.115 118.687 125.776 118.077C125.518 117.616 125.016 117.562 124.298 117.928C123.986 118.091 123.647 118.186 123.552 118.145C123.294 118.05 122.06 116.274 121.558 115.284C120.297 112.802 119.728 110.199 119.592 106.361C119.43 101.642 120.175 96.2585 121.355 93.4515C121.572 92.9227 121.843 92.2446 121.965 91.9327C122.182 91.3903 122.264 91.3361 123.823 90.6038C125.518 89.8038 125.789 89.6004 125.789 89.0986C125.789 88.5833 125.206 88.068 123.362 86.9425C121.748 85.9526 121.369 85.6543 121.708 85.6543C121.789 85.6543 122.345 85.4238 122.969 85.139C123.593 84.8407 125.016 84.2033 126.155 83.688C128.678 82.5625 129.315 82.0472 130.115 80.5149C131.403 78.0469 132.108 74.9416 131.986 72.3923C131.905 70.6159 131.661 69.5582 131.051 68.3648C130.468 67.1851 129.871 66.5206 128.745 65.7884C128.203 65.4222 127.593 65.0154 127.389 64.8798C127.186 64.7442 124.867 63.917 122.264 63.0356L117.504 61.4355L117.043 60.3642C115.646 57.164 113.232 54.7638 110.507 53.8417C110.154 53.7197 108.771 53.0416 107.429 52.3365L105.015 51.0347L105.395 50.8042C105.611 50.6686 108.229 49.1769 111.212 47.4819C114.195 45.7868 116.745 44.2816 116.88 44.1325C117.002 43.9833 117.111 43.6579 117.111 43.4002C117.111 43.0205 116.989 42.8442 116.284 42.234C114.29 40.4983 113.11 37.7998 112.948 34.6673C112.826 32.3078 113.219 30.6264 114.127 29.5144C114.466 29.094 114.385 28.7686 113.856 28.4974C113.639 28.3889 112.324 28.1448 110.914 27.955C109.517 27.7787 106.968 27.4397 105.245 27.2091C103.537 26.9786 100.54 26.5854 98.6008 26.3277C95.2649 25.8802 90.1391 25.2022 84.3624 24.4293C82.9521 24.2394 81.7453 24.0903 81.7046 24.0903C81.6503 24.0903 81.6368 23.3444 81.6775 22.4223C81.7995 19.6289 81.2978 17.2016 80.1587 15.0048C78.8162 12.4555 75.9685 10.1638 73.4734 9.64847C72.1716 9.36369 70.1647 9.39082 69.2833 9.70271C68.4697 9.97391 68.5239 10.0282 68.3612 8.83484C67.9815 5.98717 66.3407 2.7598 64.266 0.739304C63.5201 0.00704956 63.0184 -0.169235 62.6794 0.156219ZM64.2931 10.6248C65.1474 10.896 65.9474 11.2893 66.4221 11.6825C66.6255 11.8588 66.856 12.0215 66.9509 12.0486C67.0594 12.0893 67.0729 12.4148 67.0051 13.1877C66.8695 14.7336 66.8153 14.7878 66.0288 14.042C65.1203 13.1606 64.8355 13.025 64.4151 13.3098C63.9947 13.581 64.0083 13.9335 64.4422 14.598C65.4321 16.0761 67.7645 17.0117 69.5545 16.632C70.4902 16.4422 71.0461 16.0083 71.2495 15.3167C71.4801 14.5438 71.3038 14.042 70.6936 13.7437L70.1918 13.4861L69.3646 13.92C68.9036 14.1505 68.5239 14.3268 68.5103 14.2997C68.4968 14.2726 68.5239 13.6759 68.5646 12.9707L68.6324 11.6825L69.1341 11.4384C69.8664 11.0859 70.7749 10.9774 72.1581 11.0859C73.6362 11.2079 74.5176 11.5198 75.6431 12.3334C76.5516 12.9707 77.7585 14.1505 78.206 14.815C80.6062 18.3407 80.7825 23.7241 78.6399 27.955C77.2025 30.8026 74.8702 32.579 71.3309 33.5283C69.663 33.9758 66.8831 34.0707 66.1915 33.7046C65.9068 33.5554 65.2423 33.4605 64.0219 33.3927C63.0591 33.352 61.8658 33.2164 61.3776 33.0943C58.5028 32.4163 55.5873 29.8941 54.055 26.7345C53.0922 24.7411 52.7803 23.358 52.7803 21.107C52.7803 19.0865 53.0651 17.6491 53.7431 16.3202C55.0585 13.703 58.3943 11.0994 61.1064 10.5435C62.5845 10.2451 63.0998 10.2587 64.2931 10.6248ZM49.7157 22.0562C51.248 22.2867 51.1395 22.2054 51.3294 23.4258C51.5056 24.6055 52.1023 26.4362 52.6718 27.5481C54.0821 30.3416 56.6857 32.8909 59.33 34.0571C60.6318 34.6131 61.3505 34.7758 63.4659 34.9385C64.5236 35.0199 65.5677 35.1555 65.7847 35.2504C66.0424 35.3589 66.978 35.4132 68.2934 35.4132C70.0698 35.4132 70.5851 35.3589 71.6021 35.0877C76.294 33.8537 79.3451 31.101 80.891 26.6667C81.1893 25.8395 81.2978 25.6497 81.5147 25.6768C81.7995 25.7039 87.5491 26.4498 94.8717 27.4261C99.0212 27.9685 105.747 28.8635 108.771 29.2568C109.449 29.3517 110.032 29.4602 110.086 29.5008C110.141 29.5415 108.283 30.6806 105.951 32.0095C103.618 33.352 98.9398 36.0369 95.5497 37.9896C92.1596 39.9423 87.4406 42.6544 85.0676 44.0104L80.7418 46.5055L80.0502 46.4106C79.3315 46.3293 73.5819 45.5699 65.9881 44.5528C63.71 44.2545 60.0487 43.7663 57.8519 43.4816C55.6551 43.1833 51.9938 42.6951 49.7157 42.3968C33.7687 40.2813 28.5751 39.5898 24.0188 38.9931C21.7135 38.6948 19.7202 38.4236 19.6117 38.3829C19.3676 38.3015 18.7167 38.6812 27.6801 33.5825C31.7889 31.2501 36.6028 28.5109 38.3928 27.4803C46.8002 22.6529 48.3054 21.8121 48.4952 21.8528C48.6037 21.8799 49.1597 21.9748 49.7157 22.0562ZM111.592 31.2366C111.456 31.7519 111.388 32.7553 111.375 34.1249C111.375 36.5522 111.592 37.6777 112.487 39.6033C113.124 40.9865 113.68 41.8408 114.548 42.7358L115.199 43.4138L109.205 46.831C105.91 48.7023 98.7635 52.784 93.3258 55.8757L83.4403 61.5169L82.7216 60.8931C80.8774 59.3201 79.9553 57.5165 79.5485 54.6689C79.2637 52.6348 79.5349 50.6279 80.3079 48.9735C80.5926 48.3633 80.7418 48.2277 81.6097 47.7666C82.7216 47.17 83.2098 46.8988 86.1931 45.1088C87.3457 44.4172 89.217 43.346 90.329 42.7358C92.1732 41.7323 95.7396 39.6982 103.415 35.2776C105.72 33.9351 111.714 30.4907 111.768 30.4772C111.781 30.4636 111.7 30.8162 111.592 31.2366ZM21.483 40.2406C24.5205 40.6475 28.67 41.1899 36.6977 42.2611C42.7321 43.0612 48.2105 43.7935 53.4448 44.485C55.9806 44.8241 59.9538 45.3529 62.259 45.6512C64.5778 45.9631 68.2934 46.4513 70.5308 46.7496C72.7683 47.0344 75.1142 47.3734 75.7516 47.4683C76.3889 47.5768 77.3788 47.6989 77.9619 47.7531C78.5315 47.8073 79.0061 47.8751 79.0061 47.9158C79.0061 47.9565 78.7891 48.5803 78.5043 49.299C78.0297 50.5465 78.0162 50.6821 77.9619 52.6348C77.8534 56.5266 78.7213 59.0896 80.9316 61.3406L81.7588 62.1678L81.1622 62.3305C80.8367 62.4118 80.2129 62.6017 79.779 62.7509C78.6399 63.1305 77.8941 63.1983 76.8635 63.0356C76.3618 62.9407 75.5346 62.8186 75.0058 62.7373C74.4905 62.6559 73.5412 62.5068 72.9039 62.3983C72.2666 62.2898 70.9919 62.0728 70.0562 61.9237C68.3476 61.6525 63.1269 60.7982 53.038 59.1438C50.0547 58.6556 45.3899 57.8827 42.6643 57.4352C39.9387 56.9877 35.301 56.2283 32.3584 55.7401C29.4158 55.2655 25.3206 54.5875 23.273 54.2485C17.9709 53.3806 16.4792 52.8518 15.1368 51.4008C13.2925 49.3939 13.2247 46.3293 14.9469 42.8985C15.4622 41.8815 16.0317 41.0814 16.8725 40.2C17.6047 39.427 17.6047 39.427 18.0116 39.6304C18.2285 39.7389 19.788 40.0237 21.483 40.2406ZM105.598 53.1366C106.791 53.7603 107.754 54.2892 107.754 54.3434C107.754 54.3841 107.374 54.5197 106.913 54.6553C106.086 54.8723 97.5702 57.4081 92.6478 58.8861C91.3053 59.293 90.1934 59.5913 90.1662 59.5642C90.0984 59.4964 103.157 52.0382 103.333 52.0246C103.401 52.0246 104.418 52.5263 105.598 53.1366ZM111.09 55.8079C112.066 56.269 113.504 57.5708 114.344 58.7505C115.28 60.0523 116.107 61.9372 116.365 63.3475C116.799 65.6528 116.487 68.1208 115.551 69.7209C115.239 70.2633 115.226 70.2769 112.473 71.1854C110.968 71.6871 108.473 72.4736 106.94 72.9211C105.408 73.3686 103.767 73.8568 103.279 73.9924C102.791 74.1416 98.7093 75.3484 94.1937 76.7045C89.6781 78.0469 85.5964 79.2674 85.1082 79.4165C84.6201 79.5521 80.8367 80.6912 76.7008 81.9252C72.5649 83.1592 68.7816 84.2847 68.2934 84.4339C67.8052 84.5695 65.8932 85.1526 64.0219 85.7085C58.0146 87.4985 57.6485 87.5799 56.6315 87.2951C56.3196 87.2137 56.3603 87.1595 57.1739 86.7256C58.2587 86.156 59.669 84.7729 60.3334 83.6609C62.4489 80.0268 62.2183 75.0501 59.7504 71.4159C59.4385 70.9549 59.2079 70.5616 59.2351 70.5345C59.2486 70.5074 61.3505 69.87 63.8863 69.1242C66.4221 68.3648 68.768 67.6597 69.107 67.5648C69.446 67.4563 70.1511 67.2529 70.6664 67.1037C71.1953 66.941 72.6191 66.5206 73.8531 66.1409C75.0871 65.7748 76.6059 65.3138 77.2432 65.1239C77.8806 64.9476 80.2536 64.2425 82.5318 63.5509C87.5762 62.0457 86.8168 62.2762 95.8887 59.5642C99.9975 58.3437 104.079 57.1369 104.974 56.8928C105.869 56.6351 107.279 56.2148 108.093 55.9436C108.92 55.6588 109.734 55.4283 109.924 55.4283C110.114 55.4147 110.629 55.591 111.09 55.8079ZM24.3714 56.0249C25.9715 56.2826 27.7886 56.5944 28.4259 56.7029C29.0632 56.8114 31.1109 57.1504 32.9686 57.4488L36.3587 58.0047L37.986 58.9946C40.7252 60.6626 46.0951 63.9713 46.5968 64.2967C46.8544 64.4595 48.0478 65.2053 49.2411 65.9375C50.4344 66.6698 52.0481 67.6597 52.8346 68.1343C53.6211 68.6225 54.8279 69.3547 55.5331 69.7751C58.3672 71.4566 59.7639 73.6669 60.13 77.0435C60.2792 78.3588 60.1029 80.1217 59.7232 81.2472C58.9232 83.688 56.8349 85.6001 54.5025 86.0611C53.6753 86.2238 53.6753 86.2238 52.8752 85.7628C50.8412 84.5424 49.0919 83.4846 45.5798 81.315C43.4915 80.0268 41.5117 78.8063 41.1727 78.6029C40.8336 78.3995 39.003 77.274 37.1045 76.0942C35.2061 74.9281 32.3042 73.1381 30.6634 72.1211C29.0226 71.1176 26.6766 69.6666 25.4426 68.9073C24.2086 68.1479 22.6763 67.1986 22.0254 66.8054L20.8321 66.0867V60.8117V55.5503H21.1576C21.3338 55.5503 22.7712 55.7673 24.3714 56.0249ZM44.0881 59.2794C45.7289 59.537 47.5867 59.8489 48.224 59.9574C48.8614 60.0659 51.0853 60.432 53.1736 60.771C55.2619 61.11 57.4858 61.4762 58.1231 61.5847C58.7604 61.6931 60.9572 62.0593 63.0048 62.3983C71.5885 63.795 74.3277 64.2425 74.3684 64.2967C74.3955 64.3239 74.3006 64.3781 74.165 64.4188C74.0294 64.4595 71.236 65.2866 67.9544 66.263C64.6728 67.2393 61.7166 68.1208 61.3776 68.2157C61.0386 68.3242 60.0894 68.6089 59.2486 68.8395L57.7299 69.2869L56.2653 68.4055C55.4653 67.9174 53.2414 66.5613 51.3429 65.3816C49.4445 64.2018 46.5426 62.4254 44.9018 61.4219C40.3048 58.5878 40.359 58.6421 40.8743 58.7505C40.9964 58.7777 42.4473 59.0082 44.0881 59.2794ZM122.101 64.6357C123.972 65.2731 125.518 65.8155 125.518 65.8562C125.518 65.9104 118.385 69.1649 117.599 69.4632C117.436 69.531 117.436 69.409 117.653 68.7988C118.073 67.6055 118.236 66.2087 118.141 64.6764L118.046 63.2933L118.358 63.3882C118.535 63.4424 120.216 63.9984 122.101 64.6357ZM128.244 67.3343C130.996 69.3141 131.186 75.023 128.664 79.864C128.122 80.9217 127.728 81.2743 126.386 81.871C125.26 82.3863 124.786 82.5897 122.942 83.4168C122.155 83.7694 121.274 84.1627 120.975 84.2983C118.765 85.3017 110.575 88.9766 108.988 89.6817C107.917 90.1563 106.791 90.6581 106.479 90.7937C105.503 91.2412 103.171 92.2989 100.431 93.5193C98.9805 94.1702 96.5939 95.2415 95.1429 95.8924C93.6919 96.5433 91.9155 97.3433 91.2104 97.6552C90.5053 97.9671 88.7288 98.7672 87.2779 99.4181C85.8269 100.069 84.0505 100.869 83.3454 101.181C82.3284 101.642 66.4085 108.775 64.1575 109.792C63.8591 109.927 63.032 110.293 62.3268 110.605C61.6217 110.931 60.5233 111.419 59.9131 111.704C59.2893 112.002 58.7469 112.233 58.7198 112.233C58.6926 112.233 58.6655 109.209 58.6655 105.52C58.6655 99.8927 58.6384 98.7265 58.4621 98.3197L58.2587 97.8451L59.452 97.3027C61.2827 96.4619 72.5649 91.3903 76.1584 89.7902C77.7992 89.0579 82.5589 86.929 83.2776 86.6035C83.5759 86.4679 84.4573 86.0747 85.2438 85.7221C86.0303 85.3695 87.0067 84.9356 87.4135 84.7458C87.8203 84.5559 89.6509 83.7287 91.4816 82.9151C93.3122 82.1015 95.6853 81.0302 96.7701 80.542C99.1025 79.4979 99.3873 79.3623 101.245 78.5351C102.032 78.1825 102.927 77.7893 103.225 77.6401C103.537 77.5045 104.662 77.0028 105.734 76.5146C106.805 76.04 108.635 75.2264 109.788 74.6975C110.941 74.1822 113.083 73.2195 114.534 72.5686C115.985 71.9177 117.423 71.2803 117.721 71.1447C118.019 71.0091 118.901 70.6159 119.687 70.2633C120.474 69.9107 121.301 69.5446 121.518 69.4361C123.091 68.7174 127.362 66.819 127.43 66.8054C127.471 66.8054 127.837 67.0495 128.244 67.3343ZM24.1544 69.9514C25.0494 70.5074 27.1512 71.7956 28.8327 72.8262C30.5142 73.8568 32.1008 74.8331 32.3584 75.0094C32.6161 75.1721 34.6094 76.4061 36.7655 77.7215C38.9352 79.0504 41.4574 80.6098 42.3931 81.1794C54.5703 88.7189 54.7466 88.8139 56.862 89.0579C57.9197 89.18 58.0553 89.1529 59.3029 88.7732C60.6453 88.3528 61.0657 88.2172 62.8014 87.7155C64.4151 87.2273 77.4059 83.3626 78.0568 83.1592C78.3959 83.0507 79.101 82.8473 79.6163 82.6981C81.013 82.2778 95.509 77.952 96.2277 77.7351C96.5667 77.6266 97.2719 77.4232 97.7872 77.274C98.316 77.1113 99.9704 76.6231 101.476 76.162C102.981 75.7146 104.255 75.3484 104.323 75.362C104.459 75.362 104.35 75.4162 96.3633 79.0097C92.6749 80.6641 89.4069 82.1286 89.1085 82.2642C88.8102 82.3998 87.9288 82.7931 87.1423 83.1456C86.3558 83.4982 85.4744 83.8915 85.176 84.0271C82.9657 85.0305 74.7752 88.7054 73.1887 89.4105C72.1174 89.8851 70.9919 90.3869 70.68 90.5225C70.3817 90.6581 69.2426 91.1734 68.1578 91.6615C67.0729 92.1497 64.8762 93.1396 63.276 93.8583C58.2587 96.1229 57.0654 96.6382 56.862 96.6382C56.7671 96.6382 50.6785 94.6177 43.3288 92.1633C27.9377 86.9832 27.5038 86.8476 13.4417 82.1286C7.62431 80.1759 2.60698 78.4266 2.29509 78.2503C1.69844 77.9113 1.57639 77.6537 1.88828 77.4096C2.06457 77.274 2.09169 77.2604 11.7467 73.2466C21.2932 69.2869 21.4152 69.2327 21.7813 68.9751C22.1746 68.6903 21.9983 68.6225 24.1544 69.9514ZM10.6618 82.8473C13.2383 83.7152 22.5407 86.834 31.3414 89.7902C40.1421 92.7464 49.2682 95.811 51.6141 96.5975C56.1297 98.1027 56.7942 98.3739 56.984 98.7672C57.1468 99.1062 57.2281 112.233 57.0654 112.233C56.8891 112.233 57.2281 112.341 40.1556 106.605C31.8024 103.798 20.3575 99.974 14.7299 98.1027C9.10239 96.2314 4.34271 94.6448 4.16642 94.577C3.84097 94.455 3.86809 94.4279 4.87156 93.4244C6.70221 91.6209 7.36667 90.2919 7.50227 88.1494C7.62431 86.3594 7.2175 84.5695 6.17336 82.2913C5.88859 81.6676 5.72586 81.1794 5.82079 81.2201C5.90215 81.2472 8.08537 81.9794 10.6618 82.8473ZM120.636 87.1188C121.531 87.6206 123.633 88.9359 123.593 88.9766C123.552 88.9902 120.053 90.6581 115.822 92.6379C115.077 92.9905 113.978 93.5057 113.382 93.7905C112.785 94.0753 111.266 94.794 109.991 95.3906C108.73 95.9873 107.049 96.7738 106.262 97.1535C104.933 97.7773 91.6172 104.069 89.0407 105.29C88.4034 105.588 86.7626 106.361 85.3794 107.012C83.9963 107.663 82.3826 108.422 81.7859 108.707C81.1893 108.992 80.0367 109.534 79.2095 109.927C78.3959 110.321 76.8228 111.053 75.738 111.568C74.6396 112.07 72.9988 112.856 72.0767 113.317L70.4088 114.131L69.5274 113.873C66.4356 112.978 63.4659 112.056 63.3845 111.989C63.3303 111.934 64.6456 111.283 66.3 110.551C67.9544 109.805 70.3139 108.748 71.5479 108.192C74.1921 107.012 74.4362 106.89 76.294 106.063C77.0805 105.71 77.9755 105.317 78.2738 105.168C78.5857 105.032 79.7112 104.53 80.7825 104.042C81.8537 103.568 83.6844 102.754 84.837 102.225C85.9897 101.71 88.1322 100.747 89.5831 100.096C91.0341 99.4452 92.4715 98.8078 92.7698 98.6722C93.0682 98.5366 93.9496 98.1434 94.7361 97.7908C95.5226 97.4383 96.404 97.045 96.7023 96.9094C97.0007 96.7738 99.6585 95.5805 102.601 94.2651C105.544 92.9362 108.907 91.431 110.059 90.9157C111.212 90.4004 112.961 89.6139 113.924 89.18C114.9 88.7461 116.568 88.0002 117.64 87.5121C118.711 87.0239 119.687 86.6578 119.809 86.6985C119.931 86.7527 120.297 86.929 120.636 87.1188ZM119.552 93.7227C118.372 97.4247 117.707 103.581 118.046 107.676C118.412 112.043 119.402 115.175 121.26 117.819C121.681 118.416 121.965 118.959 121.897 119.013C121.843 119.067 119.05 120.41 115.687 121.996C112.337 123.583 109.042 125.142 108.364 125.454C105.72 126.702 102.072 128.424 101.177 128.844C99.767 129.509 98.4516 130.119 88.9729 134.607C84.1997 136.858 79.8739 138.906 79.3451 139.15C78.8298 139.394 77.7856 139.882 77.0398 140.235C74.3277 141.523 73.1344 142.065 73.0531 142.065C72.9175 142.065 71.5614 140.384 70.8563 139.353C68.2663 135.543 67.2357 129.956 68.1035 124.437C68.7816 120.152 69.8393 117.318 71.3851 115.704C72.0089 115.067 72.2666 114.918 75.4126 113.453C75.8601 113.25 77.0263 112.694 77.989 112.233C78.9654 111.772 80.118 111.216 80.5655 111.012C81.013 110.809 84.7692 109.032 88.9051 107.08C93.041 105.127 96.7973 103.351 97.2448 103.147C97.6922 102.944 98.8584 102.388 99.8212 101.927C100.798 101.466 101.91 100.937 102.303 100.761C102.696 100.571 104.283 99.8249 105.828 99.0926C109.869 97.1806 109.68 97.262 115.009 94.7533C117.694 93.4922 119.904 92.4616 119.918 92.4887C119.931 92.5023 119.769 93.0583 119.552 93.7227ZM26.7309 103.757C34.1891 106.266 40.5082 108.381 40.7658 108.463C41.0235 108.544 41.254 108.612 41.2811 108.626C41.2947 108.653 41.0099 109.304 40.6438 110.077C39.4505 112.612 38.4741 115.813 37.986 118.809C37.6605 120.789 37.6876 124.247 38.0266 126.01C38.4606 128.18 39.4505 130.593 40.698 132.492C40.9557 132.871 40.9557 132.885 40.698 132.804C37.8097 131.936 23.7747 127.746 23.1374 127.556C15.8826 125.4 15.747 125.332 13.3603 123.189C10.8246 120.925 9.60413 118.66 8.88543 114.904C8.47862 112.748 8.55998 109.493 9.10239 107.147C9.80753 104.029 10.811 101.439 11.8958 99.8791C12.3976 99.174 12.5332 99.0655 12.8315 99.1197C13.0213 99.1469 19.2727 101.235 26.7309 103.757ZM44.9696 109.873C45.973 110.212 46.8138 110.51 46.8409 110.538C46.9087 110.592 45.8917 112.233 45.7832 112.233C45.7289 112.233 45.295 112.111 44.8204 111.961C43.8847 111.663 43.4237 111.69 43.2881 112.056C43.1525 112.395 43.5728 112.721 44.5356 113.006C45.0102 113.155 45.3899 113.317 45.3899 113.358C45.3899 113.412 45.2408 113.968 45.0509 114.592L44.6983 115.731L43.8034 115.46C42.7728 115.162 42.2168 115.175 42.149 115.528C42.0676 115.921 42.366 116.138 43.3966 116.463C43.9254 116.626 44.3729 116.775 44.4 116.789C44.4407 116.816 44.1288 118.782 44.0746 118.864C44.0475 118.891 43.5457 118.769 42.9626 118.606C41.8507 118.281 41.4981 118.308 41.3489 118.687C41.2133 119.04 41.6473 119.325 42.8406 119.691L43.9525 120.043L43.8983 121.318C43.8847 122.023 43.844 122.62 43.8169 122.647C43.7898 122.674 43.3423 122.566 42.7999 122.403C41.7286 122.077 41.3354 122.091 41.132 122.43C40.8879 122.81 41.254 123.054 42.6914 123.501C43.4372 123.732 44.061 123.989 44.0746 124.071C44.1695 124.423 44.4271 126.24 44.3865 126.281C44.3729 126.308 43.844 126.173 43.2203 125.983C41.8778 125.562 41.4032 125.617 41.471 126.173C41.5117 126.498 41.6201 126.579 42.4609 126.851C42.9762 127.027 43.7084 127.244 44.0746 127.339L44.7526 127.515L45.0645 128.437C45.2272 128.953 45.3628 129.386 45.3357 129.4C45.3221 129.414 44.7933 129.292 44.1695 129.102C43.5457 128.925 42.9626 128.776 42.8677 128.776C42.5965 128.776 42.366 129.142 42.4609 129.441C42.5287 129.658 42.9219 129.834 44.1966 130.241L45.851 130.756L46.1629 131.407C46.3391 131.773 46.4476 132.085 46.407 132.126C46.3798 132.153 45.9459 132.058 45.4442 131.909C44.3593 131.57 43.844 131.556 43.6135 131.827C43.3016 132.193 43.8305 132.532 45.5527 133.075L47.1799 133.577L47.6138 134.268C47.8579 134.634 48.0478 134.96 48.0342 134.973C48.0206 134.987 47.3969 134.824 46.6646 134.594C45.9188 134.363 44.9967 134.092 44.6034 133.97C43.0847 133.509 41.1727 130.878 40.1149 127.759C39.3962 125.657 39.1115 122.552 39.3962 120.152C39.6268 118.335 40.237 115.596 40.8336 113.792C41.4167 112.029 42.7321 109.249 42.9762 109.249C43.0711 109.249 43.9661 109.534 44.9696 109.873ZM52.7125 112.49C54.9093 113.223 56.862 113.901 57.0654 113.995C57.5671 114.24 58.5706 114.009 60.13 113.317C61.1471 112.856 61.3234 112.816 61.5674 112.978C61.8929 113.182 63.3981 113.711 64.9033 114.131C65.4593 114.294 66.0695 114.47 66.2593 114.538C66.4492 114.606 67.1814 114.823 67.8866 115.026C68.5917 115.229 69.2155 115.433 69.2833 115.487C69.3375 115.528 69.0663 116.165 68.6866 116.884C67.7374 118.701 67.195 120.491 66.5848 123.827C66.1915 125.901 66.2322 130.743 66.639 132.777C67.1407 135.258 67.6018 136.668 68.5239 138.472C69.0392 139.489 69.9206 140.859 70.3681 141.347C70.5308 141.537 70.5851 141.659 70.4766 141.659C70.3817 141.659 68.768 141.198 66.8967 140.642C65.0118 140.072 63.1811 139.53 62.8014 139.408C62.4353 139.299 59.5876 138.458 56.4959 137.523L50.8683 135.841L50.2852 135.204C48.1562 132.871 46.1764 128.044 45.634 123.827C45.1458 120.098 46.2442 114.497 47.98 111.799C48.1969 111.433 48.4681 111.148 48.563 111.148C48.658 111.148 50.5293 111.744 52.7125 112.49Z" fill="#5738AF"/>
<path d="M81.704 28.1449C81.5277 28.2805 81.1345 28.511 80.8497 28.6466C80.253 28.9314 80.0903 29.2026 80.4158 29.3246C80.6599 29.4195 81.6226 28.9585 82.0973 28.5246C82.6803 27.9821 82.3413 27.6431 81.704 28.1449Z" fill="#5738AF"/>
<path d="M81.5809 29.2566C80.8215 29.6363 80.2791 29.9889 80.2384 30.138C80.2113 30.3279 80.2655 30.355 80.6316 30.2736C81.5673 30.0974 83.3437 29.0532 83.3437 28.7006C83.3437 28.4566 82.8827 28.6057 81.5809 29.2566Z" fill="#5738AF"/>
<path d="M85.4465 29.4603C84.199 30.1655 81.6496 31.0198 79.1138 31.6029C78.7341 31.6842 78.6121 31.9961 78.8697 32.1589C79.1681 32.3351 82.5988 31.3588 84.6193 30.5045C86.0025 29.9214 86.7619 29.3112 86.355 29.0535C86.3008 29.0264 85.894 29.2027 85.4465 29.4603Z" fill="#5738AF"/>
<path d="M101.38 41.8678C100.35 42.3559 83.2501 52.1058 82.8975 52.4177C82.6127 52.6618 82.6398 53.0958 82.9653 53.2856C83.1416 53.4076 84.7281 52.5533 91.1015 48.9056C101.068 43.1967 101.814 42.7492 102.397 42.2068C103.292 41.3525 102.804 41.1898 101.38 41.8678Z" fill="#5738AF"/>
<path d="M105.923 43.3596C104.269 44.241 88.2269 53.4756 87.8608 53.7468C87.359 54.1129 87.2777 54.5197 87.6574 54.7232C87.9692 54.8859 87.5218 55.13 94.5325 51.1025C97.5971 49.3532 101.53 47.0887 103.279 46.0852C105.028 45.0817 106.601 44.1325 106.777 43.9833C107.144 43.6443 107.13 43.1562 106.737 43.1019C106.588 43.0884 106.221 43.1968 105.923 43.3596Z" fill="#5738AF"/>
<path d="M28.1543 50.126C28.1543 50.3023 28.9272 50.4922 31.0155 50.7905C32.9682 51.0753 33.4428 51.1159 34.3921 51.0753L35.0023 51.0481L34.2565 50.8041C33.5378 50.5735 29.4832 49.9904 28.5882 49.9904C28.3441 49.9904 28.1543 50.0447 28.1543 50.126Z" fill="#5738AF"/>
<path d="M28.8326 51.333C29.1987 51.55 31.07 51.767 31.409 51.6449C31.7209 51.5229 31.7209 51.5229 31.2734 51.3737C30.7446 51.1839 28.5207 51.1567 28.8326 51.333Z" fill="#5738AF"/>
<path d="M28.6963 52.3907C28.6963 52.567 29.6862 52.7026 30.7846 52.689C31.4897 52.689 31.5575 52.6619 31.2728 52.5398C30.7846 52.35 28.6963 52.228 28.6963 52.3907Z" fill="#5738AF"/>
<path d="M63.901 56.2147C63.7926 56.3775 64.3078 56.4995 65.2028 56.4995C65.9622 56.4995 66.3283 56.3368 65.908 56.1741C65.5825 56.052 63.9824 56.0791 63.901 56.2147Z" fill="#5738AF"/>
<path d="M64.658 57.2997C64.536 57.3811 64.6173 57.4353 64.9564 57.4896C65.4988 57.571 66.0141 57.476 65.9056 57.2997C65.8107 57.1506 64.8886 57.1506 64.658 57.2997Z" fill="#5738AF"/>
<path d="M62.0566 58.371C62.0566 58.4659 62.0973 58.5337 62.1651 58.5337C62.2194 58.5337 63.8737 58.6828 65.8535 58.8727C69.6369 59.2253 71.2777 59.2931 71.2777 59.0897C71.2777 58.8185 68.0639 58.4523 64.4026 58.3032C62.6669 58.2489 62.0566 58.2625 62.0566 58.371Z" fill="#5738AF"/>
<path d="M109.856 59.4421C110.019 59.8896 110.71 62.3983 110.887 63.2119C111.131 64.3103 111.09 67.2529 110.819 68.8259C110.656 69.7615 110.629 70.1412 110.737 70.2497C111.226 70.7243 111.619 68.5547 111.605 65.5171C111.592 63.6051 111.551 63.1848 111.226 61.9914C110.765 60.2828 110.29 59.2116 109.978 59.2116C109.829 59.2116 109.788 59.2794 109.856 59.4421Z" fill="#5738AF"/>
<path d="M98.9677 62.0457C98.1134 62.344 97.8421 62.5474 98.1676 62.683C98.4524 62.7915 99.6592 62.3847 100.052 62.0593L100.364 61.8016H100.025C99.8355 61.8016 99.3609 61.9101 98.9677 62.0457Z" fill="#5738AF"/>
<path d="M99.4411 62.9541C99.3191 63.0897 99.4682 63.2795 99.6988 63.2795C99.8072 63.2795 99.8886 63.1846 99.8886 63.0761C99.8886 62.8727 99.6038 62.7914 99.4411 62.9541Z" fill="#5738AF"/>
<path d="M109.788 66.3579C109.788 67.0223 109.748 67.958 109.693 68.4597C109.626 69.3276 109.626 69.3818 109.883 69.3818C110.1 69.3818 110.182 69.2598 110.249 68.8665C110.371 68.08 110.344 65.9104 110.195 65.5307C109.938 64.8527 109.788 65.1646 109.788 66.3579Z" fill="#5738AF"/>
<path d="M72.2811 72.094C71.3997 72.2702 68.4164 73.3144 67.9554 73.5992C67.2909 74.006 67.8469 73.9246 70.1793 73.233C72.3354 72.5957 73.8541 71.9584 73.1761 71.9855C72.9863 71.9855 72.5795 72.0397 72.2811 72.094Z" fill="#5738AF"/>
<path d="M25.4013 60.9339C25.2115 61.1101 25.3064 61.4763 25.6183 61.7475C25.781 61.8966 27.0557 62.7238 28.4524 63.5917C29.8491 64.4595 32.5883 66.1953 34.5546 67.4293C39.7482 70.7244 40.8872 71.416 41.0906 71.416C41.3754 71.416 41.6059 71.0499 41.511 70.7651C41.4703 70.6024 40.155 69.6938 38.3515 68.5548C36.6564 67.4971 34.6359 66.2088 33.8494 65.7207C29.1575 62.7509 26.5539 61.1237 26.2963 60.9881C25.9708 60.8254 25.5369 60.7983 25.4013 60.9339Z" fill="#5738AF"/>
<path d="M38.3937 63.6866C38.0954 64.1612 38.4751 64.4866 41.6211 66.48C49.4454 71.4567 53.5813 74.006 53.7576 73.9653C54.083 73.8975 54.2864 73.4907 54.1237 73.2331C53.9339 72.9348 39.3158 63.7273 38.8547 63.6188C38.6378 63.5645 38.4479 63.5917 38.3937 63.6866Z" fill="#5738AF"/>
<path d="M27.436 66.7647C27.219 66.9681 27.3682 67.3613 27.7885 67.6596C28.1818 67.9715 29.9853 69.1106 38.9352 74.7382C40.5082 75.7281 42.827 77.1926 44.0881 77.9926C49.2275 81.2336 50.8954 82.2642 51.031 82.2642C51.3293 82.2642 51.6005 81.8573 51.5056 81.5861C51.4514 81.4505 48.7257 79.6334 45.2407 77.4367C37.8096 72.7583 31.599 68.853 29.5921 67.5918C28.2225 66.7375 27.6665 66.5206 27.436 66.7647Z" fill="#5738AF"/>
<path d="M46.6374 74.8874C46.5968 75.0094 46.6103 75.2128 46.6917 75.3349C46.7595 75.4569 47.9528 76.2706 49.3224 77.1384C52.0209 78.8606 52.4955 79.0369 52.4955 78.2639C52.4955 77.8978 52.3192 77.7486 49.9869 76.2706C47.4646 74.684 46.8273 74.4128 46.6374 74.8874Z" fill="#5738AF"/>
<path d="M7.61067 83.3357C7.58354 83.4035 7.66491 83.7831 7.80051 84.19C8.39717 85.9257 8.42429 87.9326 7.86831 89.2615C7.73271 89.6005 7.70559 89.804 7.80051 89.8989C8.05816 90.1565 8.30224 89.8718 8.57345 89.031C9.00738 87.5665 8.87178 85.1256 8.26156 83.7967C8.05816 83.3628 7.74627 83.1323 7.61067 83.3357Z" fill="#5738AF"/>
<path d="M8.66747 83.5797C8.70815 83.7967 8.84376 84.3255 8.95224 84.773C9.07428 85.2205 9.1692 85.8443 9.1692 86.1562C9.1692 86.6443 9.20989 86.7393 9.44041 86.7393C9.67094 86.7393 9.71162 86.6443 9.71162 86.0206C9.69806 84.7459 9.20989 83.2136 8.80307 83.2136C8.65391 83.2136 8.61323 83.3085 8.66747 83.5797Z" fill="#5738AF"/>
<path d="M15.1091 88.1766C14.8786 88.4071 15.0278 88.7732 15.421 88.9902C15.6515 89.1122 16.316 89.3428 16.8855 89.519C17.4551 89.6953 19.8959 90.4411 22.3232 91.187C24.7505 91.9328 30.2425 93.6278 34.5276 94.9432C38.8126 96.2585 43.2062 97.601 44.2775 97.94C46.3793 98.6045 46.8675 98.6316 46.8675 98.0756C46.8675 97.8993 46.7861 97.6959 46.7048 97.6281C46.6098 97.5468 44.8199 96.9637 42.7316 96.3263C31.1239 92.7735 23.1233 90.3191 21.4418 89.7903C20.3977 89.4648 18.8111 88.9766 17.9161 88.7054C16.2211 88.1766 15.2718 88.0003 15.1091 88.1766Z" fill="#5738AF"/>
<path d="M12.8598 91.2275C12.4394 91.3903 12.4801 91.8377 12.9412 92.0683C13.2802 92.2446 14.148 92.5293 17.9856 93.7091C20.8604 94.5905 21.1316 94.6176 21.335 94.1159C21.4706 93.7633 21.0638 93.5192 19.5315 93.0446C18.7179 92.8005 17.172 92.3259 16.0872 91.9869C13.3615 91.1462 13.1988 91.1055 12.8598 91.2275Z" fill="#5738AF"/>
<path d="M11.7466 94.6717C11.6109 94.8344 11.6109 94.9158 11.7601 95.0921C12.0042 95.3904 11.9228 95.3633 17.9165 97.1939C20.832 98.0889 23.9644 99.0653 24.9001 99.35C25.8358 99.6348 27.8156 100.245 29.3072 100.706C30.7989 101.167 33.972 102.143 36.3586 102.876C47.8171 106.401 47.8307 106.401 48.1019 106.266C48.4002 106.103 48.4409 105.696 48.1832 105.479C48.0341 105.357 41.9726 103.432 37.1722 101.994C36.3586 101.75 32.1142 100.448 27.7478 99.1059C13.5636 94.7395 12.6822 94.4683 12.3025 94.4683C12.0856 94.4683 11.8415 94.5632 11.7466 94.6717Z" fill="#5738AF"/>
<path d="M33.5245 97.6282C33.1719 97.8859 33.3753 98.2113 34.094 98.5097C35.1246 98.9436 47.2476 102.632 47.4916 102.578C47.6137 102.551 47.79 102.429 47.8713 102.307C47.9798 102.117 47.9527 102.008 47.7493 101.805C47.4916 101.561 34.3923 97.452 33.8364 97.452C33.7957 97.452 33.6601 97.5333 33.5245 97.6282Z" fill="#5738AF"/>
<path d="M103.687 102.686C102.236 103.405 100.378 104.313 99.5507 104.707C89.1771 109.697 75.0743 116.653 74.8166 116.911C74.4369 117.291 74.5183 117.657 74.9929 117.657C75.3862 117.657 76.0099 117.372 80.7018 115.08C82.7223 114.09 85.0411 112.965 85.8548 112.572C86.6819 112.178 89.055 111.012 91.1433 109.995C93.2316 108.978 95.4962 107.88 96.1606 107.554C100.161 105.642 106.656 102.428 106.941 102.211C107.226 101.995 107.253 101.913 107.131 101.71C107.05 101.561 106.833 101.439 106.656 101.425C106.467 101.398 105.233 101.927 103.687 102.686Z" fill="#5738AF"/>
<path d="M112.297 103.269C111.388 103.608 108.961 104.734 105.585 106.374C97.1906 110.456 94.7633 111.663 94.682 111.812C94.5464 112.029 94.7091 112.463 94.9532 112.558C95.1837 112.639 95.5227 112.477 103.686 108.503C111.809 104.557 113.45 103.662 113.45 103.201C113.45 102.944 113.111 102.971 112.297 103.269Z" fill="#5738AF"/>
<path d="M93.909 115.568C83.4811 120.654 75.1957 124.776 74.9516 124.979C74.7211 125.196 74.5312 125.427 74.5312 125.495C74.5312 125.739 74.9787 125.806 75.4669 125.644C75.9008 125.508 82.2607 122.443 92.4309 117.48C95.6583 115.907 98.3161 114.619 102.533 112.572C103.659 112.029 106.222 110.782 108.229 109.792C110.249 108.815 112.148 107.88 112.446 107.73C112.758 107.595 113.043 107.351 113.083 107.202C113.151 106.93 112.866 106.537 112.595 106.537C112.5 106.537 104.093 110.605 93.909 115.568Z" fill="#5738AF"/>
<path d="M110.806 115.813C109.843 116.287 107.524 117.413 105.653 118.321C103.795 119.23 97.4893 122.308 91.6448 125.142C85.8003 127.99 80.8778 130.458 80.688 130.634C80.2269 131.054 80.3354 131.285 80.9863 131.271C81.583 131.258 81.6237 131.244 86.8037 128.708C88.892 127.678 91.3329 126.498 92.2279 126.064C93.1229 125.63 95.4417 124.505 97.3808 123.556C99.3199 122.62 103.619 120.532 106.941 118.918C110.263 117.304 113.084 115.867 113.206 115.731C113.504 115.392 113.314 114.945 112.867 114.958C112.704 114.958 111.782 115.338 110.806 115.813Z" fill="#5738AF"/>
<path d="M98.1268 118.185C97.72 118.321 96.1605 119.013 94.6689 119.718C88.8379 122.525 77.2302 128.22 77.0404 128.369C76.6065 128.722 76.9862 129.4 77.515 129.21C77.8676 129.088 91.3601 122.538 95.5639 120.45C98.0047 119.23 99.2116 118.497 99.2116 118.199C99.2116 117.968 98.8455 117.968 98.1268 118.185Z" fill="#5738AF"/>
<path d="M112.907 118.796C108.486 120.857 92.6068 128.681 92.4712 128.871C92.2407 129.169 92.4847 129.59 92.878 129.59C93.2034 129.59 114.236 119.379 114.927 118.891C115.158 118.728 115.348 118.47 115.348 118.321C115.348 117.874 114.575 118.009 112.907 118.796Z" fill="#5738AF"/>
<path d="M14.2834 100.964C13.4834 101.927 12.6833 105.046 12.6426 107.337C12.6291 108.544 12.6562 108.775 12.846 108.815C13.0223 108.842 13.0901 108.571 13.2122 107.053C13.4156 104.747 13.7952 103.229 14.5817 101.52C15.0428 100.516 14.8936 100.245 14.2834 100.964Z" fill="#5738AF"/>
<path d="M14.8785 102.686C14.3768 103.323 13.9564 105.046 14.1598 105.588L14.2954 105.927L14.5124 105.425C14.6344 105.141 14.7293 104.815 14.7293 104.679C14.7293 104.544 14.8514 103.974 15.0006 103.432C15.1633 102.889 15.2582 102.415 15.2311 102.374C15.1904 102.347 15.0412 102.483 14.8785 102.686Z" fill="#5738AF"/>
<path d="M15.3681 113.765C15.2053 114.199 15.2596 116.572 15.4765 117.928C15.7071 119.379 16.1274 121.345 16.4936 122.715C16.7512 123.637 17.2665 124.708 17.4699 124.708C17.6326 124.708 17.6055 124.41 17.3207 123.474C16.6292 121.196 15.8969 117.413 15.5715 114.47C15.5037 113.846 15.4359 113.602 15.3681 113.765Z" fill="#5738AF"/>
<path d="M13.8478 114.389C13.7529 115.08 13.7935 115.596 14.1461 118.199C14.3495 119.786 14.5529 120.274 14.8241 119.935C14.9326 119.813 14.8784 119.148 14.6479 117.657C14.4851 116.504 14.336 115.284 14.3224 114.945C14.3088 113.656 13.997 113.304 13.8478 114.389Z" fill="#5738AF"/>
<path d="M18.8657 121.521C18.947 122.85 19.1911 124.111 19.4352 124.396C19.7606 124.803 19.5572 122.796 19.1504 121.589L18.7979 120.572L18.8657 121.521Z" fill="#5738AF"/>
<path d="M20.9678 122.05C20.9678 122.471 21.3068 123.257 21.5644 123.488C21.9034 123.759 21.8356 123.19 21.4424 122.403C21.0627 121.644 20.9678 121.576 20.9678 122.05Z" fill="#5738AF"/>
<path d="M65.892 115.636C65.675 115.907 64.5631 120.07 64.6851 120.192C64.9156 120.423 65.2411 119.948 65.4716 119.067C65.8106 117.724 66.1496 115.921 66.0954 115.663C66.0547 115.473 66.0276 115.473 65.892 115.636Z" fill="#5738AF"/>
<path d="M64.1154 116.125C63.9256 116.558 63.5459 118.362 63.5459 118.755C63.5459 119.121 63.9391 119.081 64.0883 118.687C64.3188 118.064 64.5494 116.03 64.4002 115.88C64.3053 115.786 64.2104 115.867 64.1154 116.125Z" fill="#5738AF"/>
<path d="M62.8964 116.124C62.8286 116.26 62.6659 116.816 62.5303 117.358C62.354 118.104 62.3269 118.389 62.4489 118.511C62.693 118.755 62.8964 118.43 63.0863 117.426C63.3032 116.314 63.3168 115.894 63.1405 115.894C63.0727 115.894 62.9642 116.002 62.8964 116.124Z" fill="#5738AF"/>
<path d="M63.181 126.295C62.9098 126.946 63.0047 130.309 63.3437 132.031C63.7912 134.363 65.3235 139.001 65.6761 139.136C65.9608 139.245 66.0558 138.824 65.8659 138.35C65.771 138.119 65.3913 137.021 65.0116 135.895C63.9539 132.709 63.5335 130.349 63.5335 127.42C63.5335 126.525 63.5064 125.793 63.4657 125.793C63.4251 125.793 63.303 126.023 63.181 126.295Z" fill="#5738AF"/>
<path d="M61.5675 131.678C61.4183 132.058 61.6082 132.953 62.1641 134.634C62.7472 136.343 62.815 136.506 63.0185 136.506C63.2354 136.506 63.1541 135.597 62.8693 134.851C62.7201 134.458 62.4354 133.577 62.2455 132.912C61.8523 131.583 61.7031 131.312 61.5675 131.678Z" fill="#5738AF"/>
</svg>
