<svg width="176" height="173" viewBox="0 0 176 173" fill="none" xmlns="http://www.w3.org/2000/svg">
<path d="M64.9764 0.246532C64.5762 0.774043 64.5762 1.33793 65.0128 2.90227C65.2675 3.79358 65.5949 4.97593 65.7404 5.50344C67.8504 13.5252 68.5598 15.7626 69.1237 16.3083C70.0332 17.1814 70.7608 16.2537 70.397 14.653C70.2151 13.8345 67.4684 3.73901 66.8318 1.53802C66.468 0.264723 65.5039 -0.390118 64.9764 0.246532Z" fill="#FABF29"/>
<path d="M112.649 1.93795C112.413 2.10166 112.122 2.61098 111.976 3.08392C111.831 3.55686 110.921 6.23079 109.957 9.03205C107.829 15.1803 107.829 15.1803 107.902 15.8897C107.975 16.5627 108.375 16.8538 108.993 16.7082C109.557 16.5627 109.775 16.0898 111.467 11.1239C112.176 9.06843 113.068 6.41269 113.486 5.23034C114.341 2.7565 114.359 2.52003 113.868 2.0289C113.432 1.59234 113.177 1.57415 112.649 1.93795Z" fill="#FABF29"/>
<path d="M154.523 22.2565C154.141 22.4748 151.013 25.0759 145.265 29.9327C142.1 32.6248 140.79 33.9527 140.79 34.4984C140.79 34.6257 140.917 34.8258 141.063 34.9531C141.408 35.2442 142.3 34.9531 143.355 34.1709C145.247 32.7703 155.633 23.9664 155.851 23.5662C156.124 23.0569 155.924 22.5293 155.342 22.2201C154.924 22.0018 154.978 22.0018 154.523 22.2565Z" fill="#FABF29"/>
<path d="M19.5545 26.3311C18.9906 26.9132 19.2998 27.4953 20.8278 28.8232C22.4467 30.242 28.3584 35.2806 30.6322 37.2088C32.3784 38.6822 33.4698 39.2461 34.0155 38.955C34.2156 38.8459 34.3793 38.664 34.3793 38.5366C34.3793 38.0455 33.3789 36.8268 32.0328 35.6626C30.523 34.3347 25.3207 29.9146 22.5013 27.5317C20.6641 25.9855 20.1184 25.7673 19.5545 26.3311Z" fill="#FABF29"/>
<path d="M85.7656 27.2587C81.0362 27.6407 78.3805 28.1864 72.9235 29.969C70.2859 30.8239 67.7212 31.6607 67.2118 31.8062C65.1927 32.4246 61.1909 34.5711 58.2078 36.6083C55.6248 38.3728 53.6785 40.0099 51.2956 42.3928C43.6558 50.0689 39.0719 59.0548 37.2529 69.9324C36.9073 72.0061 36.8527 73.0429 36.8527 77.4267C36.8527 82.8655 36.9618 83.9933 37.9441 88.3953C41.1455 102.784 50.8771 115.153 64.2103 121.81C65.1562 122.283 66.2476 122.793 66.6478 122.92C67.0298 123.065 68.012 123.629 68.8306 124.157C73.2689 127.14 76.6886 131.778 78.0347 136.635C78.2166 137.29 78.5076 138.254 78.6531 138.782C79.2716 140.837 79.5081 141.583 79.7445 142.42C80.363 144.53 81.3089 147.495 81.4726 147.822C81.5635 148.022 81.7818 148.604 81.9455 149.132C82.855 152.042 86.0382 154.716 90.131 156.026C91.3861 156.426 91.4043 156.444 91.5316 157.154C92.1137 160.555 96.7157 163.502 102.282 164.011C103.592 164.138 103.682 164.175 103.682 164.575C103.682 165.212 104.683 167.213 105.629 168.486C107.702 171.251 110.704 172.797 114.324 172.961C116.015 173.052 116.543 172.997 117.78 172.67C121.49 171.669 124.492 168.922 125.82 165.357C126.711 162.974 126.784 160.537 126.02 157.954L125.638 156.626L126.493 155.88C128.603 154.043 130.676 150.878 131.259 148.641C131.586 147.313 131.55 144.475 131.168 143.766C130.986 143.42 131.077 143.202 131.95 141.965C133.66 139.491 134.605 137.217 134.86 134.907C135.078 133.125 134.533 130.669 133.732 129.705C133.532 129.45 131.968 124.521 129.967 117.809C129.258 115.462 129.094 113.898 129.203 110.714C129.349 106.367 130.222 103.384 132.095 100.892C133.387 99.182 133.86 98.1451 135.715 93.0701C139.353 83.1384 139.444 71.4604 135.988 61.0739C130.131 43.5569 114.997 30.6966 96.7705 27.7862C93.4054 27.2587 88.6396 27.0222 85.7656 27.2587ZM93.5145 29.5142C104.701 30.642 114.688 35.3532 122.509 43.2113C126.384 47.0858 129.13 50.9239 131.513 55.7806C134.606 62.0743 136.134 68.2226 136.37 75.3349C136.679 84.7391 133.969 94.689 129.24 101.401C128.639 102.238 128.439 102.784 127.712 105.53C126.602 109.787 126.784 115.28 128.166 119.227C128.694 120.701 131.331 129.505 131.331 129.759C131.331 130.341 126.602 133.943 122.855 136.199C120.563 137.581 114.76 140.491 113.833 140.728C113.414 140.837 113.36 140.783 113.196 140.146C112.687 138.272 110.486 130.669 109.922 128.832C109.212 126.558 107.83 123.611 106.557 121.61C105.756 120.355 103.446 117.427 102.136 115.99C101.336 115.116 101.336 115.207 102.5 111.078C103.61 107.204 104.065 106.276 106.12 103.839C109.012 100.382 110.577 99.0546 114.688 96.6172C116.943 95.2711 119.835 93.3066 120.836 92.4335C121.327 91.9969 121.873 91.2693 122.164 90.669C123.037 88.8137 122.582 87.122 120.581 84.6481C119.835 83.7205 119.435 83.4112 118.18 82.811C116.343 81.9378 115.324 80.992 114.178 79.0638C113.087 77.2266 112.123 76.6082 110.195 76.4626C109.067 76.3899 108.849 76.4263 107.775 76.9538C106.302 77.6814 104.92 79.082 104.174 80.61C103.628 81.7014 103.592 81.9196 103.592 83.6113C103.592 85.1938 103.646 85.5576 104.065 86.449L104.538 87.4676L103.955 88.2861C102.227 90.669 99.8627 91.7241 97.7345 91.0692C97.589 91.0146 97.88 90.4326 98.5167 89.4867C100.281 86.8491 101.736 83.393 101.973 81.2648C102.046 80.519 101.991 80.2098 101.7 79.7368C100.936 78.5545 99.3716 78.5181 97.1342 79.6459C95.479 80.4826 94.0965 81.8287 93.3871 83.2839C92.896 84.248 92.8596 84.5026 92.8596 86.3398C92.8596 88.177 92.896 88.4317 93.3689 89.3412C93.6599 89.8869 94.1511 90.6145 94.4603 90.9419L95.0424 91.5422L94.4967 91.9787C93.2052 93.0337 91.7318 92.961 90.5131 91.7786C89.3125 90.6145 89.1488 89.9596 89.0579 86.1033C89.0033 83.1566 88.9306 82.4653 88.5304 80.9192C88.2757 79.9551 87.821 78.7182 87.5481 78.2089C86.5295 76.3171 84.8742 76.0807 84.3831 77.7178C84.1466 78.4999 84.474 82.5927 84.8742 83.9024C84.947 84.157 84.7651 84.2116 83.8192 84.2843C80.072 84.5208 76.907 88.9228 77.6346 92.8882C77.8529 94.0524 77.8529 94.0706 77.2344 95.3257C76.1794 97.3993 75.2153 98.0906 74.2876 97.4539C73.7601 97.0901 72.8142 94.9073 72.4686 93.3066L72.1594 91.9787L73.0871 90.5781C74.6332 88.177 75.5427 85.5758 75.2335 84.3389C75.1426 84.0115 74.9061 83.775 74.4695 83.5931C73.6146 83.2293 72.7961 83.5022 72.0321 84.3571C70.9589 85.594 70.5405 87.1402 70.5587 89.8687L70.5769 91.7786L69.8675 92.6881C69.0307 93.8159 67.4482 96.7445 67.048 97.945C66.5023 99.5458 66.3204 101.456 66.5569 102.765C67.0662 105.548 68.7215 107.204 72.123 108.35C74.1239 109.023 76.2157 108.932 78.8533 108.059C80.5995 107.477 80.7814 107.458 83.5827 107.44H86.4931L89.3853 108.422C90.986 108.95 92.5685 109.55 92.9323 109.75C93.9691 110.332 95.4607 111.569 97.6617 113.661L99.7353 115.644L99.4443 117.445C98.4984 123.138 98.6076 127.577 99.8445 132.088C100.045 132.833 100.863 135.817 101.682 138.709C102.482 141.601 103.137 144.057 103.137 144.166C103.137 144.53 99.2806 145.403 94.6239 146.094C92.0409 146.494 85.0378 146.803 83.8373 146.567C83.1097 146.44 83.237 146.785 81.2907 140.091C79.6536 134.543 79.5263 134.143 78.635 132.361C76.8524 128.759 74.0147 125.357 70.9406 123.102C69.3035 121.883 68.6305 121.519 66.0293 120.337C60.1358 117.681 53.6602 112.643 49.5311 107.531C39.4538 95.0164 36.2524 78.6818 40.9273 63.4204C42.3461 58.7638 44.8927 53.6888 47.9122 49.5051C53.0782 42.3382 61.2455 36.0263 68.376 33.6797C69.5401 33.2978 72.1231 32.461 74.1422 31.788C78.3987 30.3874 80.636 29.8962 84.8561 29.4233C86.184 29.2778 91.8047 29.3323 93.5145 29.5142ZM110.231 79.082C110.504 80.6645 111.304 82.4108 112.032 83.0292C112.359 83.3021 112.705 83.5204 112.796 83.5204C113.396 83.5204 112.268 85.5213 111.104 86.5217C109.722 87.7041 107.703 88.0497 106.575 87.2857C106.211 87.0674 105.738 86.4671 105.447 85.8851C104.974 84.9756 104.938 84.7391 104.992 83.4294C105.083 81.7196 105.483 80.8282 106.72 79.5004C107.593 78.5545 108.776 77.8815 109.522 77.8815C109.976 77.8815 110.031 77.9542 110.231 79.082ZM86.4022 79.1548C87.057 80.4463 87.5117 82.72 87.6027 85.3394L87.6754 87.795L87.3298 87.0674C87.1298 86.6672 86.966 86.2125 86.966 86.067C86.9479 85.9214 86.8205 85.4485 86.675 85.0119C86.1293 83.4476 85.4927 78.4272 85.8565 78.4272C85.9474 78.4272 86.2021 78.7546 86.4022 79.1548ZM112.614 79.4822C113.014 80.1188 113.141 80.519 113.141 81.2284L113.123 82.1561L112.778 81.7377C112.086 80.901 111.322 78.1725 111.886 78.5363C111.995 78.5909 112.323 79.0274 112.614 79.4822ZM100.408 80.519C101.081 81.3194 98.553 87.413 96.5703 89.7413C95.9519 90.4689 95.6608 90.3598 94.8787 89.0865C94.4239 88.3589 94.333 87.9951 94.2602 86.74C94.1329 84.248 95.0788 82.5017 97.2252 81.2284C98.8441 80.2825 100.008 80.0279 100.408 80.519ZM117.634 84.6481C118.889 85.1575 119.617 85.7032 120.272 86.6127C121.454 88.2498 121.418 89.8141 120.181 91.051C119.308 91.906 116.525 93.8341 113.487 95.6713C109.503 98.0542 107.83 99.5276 104.538 103.457C102.755 105.603 102.264 106.658 101.045 110.915C100.608 112.479 100.19 113.807 100.136 113.861C100.099 113.916 99.4625 113.37 98.7349 112.679C95.0787 109.15 94.0601 108.477 90.3857 107.258C86.6932 106.021 85.9656 105.876 83.3644 105.858C81.5454 105.858 80.9633 105.93 79.5809 106.349C75.8519 107.477 74.5241 107.604 72.505 106.985C70.6678 106.422 69.1398 105.276 68.5032 104.002C68.0303 103.093 67.9575 102.765 67.9575 101.474C67.9757 99.2183 68.5578 97.5267 70.2676 94.8345L70.9771 93.6886L71.4682 95.1074C72.6323 98.5817 74.2694 99.8914 76.1794 98.9091C76.8706 98.5635 77.9802 97.1992 78.4713 96.126L78.8169 95.3621L79.3808 95.7986C80.7996 96.8718 83.0734 97.1265 84.6923 96.3625C85.9292 95.7804 87.3662 94.307 87.9665 92.9974L88.4576 91.906L89.4762 92.8155C91.4408 94.5617 93.2416 94.6708 95.2243 93.1611L96.4066 92.2698L97.7163 92.5426C100.19 93.0701 101.754 92.5608 103.792 90.5235C104.501 89.8323 105.211 89.0683 105.356 88.85L105.629 88.4317L106.338 88.8137C106.92 89.1229 107.284 89.1775 108.339 89.1047C110.631 88.9774 112.741 87.4676 113.978 85.0665L114.506 84.0297L115.524 84.1206C116.07 84.1752 117.034 84.4117 117.634 84.6481ZM73.7601 85.6486C73.6328 86.4126 72.3049 89.3412 72.1048 89.3412C72.0321 89.3412 72.0321 88.8318 72.0866 88.1952C72.2504 86.4853 72.978 84.9756 73.6328 84.9756C73.8329 84.9756 73.8693 85.1211 73.7601 85.6486ZM84.8742 85.8851C85.2926 86.0306 85.4745 86.2852 85.7473 87.031C85.9292 87.5404 86.3658 88.559 86.7114 89.2684L87.3662 90.5781L86.8751 91.8514C85.7655 94.7436 83.1461 96.0897 80.8178 94.9619C79.8538 94.5071 79.3808 93.8523 79.108 92.6517C78.6714 90.8327 79.4536 88.6681 81.0725 87.1402C82.4913 85.7941 83.5827 85.4303 84.8742 85.8851ZM102.555 118.682C105.301 121.974 107.575 125.958 108.485 129.068C108.721 129.887 109.14 131.324 109.412 132.27C109.685 133.215 110.395 135.671 110.977 137.708C111.795 140.528 111.995 141.474 111.832 141.565C111.413 141.819 104.774 143.984 104.683 143.893C104.592 143.784 101.518 132.779 100.936 130.451C100.372 128.177 100.136 124.539 100.372 121.701C100.627 118.773 100.936 116.954 101.154 117.099C101.245 117.154 101.882 117.863 102.555 118.682ZM132.677 132.47C133.314 135.707 131.44 140.019 127.784 143.584C124.11 147.222 119.035 150.278 113.323 152.333C108.03 154.243 103.519 155.062 98.4984 155.062C92.9686 155.043 88.6576 153.788 86.0019 151.405C85.2015 150.678 84.0374 149.15 84.0374 148.841C84.0374 148.768 85.6199 148.732 87.548 148.713C97.698 148.659 109.885 145.439 120.199 140.073C121.727 139.273 123.328 138.418 123.746 138.145C126.456 136.453 129.276 134.471 130.695 133.288C131.604 132.542 132.386 131.924 132.441 131.924C132.514 131.906 132.605 132.16 132.677 132.47ZM129.367 147.313C128.785 150.987 125.238 155.062 120.235 157.772C114.451 160.919 108.084 162.429 102.773 161.919C98.2983 161.483 95.2605 159.991 93.8781 157.535L93.4416 156.772L93.8781 156.899C94.7694 157.154 100.172 157.244 102.318 157.026C111.959 156.098 121.327 152.097 128.512 145.839C129.203 145.239 129.239 145.239 129.403 145.566C129.512 145.803 129.494 146.44 129.367 147.313ZM124.037 158.591C124.637 159.882 124.437 163.356 123.673 165.157C122.564 167.74 119.835 170.068 117.234 170.614C115.415 170.996 114.906 171.032 113.541 170.832C110.631 170.396 107.757 168.431 106.466 165.976C105.465 164.084 105.374 164.211 107.848 163.957C110.176 163.702 113.305 162.974 115.833 162.101C117.762 161.428 121.454 159.627 122.691 158.754C123.2 158.409 123.655 158.118 123.71 158.118C123.764 158.099 123.91 158.318 124.037 158.591Z" fill="#FABF29"/>
<path d="M172.532 65.1851C171.732 65.3852 168.476 66.1856 165.274 66.9677C161.636 67.859 159.308 68.5139 158.999 68.7322C158.071 69.4416 158.398 70.4238 159.562 70.4238C159.835 70.4238 162.546 69.8236 165.565 69.0778C168.603 68.332 171.841 67.5498 172.768 67.3315C174.06 67.0223 174.533 66.8222 174.806 66.4584C175.006 66.2219 175.169 65.9309 175.169 65.8399C175.169 65.6217 174.315 64.7849 174.133 64.8031C174.06 64.8031 173.332 64.985 172.532 65.1851Z" fill="#FABF29"/>
<path d="M0.363805 67.8772C0.163715 68.0773 5.14866e-06 68.4047 4.81281e-06 68.6048C3.53049e-06 69.3688 0.563892 69.5871 3.76533 70.0236C5.4388 70.2601 8.24006 70.6603 9.94991 70.8967C15.8435 71.7153 16.371 71.6971 16.371 70.6057C16.371 69.6234 16.3346 69.6053 8.91309 68.6048C6.65753 68.2956 4.01999 67.9318 3.03773 67.7863C0.782175 67.4406 0.800365 67.4406 0.363805 67.8772Z" fill="#FABF29"/>
<path d="M20.9169 108.15C14.8051 110.332 10.6032 111.97 10.3304 112.297C10.1485 112.497 10.0029 112.806 10.0029 112.988C10.0029 113.407 10.5668 113.898 11.0579 113.898C11.5309 113.898 21.8992 110.078 23.0997 109.478C24.1002 108.968 24.4822 108.186 23.9183 107.786C23.4089 107.404 22.8269 107.477 20.9169 108.15Z" fill="#FABF29"/>
</svg>
