<svg width="354" height="235" viewBox="0 0 354 235" fill="none" xmlns="http://www.w3.org/2000/svg">
<path d="M106.675 84.3289C105.848 79.8358 104.926 75.3583 102.94 71.2053C101.212 67.5984 98.6342 64.7359 95.0594 62.8374C93.5794 62.0528 92.0194 61.5144 90.3709 61.2129C85.1602 60.2531 80.0639 60.8126 75.0062 62.2284C69.8733 63.6652 64.9697 65.6989 60.0658 67.7469C54.4269 70.1008 48.7795 72.44 42.8273 73.9245C39.33 74.7972 35.7938 75.315 32.1779 75.1439C29.5453 75.0191 27.0063 74.491 24.5514 73.5089C20.8131 72.0145 18.1768 69.363 16.3082 65.8628C14.6047 62.6729 13.8269 59.2443 13.6319 55.6651C13.343 50.3829 14.1623 45.2804 16.2192 40.4013C19.5362 32.5336 24.3536 25.754 30.9938 20.3383C33.7352 18.1025 36.6531 16.114 40.1144 15.1691C41.3755 14.8241 42.7354 14.6501 44.0402 14.7023C46.943 14.8177 48.9473 16.6033 49.6225 19.4351C50.2761 22.1807 49.857 24.8472 49.0045 27.4795C48.8949 27.8159 48.8046 28.1665 48.6398 28.4757C48.5397 28.663 48.3318 28.8731 48.1448 28.905C48.0044 28.9298 47.7231 28.7204 47.6652 28.5567C47.3784 27.748 47.0804 26.9344 46.9099 26.0979C46.6069 24.603 46.4805 23.068 46.1237 21.5872C45.4623 18.8573 44.3155 18.2014 41.558 18.8301C39.7183 19.25 38.0617 20.0993 36.5054 21.1272C27.3409 27.1807 21.4101 35.6336 18.3566 46.0977C16.9519 50.9073 16.8289 55.8415 18.1505 60.7387C18.7524 62.9707 19.8061 64.9813 21.2419 66.7911C22.4721 68.3422 24.0567 69.3958 25.8588 70.1634C29.3207 71.6372 32.9476 72.0272 36.6628 71.7805C41.3896 71.4681 45.9237 70.2419 50.3288 68.5973C55.8651 66.5335 61.3358 64.2879 66.8432 62.1449C71.4961 60.3348 76.2344 58.8189 81.2075 58.1728C84.3895 57.758 87.5727 57.8326 90.74 58.3331C96.1673 59.1903 100.296 62.1013 103.458 66.5021C105.849 69.8302 107.151 73.646 108.349 77.5051C108.808 78.9831 109.171 80.4941 109.581 81.9892C109.633 82.1762 109.717 82.3559 109.786 82.5386C108.747 83.1325 107.711 83.7307 106.675 84.3289Z" fill="#FFCCDE"/>
<path d="M230.267 191.356C230.725 190.919 231.192 190.597 231.495 190.163C232.084 189.312 232.616 188.417 233.106 187.504C233.641 186.511 234.022 185.427 234.623 184.481C235.062 183.794 235.694 183.192 236.347 182.691C236.905 182.264 237.612 182.331 238.228 182.717C238.826 183.094 239.179 183.702 239.015 184.357C238.674 185.743 238.98 187.092 239.106 188.442C239.706 194.833 240.913 201.112 242.606 207.302C243.482 210.504 244.964 213.356 247.338 215.716C247.979 216.354 248.542 217.066 248.788 218.13C248.384 218.111 248.036 218.154 247.725 218.065C247.284 217.937 246.839 217.76 246.45 217.516C243.289 215.52 240.911 212.875 239.555 209.335C238.104 205.544 237.33 201.591 236.643 197.617C236.222 195.199 235.932 192.758 235.57 190.224C235.421 190.453 235.297 190.639 235.18 190.828C234.341 192.179 233.333 193.376 231.966 194.223C230.354 195.221 228.861 194.996 227.655 193.53C227.024 192.762 226.498 191.909 225.91 191.105C225.38 190.379 225.109 190.344 224.522 191.021C224.104 191.502 223.772 192.059 223.418 192.592C222.595 193.826 221.827 195.097 220.95 196.292C220.471 196.943 219.869 197.533 219.23 198.03C217.222 199.595 214.778 199.164 213.467 196.981C212.912 196.059 212.599 194.997 212.113 194.028C211.679 193.162 211.214 192.302 210.658 191.511C210.232 190.904 210.021 190.964 209.535 191.55C208.608 192.67 208.293 193.972 208.391 195.399C208.523 197.337 209.164 199.127 210.049 200.827C210.691 202.057 211.319 203.294 212.336 204.305C213.229 205.195 212.835 206.591 211.628 207.152C210.635 207.613 209.624 207.523 208.794 206.873C207.809 206.102 206.805 205.283 206.059 204.294C203.959 201.513 202.885 198.321 202.836 194.829C202.795 191.875 203.763 189.292 205.979 187.275C208.284 185.175 211.076 185.199 213.396 187.28C215.021 188.736 215.852 190.666 216.598 192.645C216.782 193.135 216.963 193.623 217.208 194.279C217.615 193.735 217.971 193.344 218.234 192.899C218.842 191.87 219.334 190.767 220.003 189.782C220.642 188.84 221.323 187.861 222.197 187.16C224.302 185.47 227.061 185.977 228.553 188.223C229.029 188.938 229.375 189.739 229.783 190.501C229.914 190.748 230.058 190.99 230.267 191.356Z" fill="#FFCCDE"/>
<path d="M21.3096 180.478C21.3967 177.999 22.1547 175.741 23.5473 173.694C25.0552 171.472 26.8919 169.567 29.1069 168.043C32.5229 165.69 36.1636 163.793 40.1973 162.741C42.8962 162.037 45.5912 161.301 48.3242 160.757C53.2725 159.769 57.4023 157.358 60.9706 153.873C61.7075 153.152 62.3341 152.369 62.6172 151.345C62.7684 150.796 63.1101 150.394 63.744 150.395C64.3876 150.395 64.854 150.761 64.9406 151.345C65.0479 152.048 65.0731 152.803 64.9296 153.496C64.6278 154.963 63.769 156.154 62.7955 157.27C59.4679 161.088 55.3908 163.686 50.4685 164.935C47.5514 165.676 44.6364 166.429 41.7258 167.197C38.1735 168.136 34.9339 169.76 31.9426 171.862C29.0211 173.916 26.799 176.526 25.8572 180.063C25.755 180.448 25.6818 180.841 25.628 181.237C25.257 183.983 26.1815 186.078 28.654 187.471C30.681 188.613 32.7535 189.465 35.1465 189.111C35.2714 189.093 35.4148 189.185 35.5477 189.226C35.4282 189.383 35.3434 189.6 35.1845 189.693C33.0985 190.911 30.8978 190.962 28.6475 190.257C27.9956 190.054 27.3553 189.792 26.7404 189.495C22.9484 187.646 21.1803 184.697 21.3096 180.478Z" fill="#FFCCDE"/>
<path d="M80.9292 124.355C81.5209 124.349 82.1322 124.434 82.6974 124.313C83.8568 124.063 84.9905 123.696 86.134 123.388C87.0848 123.131 88.0274 122.801 88.9968 122.664C91.0826 122.372 92.4399 123.835 91.9814 125.899C91.7521 126.927 91.3096 127.908 90.9411 128.904C90.7753 129.351 90.5593 129.782 90.3038 130.358C90.6014 130.274 90.781 130.246 90.942 130.176C91.801 129.806 92.6379 129.37 93.5181 129.06C94.7547 128.621 96.0019 128.169 97.2846 127.91C100.042 127.353 101.692 128.925 101.387 131.739C101.32 132.366 101.211 133.005 100.996 133.591C99.956 136.417 98.9225 139.251 97.0564 141.677C96.5914 142.283 96.3985 142.307 95.9459 141.655C95.2267 140.621 95.0745 139.435 95.263 138.238C95.5197 136.614 95.8899 135.011 96.2109 133.396C96.2703 133.102 96.3263 132.809 96.4094 132.391C96.0625 132.455 95.8028 132.486 95.5527 132.55C93.933 132.958 92.3212 133.396 90.6961 133.776C87.7637 134.463 86.433 133.141 87.1563 130.207C87.4689 128.936 87.9665 127.71 88.4418 126.276C87.9813 126.355 87.7242 126.388 87.4707 126.444C86.1114 126.74 84.7664 127.16 83.3911 127.3C82.2588 127.415 81.0522 127.364 79.9555 127.088C78.2729 126.669 77.4446 125.061 77.9663 123.399C78.217 122.599 78.6439 121.807 79.1608 121.141C81.4753 118.168 84.3685 115.848 87.5994 113.942C88.533 113.391 89.405 113.54 89.9071 114.255C90.4171 114.982 90.2273 115.917 89.3564 116.58C88.087 117.542 86.7347 118.4 85.505 119.41C84.1812 120.501 82.9438 121.702 81.7003 122.887C81.3476 123.225 81.1017 123.675 80.8055 124.073C80.8452 124.166 80.8876 124.259 80.9292 124.355Z" fill="#FFCCDE"/>
<path d="M164.181 206.848C164.121 207.538 164.064 208.494 163.945 209.442C163.846 210.236 163.517 210.817 162.649 211.126C160.717 211.81 158.829 212.624 156.918 213.369C155.538 213.907 154.57 213.131 154.653 211.664C154.755 209.901 154.767 208.131 154.811 206.364C154.821 206.011 154.788 205.654 154.813 205.303C154.897 204.14 155.712 203.549 156.874 203.619C158.334 203.709 159.801 203.699 161.265 203.692C161.54 203.69 161.84 203.537 162.084 203.381C162.992 202.8 164.074 203.272 164.17 204.357C164.234 205.09 164.181 205.839 164.181 206.848ZM161.597 209.709C161.523 208.422 161.446 207.142 161.372 205.843C160.218 206.027 159.086 206.192 157.963 206.405C157.821 206.432 157.642 206.703 157.626 206.875C157.55 207.665 157.531 208.461 157.484 209.255C157.456 209.725 157.417 210.193 157.38 210.716C158.831 210.369 160.213 210.039 161.597 209.709Z" fill="#FFCCDE"/>
<path d="M275.263 109.128C274.656 108.471 274.759 107.616 275.437 107.171C275.697 107 276 106.889 276.292 106.773C277.714 106.213 279.149 105.682 280.559 105.095C281.227 104.816 281.914 104.708 282.618 104.653C283.066 104.617 283.446 104.944 283.513 105.408C283.538 105.581 283.527 105.762 283.511 105.937C283.281 108.233 283.222 110.528 283.551 112.823C283.607 113.209 283.621 113.605 283.614 113.995C283.603 114.538 283.385 114.983 282.863 115.212C282.332 115.444 281.853 115.277 281.467 114.906C280.865 114.329 280.318 113.695 279.716 113.118C278.522 111.972 277.313 110.844 276.095 109.724C275.815 109.468 275.479 109.28 275.263 109.128ZM281.48 107.078C280.407 107.589 279.318 108.109 278.201 108.64C279.234 109.635 280.263 110.626 281.261 111.587C281.334 110.081 281.407 108.568 281.48 107.078Z" fill="#FFCCDE"/>
<path d="M312.119 25.2587C313.374 23.6999 314.663 22.5574 316.25 21.8268C317.949 21.0443 319.641 20.1934 321.421 19.6566C325.901 18.3072 329.872 19.3405 333.201 22.6437C334.555 23.9894 335.16 25.6826 335.231 27.577C335.303 29.4356 334.966 31.2368 334.123 32.8744C332.266 36.4959 330.385 40.1116 328.367 43.6429C326.437 47.0218 323.788 49.8712 321.176 52.7368C316.742 57.5989 312.361 62.5133 307.401 66.8577C305.824 68.2383 304.16 69.5258 302.507 70.8183C301.7 71.4479 300.913 71.4013 300.398 70.8095C299.895 70.2305 299.951 69.4104 300.677 68.7091C302.259 67.1798 303.949 65.7593 305.482 64.185C309.167 60.3924 312.839 56.5891 316.411 52.6921C318.956 49.9156 321.471 47.0885 323.74 44.086C326.668 40.2143 328.949 35.9488 330.346 31.2618C330.532 30.6336 330.685 29.9886 330.783 29.3408C331.208 26.5327 330.098 24.5416 327.079 23.3362C325.333 22.6395 323.511 22.6163 321.747 23.3731C320.444 23.9314 319.155 24.5181 317.879 25.1313C316.444 25.8184 315.384 26.934 314.537 28.2517C313.301 30.1746 313.528 33.6351 315.032 35.3232C315.313 35.6376 315.767 35.9106 316.175 35.9742C317.388 36.1618 318.596 36.0691 319.719 35.47C320.366 35.124 321.045 34.8343 321.668 34.453C322.252 34.091 322.519 34.3138 322.631 34.8712C322.885 36.1455 322.561 37.2828 321.716 38.2621C319.691 40.6113 315.741 41.2238 313.109 39.5935C311.948 38.8729 311.175 37.8043 310.686 36.5594C309.064 32.4373 309.217 28.5425 312.119 25.2587Z" fill="#FFCCDE"/>
<path d="M246.726 58.1488C246.519 58.7219 246.361 59.2779 246.124 59.7998C244.96 62.363 242.479 63.6849 240.049 63.0508C238.69 62.6947 237.71 61.8289 236.969 60.6729C235.985 59.1389 235.446 57.4366 235.117 55.6563C235.086 55.488 235.049 55.3222 234.995 55.0661C234.737 55.2246 234.542 55.3539 234.337 55.4661C233.056 56.1611 231.823 56.9854 230.477 57.5195C225.238 59.5974 220.306 56.7952 219.3 51.2445C218.851 48.7739 219.166 46.3937 220.153 44.0938C221.147 41.7794 222.585 39.7771 224.415 38.0578C226.876 35.7458 229.588 33.7557 232.415 31.9168C233.236 31.3827 233.94 31.373 234.51 31.8241C235.037 32.2412 235.254 33.1265 235.02 33.8996C234.805 34.5995 234.228 34.8288 233.633 34.3995C233.358 34.1996 233.173 34.1508 232.883 34.3483C227.492 37.9944 223.844 42.7671 223.108 49.43C223.062 49.847 223.065 50.2689 223.052 50.6908C222.948 54.5125 226.664 56.1123 229.183 55.2173C230.088 54.8954 230.967 54.4296 231.759 53.8857C232.685 53.2492 233.553 52.5053 234.345 51.7078C234.891 51.1591 235.266 50.4397 235.707 49.7885C235.843 49.5885 235.924 49.3495 236.063 49.152C236.66 48.2959 237.676 48.0228 238.509 48.4837C239.316 48.9276 239.667 49.9202 239.248 50.8518C238.127 53.3345 238.5 55.7782 239.379 58.2097C239.55 58.678 239.823 59.1365 240.144 59.5169C240.975 60.5022 242.357 60.4705 243.008 59.3633C243.405 58.6877 243.619 57.8415 243.69 57.0513C243.797 55.866 243.685 54.6612 243.71 53.4662C243.727 52.6102 244.226 51.9639 244.94 51.7542C245.674 51.5396 246.427 51.8005 246.936 52.4688C247.097 52.6785 247.221 52.9151 247.355 53.1443C247.611 53.5857 247.799 54.0808 248.123 54.4613C248.937 55.4148 249.721 56.4318 250.684 57.2147C252.204 58.4536 253.878 58.2707 255.299 56.9245C258.323 54.0564 259.179 49.9885 257.548 46.1522C254.812 39.7186 249.019 36.7945 243.144 37.2725C240.069 37.5212 238.063 39.3894 236.767 42.0623C236.202 43.2256 236.506 44.0475 237.576 44.8109C237.613 44.8377 237.652 44.8572 237.686 44.8865C238.066 45.2011 238.636 45.4449 238.409 46.079C238.2 46.6619 237.642 46.7717 237.096 46.7912C235.982 46.8326 235.115 46.3741 234.535 45.4254C233.709 44.0768 233.514 42.6159 234.099 41.1551C235.241 38.3016 236.986 35.9189 239.84 34.5507C241.375 33.8142 243.044 33.6874 244.714 33.824C250.418 34.2898 254.839 36.9286 257.87 41.7989C259.352 44.1792 260.602 46.6912 260.904 49.5275C261.374 53.9516 259.488 57.3464 255.947 59.8047C253.591 61.4412 251.088 61.1997 248.712 59.6779C248.028 59.2414 247.418 58.6877 246.726 58.1488Z" fill="#FFCCDE"/>
<path d="M138.737 53.191C137.284 53.6837 135.949 54.1373 134.611 54.5934C132.654 55.2592 130.671 55.9274 128.58 55.5762C127.469 55.3884 126.323 55.0348 125.346 54.4861C123.124 53.2398 122.61 50.9985 123.884 48.7914C124.605 47.5403 125.634 46.5696 126.794 45.7331C128.565 44.4576 130.466 43.3821 132.537 42.7212C135.081 41.9091 137.662 41.1677 140.277 40.6287C142.83 40.1019 145.426 40.1482 147.98 41.2408C148.282 39.8385 148.584 38.4874 148.862 37.129C149.035 36.2827 149.169 35.4291 149.322 34.5804C149.415 34.0707 149.593 33.6098 150.212 33.6C150.857 33.5903 151.169 34.0488 151.15 34.5877C151.101 35.9535 151.016 37.3216 150.831 38.6728C150.609 40.2946 150.268 41.8993 149.975 43.5114C149.768 44.6503 148.681 45.2576 147.811 44.5723C146.084 43.2065 144.141 43.209 142.185 43.5455C137.365 44.3772 132.895 46.1136 128.957 49.0768C128.378 49.5133 127.837 50.0157 127.337 50.5449C126.752 51.1644 126.813 51.3692 127.586 51.7717C128.706 52.357 129.935 52.5789 131.136 52.3058C133.892 51.679 136.638 50.9888 139.348 50.1913C140.798 49.7645 141.746 50.2889 141.7 51.8277C141.663 53.0228 141.532 54.2129 141.444 55.4055C141.427 55.6445 141.415 55.8859 141.395 56.2591C141.685 56.103 141.895 56.0079 142.085 55.8859C143.016 55.2884 143.927 54.6592 144.875 54.0885C146.032 53.3935 147.073 53.7544 147.529 55.0226C147.811 55.8128 147.975 56.6444 148.218 57.4492C148.506 58.4028 148.735 58.6418 149.732 58.5906C151.099 58.5174 152.456 58.2931 153.818 58.1736C154.34 58.1272 154.893 58.1004 155.388 58.2296C155.682 58.3077 156.053 58.6784 156.102 58.9662C156.15 59.2564 155.924 59.7027 155.675 59.9076C155.351 60.1783 154.9 60.3514 154.479 60.4392C153.094 60.7319 151.705 61.0026 150.307 61.2099C149.749 61.2928 149.154 61.2391 148.589 61.1611C147.224 60.9733 146.262 60.2319 145.796 58.9174C145.567 58.276 145.394 57.6151 145.165 56.8615C144.643 57.198 144.154 57.5224 143.654 57.8297C142.994 58.2345 142.35 58.6784 141.656 59.0101C140.023 59.7905 138.624 58.9857 138.532 57.1639C138.478 56.0884 138.632 55.0006 138.693 53.9178C138.7 53.7203 138.715 53.5252 138.737 53.191Z" fill="#FFCCDE"/>
<path d="M142.638 45.5C143.91 45.5049 144.578 45.8683 144.695 46.4707C144.811 47.0804 144.412 47.5291 143.391 47.8925C142.869 48.0778 142.328 48.2071 141.812 48.3998C140.469 48.8997 139.119 49.385 137.801 49.9435C136.877 50.3362 136.348 50.3703 135.993 49.8801C135.632 49.385 135.781 48.6997 136.434 48.0461C137.737 46.7365 139.421 46.1877 141.151 45.7561C141.724 45.6146 142.323 45.5537 142.638 45.5Z" fill="#FFCCDE"/>
<path d="M152.601 42.7781C152.908 41.1173 153.242 39.2906 153.583 37.4663C153.742 36.6201 153.912 35.7738 154.08 34.93C154.107 34.8007 154.139 34.6715 154.18 34.5446C154.419 33.8301 154.963 33.4789 155.579 33.6374C156.149 33.7862 156.507 34.3617 156.391 35.0495C156.096 36.7713 155.776 38.4882 155.457 40.2027C155.262 41.2465 155.082 42.2928 154.836 43.3219C154.668 44.0268 154.129 44.3706 153.525 44.278C152.94 44.1902 152.572 43.6609 152.601 42.7781Z" fill="#FFCCDE"/>
<path d="M244.301 41.5199C244.462 41.0882 244.596 40.4176 244.934 39.8761C245.497 38.9738 246.472 39.0152 247.232 39.7591C248.794 41.2882 248.005 42.6149 246.818 43.8612C246.406 44.2928 245.826 44.3075 245.378 43.8953C244.761 43.3271 244.42 42.5881 244.301 41.5199Z" fill="#FFCCDE"/>
<path d="M255.7 71.0327C253.007 71.0107 250.753 70.1157 249.047 68.0403C248.406 67.2598 247.946 66.377 247.821 65.3551C247.705 64.4015 248.09 63.5943 248.823 63.2089C249.549 62.8285 250.444 62.9724 251.16 63.6016C251.391 63.8065 251.621 64.0235 251.801 64.2723C253.892 67.1452 256.743 67.9061 260.084 67.2257C260.851 67.0696 261.58 66.7184 262.33 66.4672C262.542 66.3965 262.769 66.3672 262.988 66.3184C262.996 66.5501 263.061 66.7989 263.001 67.0135C262.664 68.2037 261.87 69.0499 260.861 69.7084C259.277 70.7449 257.481 70.9571 255.7 71.0327Z" fill="#FFCCDE"/>
<path d="M251.534 78.3352C247.467 78.1743 245.015 75.8794 244.348 72.0407C244.206 71.2237 244.377 70.4457 244.976 69.8238C245.429 69.3531 246 69.1702 246.614 69.397C247.191 69.6116 247.552 70.0018 247.686 70.692C247.803 71.2968 248.227 71.8382 248.488 72.4187C249.692 75.0916 251.885 76.1159 254.672 76.1549C254.85 76.1574 255.033 76.133 255.201 76.1696C255.374 76.2086 255.535 76.3086 255.701 76.3817C255.613 76.5451 255.562 76.7549 255.43 76.8646C254.266 77.8377 252.901 78.2791 251.534 78.3352Z" fill="#FFCCDE"/>
<path d="M78.5398 207.108C79.1782 206.721 79.8605 206.391 80.4429 205.933C81.5907 205.028 82.6848 204.06 83.7936 203.106C85.2776 201.831 86.8323 200.663 88.6868 199.968C89.6518 199.604 90.6241 199.487 91.5866 199.97C92.6881 200.524 93.212 201.494 93.4679 202.643C93.8285 204.253 93.5434 205.835 93.1218 207.372C92.2957 210.381 91.3454 213.357 90.4901 216.359C89.6566 219.285 89.1108 222.273 88.9183 225.309C88.8525 226.358 88.9232 227.438 89.1035 228.475C89.335 229.814 90.1367 230.753 91.4989 231.131C91.6914 231.184 91.8669 231.294 92.0399 231.47C91.3722 231.901 90.6631 232.045 89.9198 231.921C88.543 231.694 87.6048 230.858 86.9907 229.65C86.111 227.919 85.7528 226.051 85.7431 224.124C85.7285 220.588 86.4205 217.166 87.5342 213.825C88.214 211.789 88.9841 209.779 89.6396 207.735C89.9832 206.665 90.1757 205.548 90.4291 204.448C90.4681 204.277 90.4706 204.094 90.4706 203.918C90.4632 202.823 90.2171 202.619 89.296 203.177C87.9582 203.989 86.674 204.899 85.4068 205.818C84.1713 206.716 83.0357 207.752 81.7637 208.589C80.9474 209.125 79.997 209.523 79.0515 209.779C77.5553 210.184 76.3953 209.459 75.9007 207.979C75.4425 206.608 75.5717 205.221 75.8617 203.843C76.4441 201.063 77.7478 198.599 79.3171 196.275C80.5672 194.422 81.9855 192.68 83.2088 190.81C84.9852 188.098 85.38 185.059 84.9803 181.893C84.8829 181.125 84.5783 180.511 83.818 180.094C82.8822 179.581 82.5776 178.657 82.8993 177.843C83.2258 177.011 84.1055 176.613 85.1777 176.816C85.2874 176.835 85.397 176.855 85.5018 176.891C91.8522 179.125 97.3741 182.44 100.708 188.593C101.799 190.61 102.587 192.746 103.164 194.963C103.203 195.109 103.252 195.253 103.366 195.634C103.53 195.363 103.603 195.207 103.708 195.078C106.373 191.846 109.546 189.283 113.44 187.669C119.532 185.142 125.622 182.61 131.714 180.086C133.851 179.201 135.959 178.269 137.565 176.526C138.057 175.992 138.513 175.409 138.888 174.789C139.356 174.016 139.205 173.404 138.379 173.041C137.667 172.726 136.861 172.477 136.096 172.475C134.029 172.47 131.994 172.733 130.106 173.701C129.838 173.84 129.331 173.879 129.146 173.719C128.948 173.548 128.856 173.021 128.973 172.767C129.173 172.328 129.494 171.824 129.899 171.621C132.647 170.26 135.516 169.607 138.557 170.531C139.034 170.677 139.497 170.933 139.909 171.221C141.464 172.306 141.985 173.997 141.05 175.643C140.372 176.835 139.454 177.923 138.496 178.918C137.114 180.357 135.369 181.315 133.549 182.096C128.749 184.154 123.928 186.166 119.123 188.215C117.21 189.032 115.287 189.834 113.423 190.759C109.456 192.724 106.308 195.612 104.073 199.451C103.725 200.05 103.554 200.758 103.308 201.416C103.147 201.85 103.052 202.319 102.83 202.716C102.455 203.392 101.731 203.682 101.02 203.528C100.308 203.377 99.7574 202.819 99.6867 202.055C99.6428 201.577 99.6867 201.08 99.7647 200.604C100.038 198.955 99.928 197.351 99.4138 195.751C98.0808 191.59 95.9242 187.956 92.6052 185.076C91.7791 184.359 90.8531 183.759 89.9491 183.088C88.6478 187.834 85.8454 191.578 83.1186 195.361C81.1131 198.143 79.3147 201.033 78.5324 204.426C78.3424 205.245 78.3326 206.106 78.2425 206.947C78.3424 207.011 78.4423 207.06 78.5398 207.108Z" fill="#FFCCDE"/>
<path d="M87.5005 194.432C87.6223 194.159 87.771 193.581 88.0999 193.135C88.7116 192.301 89.4183 191.53 90.1055 190.752C90.8658 189.891 91.6626 189.062 92.4229 188.199C92.9225 187.63 93.5512 187.44 94.1263 187.743C94.6843 188.038 94.9475 188.713 94.716 189.408C94.6063 189.738 94.4357 190.064 94.231 190.345C92.8883 192.179 91.2776 193.754 89.4889 195.149C89.2818 195.313 89.0527 195.457 88.8164 195.574C88.0658 195.942 87.481 195.561 87.5005 194.432Z" fill="#FFCCDE"/>
<path d="M329.457 184.057C329.601 184.071 329.673 184.078 329.762 184.075C334.941 184.056 341.384 186.909 344.759 190.834C348.097 194.734 349.353 199.293 348.676 204.364C348.117 208.552 345.368 210.773 341.557 211.903C338.966 212.675 336.3 212.669 333.632 212.277C330.991 211.893 328.467 211.174 326.041 210.084C318.841 206.795 312.489 202.325 307.349 196.251C304.492 192.867 302.26 189.08 300.489 185.047C298.641 180.827 296.962 176.54 295.237 172.255C293.59 168.155 291.466 164.356 288.275 161.242C285.978 158.991 283.33 157.361 280.134 156.705C277.597 156.175 275.206 156.682 272.841 157.537C270.761 158.286 268.787 159.275 266.906 160.44C266.853 160.468 266.792 160.524 266.748 160.57C266.759 160.633 266.76 160.677 266.788 160.686C271.135 164.387 273.249 169.146 273.583 174.789C273.694 176.527 273.705 178.25 273.123 179.926C273.006 180.261 272.872 180.606 272.684 180.934C272.331 181.509 271.737 181.759 271.15 181.641C270.563 181.523 270.074 181.034 270.038 180.371C270.006 179.843 270.071 179.284 270.146 178.744C270.519 176.293 270.667 173.848 270.133 171.404C269.547 168.693 268.139 166.444 266.061 164.645C265.371 164.036 264.437 163.694 263.592 163.305C263.083 163.077 262.497 163.004 261.988 162.776C260.39 162.085 260.08 160.272 261.339 159.052C261.68 158.711 262.103 158.439 262.536 158.184C266.307 155.916 270.346 154.278 274.681 153.574C280.963 152.554 286.34 154.522 290.92 158.826C293.721 161.467 295.916 164.591 297.546 168.063C299.147 171.436 300.561 174.887 302.055 178.318C303.77 182.245 305.555 186.134 307.916 189.738C311.644 195.43 316.681 199.695 322.561 202.985C325.286 204.506 328.097 205.846 331.119 206.73C333.717 207.501 336.356 207.84 339.05 207.558C340.321 207.424 341.534 207.139 342.629 206.462C343.591 205.879 344.242 205.053 344.554 203.977C345.325 201.335 344.985 198.742 343.939 196.277C341.952 191.586 338.371 188.68 333.513 187.3C332.056 186.874 330.567 186.897 329.068 187.244C328.72 187.317 328.546 187.501 328.456 187.845C328.247 188.73 328.065 189.623 327.757 190.493C327.514 191.146 327.192 191.819 326.776 192.36C326.117 193.213 325.026 193.387 324.161 192.918C323.314 192.484 322.802 191.484 323.143 190.506C323.659 189.002 324.327 187.53 324.988 186.084C326.048 183.811 326.882 181.5 326.578 178.933C326.391 177.35 325.278 176.376 323.652 176.314C322.025 176.252 320.586 176.795 319.489 178.019C318.304 179.335 317.692 180.914 317.821 182.687C317.935 184.218 318.032 185.803 319.082 187.084C319.361 187.435 319.693 187.758 320.059 188.017C320.681 188.457 320.859 189.385 320.403 190.107C319.896 190.902 319.105 191.211 318.197 191.173C316.409 191.107 315.023 190.302 314.136 188.73C313.409 187.413 313.073 185.978 313.023 184.481C312.885 181.075 315.429 175.665 319.736 173.929C321.121 173.37 322.567 173.096 324.062 173.252C326.978 173.556 329.097 175.516 329.589 178.391C329.887 180.097 329.816 181.795 329.504 183.508C329.526 183.633 329.495 183.832 329.457 184.057Z" fill="#FFCCDE"/>
<path d="M180.03 70.5489C179.889 70.6626 179.763 70.9005 179.741 71.0949L179.711 71.4555L176.671 72.391C173.791 73.2771 173.628 73.3158 173.572 73.1339C173.535 73.0161 173.4 72.8819 173.264 72.8185C173.043 72.7106 172.726 72.7847 171.142 73.2723C168.829 73.9838 168.786 74.0323 169.039 75.1613L169.21 75.9057L168.764 76.1717C167.819 76.7555 166.845 77.9693 166.09 79.5141C165.189 81.3849 164.183 83.9796 163.523 86.1395L163.278 86.9416L149.127 91.2963C139.6 94.2279 134.76 95.7522 134.316 95.9828C131.782 97.2312 129.383 100.29 128.369 103.543L128.093 104.436L127.574 104.198C125.934 103.437 124.078 104.793 123.949 106.848C123.93 107.206 123.926 107.535 123.939 107.578C123.952 107.621 123.786 107.918 123.563 108.221C122.786 109.315 121.873 111.565 121.237 113.952C120.552 116.565 120.254 119.329 120.488 121.155C120.618 122.146 121.241 123.829 121.989 125.193C123.141 127.299 123.316 127.679 123.617 128.618C123.93 129.635 124.02 130.614 124.012 132.949C124.005 136.314 124.209 138.197 124.843 140.486C125.284 142.108 125.394 142.39 126.053 143.617C126.443 144.353 127.058 145.324 127.409 145.778C128.812 147.596 131.583 149.708 133.821 150.66C135.186 151.248 137.237 152.011 138.085 152.254C138.367 152.332 138.694 152.442 138.788 152.483C138.925 152.546 139.154 153.214 139.805 155.369C140.506 157.685 140.726 158.285 141.05 158.806C141.453 159.467 142.212 160.183 142.884 160.539C143.528 160.88 144.758 161.181 145.583 161.197C146.337 161.211 146.554 161.155 153.875 158.973L161.388 156.731L162.324 156.08C163.7 155.106 164.513 154.094 165.155 152.561L165.35 152.09L169.22 150.958L173.093 149.836L173.343 150.228C173.49 150.441 173.873 151.038 174.205 151.545C176.917 155.75 181.023 159.232 185.628 161.248C190.054 163.179 194.824 163.867 199.73 163.283C201.027 163.119 201.519 163.003 203.981 162.245C206.946 161.333 207.855 160.936 209.831 159.742C215.728 156.169 219.888 150.647 221.756 143.885C222.464 141.312 222.724 138.501 222.578 135.019L222.56 134.615L225.489 133.702C228.419 132.788 229.052 132.523 230.118 131.797C231.453 130.882 232.54 129.387 232.983 127.857C233.388 126.467 233.353 125.364 232.852 123.737L232.516 122.645L233.283 121.823C235.016 119.954 236.575 117.517 237.077 115.875C237.816 113.479 237.63 110.666 236.524 107.643C235.948 106.074 235.283 104.826 234.162 103.202C233.119 101.718 232.605 100.845 232.43 100.278C232.236 99.6464 232.219 98.5265 232.371 96.0891C232.58 92.7319 232.541 91.5371 232.143 89.4448C231.876 88.0038 231.053 85.5969 230.554 84.813C230.024 83.9681 228.945 82.859 228.004 82.1994C227.345 81.7342 227.127 81.637 226.814 81.6864C226.182 81.7639 225.669 81.5819 224.142 80.6926C222.02 79.4707 221.855 79.3925 221.239 79.3711C220.495 79.3538 219.974 79.5259 219.272 80.0233C218.717 80.4284 218.492 80.4976 218.423 80.2728C218.406 80.2193 218.072 79.8183 217.689 79.3736C216.988 78.5815 216.955 78.5099 216.157 76.5287C215.243 74.2437 214.939 73.6343 214.574 73.3247C213.899 72.7706 211.197 72.2897 208.798 72.3013C205.032 72.3236 202.226 73.0697 199.505 74.7743C198.355 75.4916 198.22 75.779 198.232 77.416C198.244 78.1035 198.23 78.7055 198.219 78.7442C198.193 78.7755 197.824 78.7952 197.386 78.778C196.589 78.7417 196.589 78.7417 196.065 78.1415C194.667 76.5679 193.719 75.5823 192.643 74.6008C189.92 72.1107 188.25 71.2536 186.737 71.555L186.129 71.6719L185.901 70.9687C185.782 70.5834 185.565 70.0292 185.444 69.7501C185.066 68.9406 184.821 68.9456 182.309 69.7304C181.196 70.0729 180.163 70.4493 180.03 70.5489ZM180.49 73.911L180.885 75.1956L177.888 76.1179L174.891 77.0402L174.486 75.7236L174.084 74.4176L177.091 73.5274L180.098 72.6372L180.49 73.911ZM168.686 79.6877C169.645 80.9748 171.152 81.9875 172.332 82.1283L172.989 82.2074L179.851 80.0605C187.613 77.6369 187.015 77.9029 187.576 76.6405C187.987 75.729 188.17 74.5712 188.053 73.6226L187.972 72.8626L188.422 73.1458C189.03 73.5213 189.418 74.2105 189.746 75.5042C190.436 78.2799 189.564 82.72 187.905 84.7539L187.394 85.3797L181.496 87.1947L175.598 89.0097L174.749 88.8022C172.177 88.1757 169.554 85.3266 168.135 81.627C167.637 80.3152 167.562 79.7289 167.835 79.1295C168.048 78.642 168.059 78.6387 168.17 78.8857C168.224 79.0216 168.463 79.3814 168.686 79.6877ZM168.132 86.1509C168.327 86.4424 168.785 87.1687 169.158 87.769C169.526 88.3585 170.1 89.2717 170.428 89.8037C170.753 90.3249 171.082 90.9383 171.154 91.1738C171.28 91.5806 171.561 96.0758 171.472 96.2438C171.45 96.2858 171.39 96.2808 171.327 96.2298C171.265 96.1787 170.982 95.9844 170.686 95.7827C169.643 95.0959 168.125 93.4771 166.976 91.8385C166.352 90.9525 165.25 88.9713 164.841 87.984L164.552 87.3113L164.845 86.2836C165.176 85.1505 165.767 83.4921 166.187 82.4957L166.471 81.8576L167.129 83.7292C167.548 84.9364 167.91 85.8092 168.132 86.1509ZM193.543 77.3354C194.242 78.0814 195.157 79.0769 195.582 79.5438L196.342 80.3763L196.229 81.4542C196.069 82.9915 195.77 84.7241 195.371 86.3586C194.99 87.9758 195.013 87.8984 194.915 87.8466C194.817 87.7947 193.809 86.1948 193.206 85.1498L192.743 84.3314L192.618 81.6395C192.491 79.0185 192.466 78.8975 191.99 77.1222L191.5 75.304L191.882 75.6317C192.094 75.8244 192.842 76.5787 193.543 77.3354ZM204.266 74.4811C204.586 74.8747 205.246 75.1522 206.164 75.2798C207.121 75.4189 207.888 75.3234 208.562 74.9989C209.171 74.6942 209.418 74.4661 209.709 73.9663L209.916 73.6097L210.612 73.6649C211.454 73.734 212.823 73.9572 213.167 74.0856C213.417 74.1729 213.399 74.1902 212.935 74.4735C212.192 74.9132 209.035 75.9664 207.851 76.155C206.738 76.3453 204.677 76.4639 203.293 76.4211C202.149 76.3981 200.016 76.0935 200.051 75.9774C200.07 75.9247 200.473 75.6719 200.957 75.4174C202.23 74.7562 202.273 74.743 203.176 74.4416L204.008 74.1739L204.266 74.4811ZM207.51 73.6353C208.223 73.5917 208.732 73.6106 208.695 73.6806C208.606 73.8486 207.656 74.3402 207.078 74.5181C206.457 74.7091 205.945 74.6441 205.333 74.2933L204.833 74.0018L205.552 73.8626C205.937 73.7795 206.821 73.6831 207.51 73.6353ZM161.766 89.2233C162.388 91.2465 163.908 93.8255 165.572 95.6922L166.239 96.4481L166.105 96.8524L165.972 97.2567L161.558 98.6032L157.152 99.9356L156.492 100.455C154.948 101.645 153.953 102.982 152.521 105.755C151.92 106.924 151.429 107.767 151.436 107.636C151.443 107.505 151.41 107.058 151.374 106.635C151.202 104.743 149.712 103.022 147.576 102.25C145.323 101.443 142.78 101.44 140.114 102.261C136.871 103.259 134.411 105.164 133.26 107.557C131.961 110.265 132.756 112.774 135.446 114.431L136.068 114.814L135.317 114.658C133.674 114.308 131.906 113.552 130.928 112.774C130.104 112.114 129.296 110.289 129.091 108.594C128.678 105.346 130.182 101.286 132.71 98.762C133.62 97.8726 134.354 97.3654 135.424 96.919C135.85 96.7412 141.917 94.8273 148.914 92.6624L161.617 88.7416L161.766 89.2233ZM200.335 77.4719C200.365 77.5682 200.577 81.3816 200.558 81.4697C200.539 81.5224 200.371 81.5504 200.18 81.5389C199.947 81.5405 199.803 81.4557 199.76 81.3166C199.681 81.0597 199.498 77.952 199.543 77.5633C199.567 77.2982 199.588 77.2916 199.948 77.3566C200.149 77.4003 200.328 77.4505 200.335 77.4719ZM202.116 77.8144C202.181 78.2163 202.543 81.7142 202.524 81.7669C202.468 81.8896 201.162 81.6821 201.119 81.543C201.089 81.4466 201.012 80.5096 200.955 79.449L200.83 77.5188L201.462 77.5938C201.816 77.6374 202.104 77.7362 202.116 77.8144ZM203.376 77.7197C203.684 77.7304 203.963 77.7617 204.008 77.7946C204.092 77.8745 204.619 81.7199 204.556 81.8212C204.519 81.8912 203.488 81.8921 203.217 81.8114C203.066 81.776 203.006 81.4309 202.833 79.9142C202.729 78.8915 202.637 77.9824 202.635 77.9009C202.646 77.7098 202.714 77.7008 203.376 77.7197ZM205.304 77.7007C205.644 77.7015 205.926 77.7435 205.943 77.797C205.976 77.9041 206.433 80.7985 206.508 81.3493C206.553 81.7224 206.542 81.7257 206.084 81.7965C205.824 81.8294 205.501 81.8467 205.36 81.8434L205.109 81.827L204.926 80.5473C204.595 78.1767 204.548 77.7575 204.623 77.7345C204.666 77.7213 204.978 77.7073 205.304 77.7007ZM207.309 77.5524C207.809 77.5038 207.793 77.4503 208.22 79.6744C208.378 80.4929 208.523 81.2332 208.547 81.3081C208.589 81.4473 208.332 81.5263 207.356 81.6276L207.061 81.6598L206.736 79.6506C206.433 77.7517 206.432 77.6348 206.652 77.6257C206.776 77.6109 207.074 77.5895 207.309 77.5524ZM214.537 75.9844C214.695 76.3459 215.013 77.1504 215.247 77.7581L215.674 78.8804L215.157 79.1802C214.88 79.3474 214.623 79.4618 214.584 79.4503C214.553 79.4248 214.239 78.5956 213.886 77.6025L213.259 75.7918L213.55 75.632C213.708 75.5365 213.887 75.4344 213.934 75.3965C214.154 75.2351 214.272 75.3512 214.537 75.9844ZM209.516 77.8694C209.634 78.2548 209.858 79.135 210.023 79.8226L210.327 81.0767L209.685 81.2389L209.03 81.3937L208.981 81.0454C208.954 80.8429 208.818 80.1347 208.685 79.4727C208.548 78.7999 208.406 78.0704 208.369 77.8357L208.308 77.4091L208.81 77.2897L209.323 77.167L209.516 77.8694ZM213.032 76.6934C213.18 77.0582 213.476 77.8693 213.692 78.4943C214.087 79.6265 214.083 79.6512 213.867 79.8233C213.744 79.9197 213.404 80.0712 213.126 80.1568L212.601 80.3182L212.217 78.8781C212.001 78.1007 211.783 77.2419 211.74 76.9858C211.648 76.4983 211.707 76.4217 212.435 76.1623L212.764 76.0495L213.032 76.6934ZM211.326 77.3942C211.452 77.801 211.686 78.678 211.844 79.3441L212.152 80.5735L211.457 80.7876L210.771 80.9984L210.661 80.4113C210.601 80.1017 210.388 79.2182 210.197 78.445L209.853 77.0624L210.474 76.8714L211.106 76.677L211.326 77.3942ZM126.879 105.29C127.179 105.35 127.275 105.661 127.244 106.514C127.222 107.47 126.98 108.587 126.662 109.306C126.408 109.853 126.354 109.905 126.187 109.781C126.082 109.707 125.86 109.366 125.684 109.021C125.315 108.279 125.146 107.16 125.307 106.465C125.466 105.761 126.258 105.177 126.879 105.29ZM201.794 84.6514C203.689 84.8301 204.863 84.7617 207.708 84.2964C210.82 83.7841 213.798 82.6098 216 81.0066C216.692 80.5125 216.875 80.4211 216.986 80.5158C217.191 80.687 218.544 82.6847 218.87 83.2874C219.241 83.9585 231.535 123.873 231.817 125.286C232.044 126.481 231.926 127.315 231.376 128.422C230.912 129.35 230.463 129.909 229.745 130.47C229.045 131.014 229.017 130.999 229.455 130.29C230.308 128.949 230.653 127.519 230.522 125.837C230.468 124.975 230.175 123.986 225.652 109.172C222.435 98.6428 220.746 93.2683 220.566 92.9488C219.933 91.8075 218.333 90.5304 216.243 89.4863C212.162 87.4608 206.895 87.1365 202.039 88.6073L200.829 88.9795L199.965 88.0737C199.495 87.5739 199.08 87.1037 199.051 87.0074C199.024 86.9217 199.121 86.2828 199.271 85.5919L199.541 84.3369L200.127 84.4497C200.459 84.5 201.204 84.5988 201.794 84.6514ZM142.312 102.662C142.707 102.611 143.033 102.605 143.046 102.648C143.062 102.701 143.002 102.848 142.917 102.992C142.785 103.208 142.538 103.319 141.064 103.785L139.365 104.319L139.153 104.01C139.04 103.833 138.966 103.669 138.988 103.627C139.062 103.487 141.58 102.759 142.312 102.662ZM138.706 104.194C138.836 104.388 138.927 104.571 138.92 104.585C138.912 104.599 138.66 104.77 138.372 104.976C138.081 105.171 137.636 105.554 137.396 105.804L136.943 106.272L136.475 105.97C136.213 105.805 135.991 105.615 135.974 105.562C135.931 105.423 137.779 104.116 138.351 103.881C138.423 103.847 138.586 103.996 138.706 104.194ZM144.957 102.575C145.491 102.633 146.179 102.738 146.499 102.827L147.073 102.978L146.741 103.233C146.226 103.614 145.995 103.662 145.156 103.487C144.718 103.398 144.146 103.328 143.877 103.329C143.597 103.333 143.367 103.31 143.36 103.289C143.318 103.15 143.671 102.584 143.821 102.538C143.917 102.508 144.427 102.527 144.957 102.575ZM136.524 106.893C136.433 107.014 136.295 107.326 136.2 107.59L136.033 108.075L135.086 108.12C134.568 108.151 134.114 108.162 134.086 108.147C133.981 108.109 134.517 107.147 134.984 106.534L135.448 105.946L136.063 106.308C136.64 106.658 136.657 106.676 136.524 106.893ZM124.604 109.74C124.641 109.858 124.842 110.171 125.056 110.445C125.269 110.719 125.454 110.979 125.464 111.011C125.474 111.043 125.125 111.279 124.694 111.517C124.267 111.766 123.839 112.05 123.755 112.158C123.623 112.339 123.64 112.357 123.96 112.329C124.155 112.316 124.487 112.214 124.698 112.102L125.071 111.905L124.803 112.632C124.553 113.342 124.534 113.359 123.817 113.732C122.928 114.193 122.416 114.585 122.558 114.706C122.687 114.818 123.211 114.657 123.775 114.319C124.016 114.187 124.231 114.086 124.259 114.1C124.287 114.115 124.198 114.588 124.064 115.145C123.92 115.704 123.796 116.329 123.777 116.534C123.737 116.862 123.668 116.942 122.979 117.33C122.552 117.579 122.142 117.845 122.051 117.932C121.96 118.018 121.849 118.076 121.821 118.061C121.779 118.039 121.854 117.407 121.974 116.655C122.346 114.396 123.097 111.927 123.889 110.347C124.316 109.489 124.482 109.344 124.604 109.74ZM143.884 104.229C144.854 104.259 144.896 104.281 145.178 104.663C145.641 105.294 145.594 105.824 144.915 107.123C144.2 108.491 143.115 109.575 142.086 109.962C140.692 110.497 138.754 110.483 137.662 109.941C137.217 109.714 137.102 109.609 136.994 109.256C136.718 108.321 137.176 107.184 138.23 106.227C139.12 105.426 139.88 105.04 141.474 104.584C142.693 104.244 143.006 104.195 143.884 104.229ZM148.233 103.547C148.74 103.825 150.062 105.035 149.995 105.161C149.98 105.189 149.532 105.257 149.003 105.326L148.04 105.435L147.786 105.068C147.656 104.873 147.373 104.562 147.157 104.394C146.938 104.215 146.727 104.023 146.699 103.972C146.648 103.883 147.179 103.473 147.584 103.267C147.613 103.246 147.911 103.377 148.233 103.547ZM221.231 80.7915C221.212 81.1489 220.906 82.2861 220.668 82.8864C220.431 83.4866 220.445 83.4941 219.95 82.5685C219.766 82.2383 219.569 81.8653 219.501 81.7574C219.399 81.5779 219.443 81.4939 219.796 81.2329C220.013 81.0608 220.439 80.8475 220.728 80.7586C221.175 80.6095 221.235 80.6145 221.231 80.7915ZM166.776 98.65C167.217 98.7134 168.315 99.0081 169.226 99.3021C170.14 99.6067 171.211 99.8867 171.592 99.9451L172.302 100.043L184.729 96.2541C196.821 92.5566 197.174 92.4479 197.786 92.037C200.842 89.9717 205.003 88.832 208.86 88.9925C210.308 89.0509 212.781 89.5087 214.081 89.964C216.094 90.6803 218.207 91.9871 219.071 93.0806L219.481 93.5755L224.353 109.56C229.773 127.286 229.456 126.106 229.142 127.75C228.981 128.596 228.27 129.905 227.565 130.661C226.708 131.569 226.09 131.958 224.693 132.447C223.996 132.696 223.225 132.969 222.985 133.066L222.538 133.25L222.367 132.694C222.275 132.394 222.083 131.504 221.938 130.728C221.238 127.006 219.351 120.685 217.767 116.755L217.046 114.984L217.333 114.509C217.485 114.24 217.866 113.689 218.163 113.281C219.118 111.968 219.501 110.397 219.225 108.888C219.146 108.479 219.168 108.285 219.283 108.202C219.593 107.99 220.544 105.939 220.551 105.468C220.561 105.196 220.445 104.704 220.255 104.2C219.841 103.085 219.122 102.346 217.785 101.621C215.668 100.491 213.112 100.105 210.88 100.582C210.267 100.723 210.081 100.804 209.823 101.071C209.537 101.358 209.26 101.982 209.248 102.361C209.249 102.443 208.534 102.135 207.662 101.701C202.458 99.0715 195.934 98.431 189.017 99.8681C187.091 100.273 183.417 101.509 181.682 102.348C176.104 105.049 171.838 108.74 169.502 112.881C168.763 114.21 168.695 114.523 168.776 116.538C168.812 117.265 168.831 118.314 168.846 118.86C168.851 119.409 168.868 120.189 168.891 120.604C168.924 121.015 168.963 122.21 168.995 123.267C169.028 124.323 169.082 125.642 169.107 126.22C169.13 126.788 169.173 127.841 169.195 128.561C169.214 129.27 169.248 130.255 169.264 130.766C169.376 133.719 169.394 134.311 169.429 135.262C169.587 139.736 169.51 139.104 170.398 142.487C171.033 144.893 171.336 145.877 171.778 146.972C172.1 147.752 172.393 148.435 172.423 148.496C172.494 148.65 168.835 149.858 166.779 150.374C165.592 150.668 165.432 150.682 165.447 150.502C165.46 150.393 165.408 149.881 165.339 149.352C165.226 148.566 164.392 145.741 160.532 133.195C157.419 123.079 155.798 117.66 155.675 116.995C155.329 115.109 155.378 113.934 155.851 112.5C156.132 111.663 156.114 111.223 155.806 111.06C155.512 110.905 155.367 111.043 154.874 111.992C154.377 112.965 154.121 114.04 154.105 115.205C154.107 115.556 154.067 115.919 154.029 116.025C153.92 116.316 152.55 117.957 151.854 118.628C149.701 120.732 146.719 121.895 142.039 122.492C140.462 122.696 140.222 122.793 140.354 123.221C140.479 123.628 141.019 123.86 141.645 123.761C141.947 123.715 142.8 123.593 143.54 123.483C145.953 123.139 146.868 122.951 148.605 122.428C150.661 121.796 153.39 120.651 154.756 119.832L154.975 119.706L159.504 134.425C164.498 150.654 164.331 150.037 164.041 151.532C163.768 152.929 162.566 154.506 161.144 155.33C160.469 155.725 146.983 159.769 146.06 159.854C144.594 160.001 143.021 159.383 142.307 158.396C141.964 157.928 141.521 156.529 134.934 135.236C131.089 122.779 127.961 112.574 127.993 112.565C128.014 112.558 128.293 112.589 128.601 112.635C129.042 112.699 129.213 112.798 129.391 113.072C129.953 113.907 132.065 115.097 133.983 115.655C136.034 116.266 139.333 116.516 141.448 116.229C143.079 116.008 145.577 115.216 146.934 114.482C149.689 113.001 150.924 111.531 153.304 107.002C154.093 105.494 154.972 103.97 155.245 103.639C155.518 103.309 155.873 102.86 156.044 102.655C156.212 102.44 156.661 101.997 157.041 101.669L157.735 101.069L161.856 99.8004L165.978 98.5322L166.776 98.65ZM135.096 108.609L135.901 108.561L136.067 109.213C136.151 109.562 136.196 109.9 136.174 109.942C136.144 109.998 135.652 110.419 135.068 110.88L134.028 111.727L133.889 111.465C133.668 111.053 133.559 109.938 133.674 109.281C133.76 108.763 133.815 108.675 134.032 108.656C134.17 108.648 134.656 108.628 135.096 108.609ZM224.559 82.3922L225.817 83.013L225.18 84.1815C224.839 84.8255 224.537 85.3286 224.509 85.3138C224.234 85.1054 223.86 84.7283 223.457 84.2548L222.974 83.6768L223.064 82.7117C223.101 82.1847 223.181 81.7615 223.228 81.759C223.266 81.7705 223.869 82.0538 224.559 82.3922ZM131.637 128.786C134.463 137.971 136.733 145.499 136.69 145.512C136.497 145.571 133.995 144.255 133.141 143.651C132.057 142.871 130.932 141.765 130.339 140.904C128.711 138.546 128.157 134.919 128.623 129.503C128.85 126.773 128.649 125.968 127.225 123.816C125.958 121.909 125.524 121.105 125.178 119.981C124.815 118.804 124.806 118.279 125.098 116.561C125.365 114.955 126.22 112.173 126.455 112.1C126.477 112.094 128.811 119.602 131.637 128.786ZM149.456 105.772L150.245 105.67L150.432 106.316C150.57 106.801 150.59 107.134 150.484 107.741C150.361 108.447 149.805 109.837 149.612 109.896C149.537 109.919 147.82 108.643 147.787 108.536C147.777 108.504 147.87 108.194 147.991 107.864C148.255 107.162 148.337 106.515 148.225 106.151C148.159 105.937 148.192 105.892 148.409 105.872C148.547 105.865 149.023 105.812 149.456 105.772ZM136.681 110.524C136.707 110.61 136.995 110.861 137.323 111.088C137.651 111.315 137.926 111.524 137.939 111.566C137.956 111.62 137.464 114.021 137.399 114.229C137.338 114.411 135.461 113.454 134.924 112.963C134.386 112.472 134.147 112.077 134.351 112.014C134.436 111.988 134.901 111.634 135.389 111.238C136.35 110.438 136.612 110.299 136.681 110.524ZM223.289 85.9585L223.909 86.6L223.821 87.1542C223.743 87.6235 223.77 87.8261 224.044 88.5622C224.53 89.8773 225.788 91.2598 227.495 92.3516L228.151 92.7707L228.243 93.5275C228.325 94.2875 228.321 96.2926 228.234 96.5421C228.139 96.8056 228.012 99.2117 228.039 100.176C228.068 100.917 228.159 101.44 228.419 102.286C228.729 103.292 228.871 103.564 229.727 104.86C231.14 107.015 231.386 108.005 231.033 110.094C230.893 110.934 230.247 112.797 229.905 113.359L229.743 113.632L225.763 100.701L221.788 87.78L222.081 86.9047C222.24 86.4337 222.413 85.8886 222.467 85.6844C222.524 85.4908 222.592 85.3295 222.613 85.3229C222.646 85.313 222.944 85.5962 223.289 85.9585ZM139.548 111.845C140.053 111.924 140.661 111.959 140.899 111.933C141.137 111.906 141.381 111.937 141.44 112.013C141.484 112.081 141.524 112.666 141.505 113.328L141.487 114.529L141.05 114.593C140.464 114.668 139.317 114.634 138.526 114.503L137.877 114.41L138.106 113.214C138.363 111.916 138.44 111.67 138.553 111.694C138.591 111.705 139.043 111.766 139.548 111.845ZM148.58 109.78C148.918 110.039 149.213 110.312 149.236 110.387C149.321 110.665 146.775 112.902 146.567 112.72C146.473 112.643 145.348 110.892 145.312 110.774C145.292 110.71 145.43 110.585 145.613 110.494C145.795 110.403 146.272 110.01 146.674 109.64L147.391 108.962L147.678 109.132C147.838 109.235 148.243 109.521 148.58 109.78ZM228.859 84.7134C229.604 85.5738 229.902 86.1972 230.398 87.849C230.855 89.3723 231.141 90.9484 231.183 92.1893C231.222 93.4195 231.207 93.7522 231.079 95.889C230.888 99.0766 230.903 99.5056 231.252 100.64C231.562 101.647 231.688 101.866 233.38 104.392C234.633 106.256 235.064 107.201 235.663 109.337C236.095 110.892 236.179 111.393 236.227 112.351C236.272 113.486 236.103 114.956 235.84 115.587L235.709 115.921L235.759 115.437C235.832 114.723 235.765 114.392 235.523 114.29C235.186 114.148 235 114.381 234.48 115.584C234.046 116.573 233.43 117.618 233.462 117.303C233.467 117.243 233.684 115.969 233.928 114.476C234.462 111.336 234.546 109.517 234.209 108.953C233.895 108.428 233.587 108.57 233.478 109.283C233.001 112.453 232.877 113.042 232.42 114.296C232.15 115.059 231.709 116.062 231.443 116.53L230.956 117.383L230.601 116.344L230.246 115.305L230.825 114.295C231.955 112.33 232.592 109.907 232.45 108.111C232.349 106.83 231.899 105.75 230.787 104.077C229.931 102.781 229.87 102.659 229.6 101.629C229.294 100.446 229.257 99.145 229.468 97.2403C229.778 94.4028 229.655 93.0112 228.872 90.428L228.262 88.4477L227.665 87.7642L227.082 87.0882L227.255 86.66C227.446 86.2145 228.366 84.291 228.413 84.2531C228.434 84.2465 228.628 84.4565 228.859 84.7134ZM123.578 117.638C123.578 117.755 123.594 118.301 123.624 118.854C123.672 119.847 123.667 119.872 123.357 119.967C123.175 120.023 122.77 120.23 122.454 120.421C122.13 120.626 121.844 120.761 121.802 120.739C121.721 120.705 121.677 119.383 121.718 118.679C121.739 118.403 121.801 118.337 122.193 118.204C122.45 118.125 122.802 117.935 122.982 117.798C123.455 117.43 123.597 117.397 123.578 117.638ZM145.521 112.022C145.848 112.554 146.107 113.014 146.095 113.052C145.944 113.322 142.322 114.577 142.056 114.436C142.014 114.414 141.981 113.85 141.994 113.166L142.004 111.944L143.307 111.532C144.021 111.3 144.629 111.066 144.651 111.024C144.74 110.856 144.905 111.052 145.521 112.022ZM226.159 88.0871C226.794 88.6651 227.078 89.0933 227.497 90.1481L227.808 90.9312L227.431 90.6957C226.494 90.1284 225.115 88.3498 225.081 87.6688C225.067 87.3567 225.067 87.3567 225.341 87.4835C225.491 87.5543 225.857 87.8285 226.159 88.0871ZM124.002 120.73C124.157 121.233 124.953 122.793 125.33 123.333C125.46 123.527 125.431 123.548 124.896 123.712C124.243 123.913 123.855 124.29 124.193 124.398C124.306 124.421 124.612 124.351 124.899 124.216C125.188 124.091 125.475 123.956 125.561 123.93C125.779 123.839 126.705 125.288 127.112 126.382L127.476 127.336L127.068 127.532C126.591 127.773 126.374 128.133 126.685 128.154C126.791 128.156 126.998 128.105 127.13 128.04C127.27 127.962 127.395 127.947 127.408 127.99C127.424 128.044 127.386 128.641 127.334 129.313C127.153 131.502 127.125 133.737 127.261 135.664C127.28 135.916 127.225 136.003 126.99 136.075C126.54 136.214 126 136.591 125.902 136.844C125.812 137.047 125.869 137.041 126.534 136.766L127.267 136.482L127.896 138.527C128.502 140.496 128.553 140.622 129.136 141.45C129.458 141.925 129.957 142.557 130.244 142.843C130.524 143.144 130.741 143.393 130.727 143.421C130.708 143.439 130.603 143.553 130.476 143.674L130.262 143.892L130.538 143.913C130.694 143.924 130.89 143.875 130.979 143.824C131.084 143.745 131.409 143.926 132.056 144.43C132.582 144.843 133.679 145.513 134.621 145.985C135.577 146.464 136.212 146.854 136.133 146.902C136.068 146.957 135.825 147.079 135.602 147.194C135.186 147.404 134.972 147.622 135.025 147.794C135.065 147.922 135.554 147.76 136.228 147.4C136.738 147.114 136.837 147.095 137.072 147.211C137.321 147.333 137.388 147.477 137.902 149.146C138.205 150.131 138.434 150.951 138.402 150.961C138.295 150.994 136.429 150.338 135.183 149.831C132.976 148.94 131.436 147.972 129.761 146.414C127.874 144.662 126.371 141.949 125.855 139.319C125.47 137.422 125.311 135.42 125.309 132.632C125.301 129.904 125.276 129.63 124.821 128.189C124.485 127.097 124.245 126.585 123.561 125.354C122.955 124.298 122.571 123.467 122.239 122.503L121.756 121.163L122.171 121.024C122.406 120.951 122.811 120.745 123.077 120.581C123.835 120.113 123.811 120.109 124.002 120.73ZM189.997 100.996C194.274 100.16 199.26 100.255 202.812 101.248C203.783 101.511 205.36 102.292 206.129 102.887L206.466 103.147L205.199 103.103C204.502 103.083 203.343 102.936 202.62 102.795C199.242 102.1 195.814 102.042 191.897 102.603C190.518 102.804 189.844 102.977 187.432 103.707C183.772 104.834 181.745 105.75 178.958 107.545C175.466 109.792 172.61 112.698 170.482 116.141L170.107 116.749L170.086 116.416C169.939 114.375 170.021 114.033 171.053 112.626C174.323 108.175 178.813 104.789 184.344 102.619C185.731 102.063 188.37 101.309 189.997 100.996ZM189.715 103.966L190.634 103.753L191.161 105.618C191.463 106.638 191.673 107.511 191.644 107.567C191.625 107.62 191.04 107.776 190.346 107.92C189.662 108.06 188.74 108.261 188.295 108.375C187.857 108.475 187.483 108.555 187.466 108.537C187.438 108.522 187.198 107.705 186.924 106.699L186.416 104.899L187.615 104.53C188.268 104.329 189.22 104.071 189.715 103.966ZM185.792 105.993C185.917 106.4 186.129 107.202 186.261 107.782L186.513 108.83L185.508 109.221C184.951 109.428 184.064 109.782 183.527 110.018C182.987 110.243 182.522 110.409 182.484 110.398C182.425 110.357 182.047 108.598 181.841 107.396L181.771 106.938L182.384 106.608C183.305 106.137 184.265 105.713 184.965 105.474L185.572 105.276L185.792 105.993ZM192.505 103.435C192.839 103.379 193.458 103.294 193.869 103.261L194.625 103.205L195.302 105.176C195.684 106.265 195.975 107.172 195.971 107.197C195.953 107.214 195.214 107.289 194.323 107.364C193.223 107.444 192.681 107.435 192.63 107.346C192.582 107.267 192.309 106.378 192.024 105.376C191.549 103.718 191.51 103.554 191.698 103.555C191.801 103.546 192.174 103.502 192.505 103.435ZM180.982 107.649C180.992 107.798 181.122 108.485 181.265 109.179C181.65 111.041 181.705 110.837 180.668 111.39C180.177 111.658 179.314 112.17 178.768 112.525C178.21 112.884 177.747 113.168 177.733 113.16C177.687 113.127 177.13 109.983 177.17 109.923C177.277 109.738 180.448 107.591 180.827 107.451C180.909 107.413 180.968 107.489 180.982 107.649ZM197.553 103.124C198.297 103.141 198.955 103.185 199.011 103.214C199.095 103.259 200.498 107.362 200.445 107.378C200.434 107.382 199.946 107.356 199.369 107.311C198.782 107.269 198 107.24 197.635 107.235L196.955 107.234L196.77 106.634C196.668 106.302 196.346 105.37 196.056 104.58L195.541 103.134L195.874 103.113C196.059 103.103 196.81 103.107 197.553 103.124ZM202.261 103.609L203.04 103.779L203.277 104.55C203.409 104.978 203.737 105.932 204.011 106.668L204.497 108.018L203.001 107.764L201.518 107.517L201.252 106.802C201.108 106.413 200.78 105.459 200.518 104.684L200.062 103.278L200.765 103.354C201.157 103.409 201.824 103.521 202.261 103.609ZM176.364 110.769C176.482 111.19 176.908 113.754 176.86 113.827C176.827 113.873 176.549 114.111 176.238 114.359C175.928 114.606 175.356 115.11 174.954 115.48C174.567 115.857 174.22 116.14 174.178 116.117C174.136 116.095 173.994 115.483 173.849 114.742C173.541 113.173 173.459 113.362 175.076 111.763C176.037 110.811 176.315 110.609 176.364 110.769ZM206.599 104.91L207.613 105.313L207.966 106.458C208.16 107.09 208.492 108.054 208.706 108.598L209.077 109.574L208.35 109.27C207.947 109.101 207.142 108.809 206.555 108.615L205.479 108.278L205.11 107.079C204.895 106.419 204.577 105.462 204.373 104.951L204.03 104.025L204.807 104.267C205.233 104.393 206.037 104.685 206.599 104.91ZM212.434 101.709C213.693 101.649 214.872 101.826 216.067 102.243C217.093 102.607 218.318 103.39 218.601 103.854C218.891 104.339 218.442 105.203 217.674 105.639C217.455 105.765 217.346 105.716 216.838 105.322C216.129 104.767 214.691 104.131 213.833 104.009C213.084 103.899 212.409 103.99 212.07 104.258C211.832 104.437 211.793 104.425 211.178 103.911C210.82 103.623 210.515 103.319 210.495 103.254C210.476 103.19 210.497 102.879 210.543 102.572C210.626 102.042 210.652 102.011 211.069 101.883C211.315 101.807 211.923 101.725 212.434 101.709ZM191.022 108.708C194.787 107.994 198.841 107.954 202.542 108.596C205.16 109.033 205.413 109.131 206.753 110.171C209.634 112.414 211.037 113.775 212.931 116.157C213.082 116.345 213.152 116.534 213.128 116.647C213.096 116.809 212.945 116.738 212.41 116.294C211.503 115.553 209.296 114.17 207.996 113.527C203.587 111.345 198.2 110.366 193.571 110.9C190.143 111.298 186.382 112.479 183.579 114.033C177.492 117.406 172.976 123.026 171.015 129.641C170.819 130.299 170.641 130.823 170.613 130.808C170.588 130.804 170.533 129.824 170.5 128.651C170.456 127.481 170.408 125.914 170.382 125.184C170.357 124.453 170.4 123.643 170.473 123.386C170.688 122.675 171.832 120.566 172.52 119.604C175.534 115.384 179.832 112.292 185.711 110.108C186.772 109.711 189.506 108.998 191.022 108.708ZM172.92 114.583C172.931 114.732 173.037 115.343 173.144 115.955L173.355 117.062L172.512 118.13C171.775 119.048 171.656 119.155 171.643 118.925C171.633 118.776 171.542 118.253 171.429 117.772C171.327 117.288 171.283 116.762 171.315 116.6C171.396 116.294 172.655 114.406 172.805 114.36C172.859 114.344 172.902 114.448 172.92 114.583ZM210.489 107.041L211.06 107.451L211.703 109.351L212.347 111.251L211.224 110.612L210.113 109.97L209.805 109.009C209.641 108.474 209.329 107.574 209.115 106.995L208.732 105.941L209.32 106.288C209.648 106.48 210.172 106.811 210.489 107.041ZM170.814 119.391C170.97 120.315 170.965 120.376 170.655 120.893C170.475 121.182 170.314 121.42 170.286 121.405C170.219 121.378 170.154 119.149 170.203 118.852C170.231 118.715 170.304 118.493 170.364 118.346C170.461 118.128 170.479 118.111 170.564 118.272C170.615 118.362 170.734 118.865 170.814 119.391ZM214.017 105.37C214.296 105.436 214.888 105.688 215.336 105.925L216.159 106.351L216.347 107.114C216.486 107.68 216.516 108.081 216.428 108.671C216.314 109.444 215.768 110.983 215.597 111.036C215.543 111.052 215.304 110.505 215.047 109.822C214.408 108.085 213.945 107.115 213.379 106.304C213.108 105.919 212.894 105.528 212.903 105.443C212.911 105.241 213.348 105.212 214.017 105.37ZM190.945 112.645C193.255 112.157 196.08 111.968 198.29 112.143C199.322 112.224 201.454 112.564 202.225 112.783C203.401 113.101 204.104 113.33 204.124 113.394C204.153 113.491 203.808 114.499 203.695 114.628C203.651 114.676 203.104 114.575 202.471 114.383C199.4 113.465 195.586 113.221 192.287 113.732C190.698 113.975 186.968 115.182 185.565 115.918C183.191 117.152 180.92 118.835 179.246 120.593C178.821 121.04 178.434 121.417 178.391 121.43C178.337 121.447 178.104 121.261 177.855 121.021L177.397 120.599L178.224 119.747C181.712 116.154 186.203 113.648 190.945 112.645ZM192.6 114.597C202.749 113.079 212.437 118.476 216.585 127.957C217.153 129.271 218.007 132.313 218.177 133.702C219.242 141.999 215.722 150.171 209.041 154.887C206.837 156.445 205.199 157.253 202.576 158.06C196.978 159.783 191.372 159.352 186.206 156.805C175.32 151.436 170.658 138.457 175.662 127.414C177.787 122.706 181.857 118.606 186.502 116.485C186.953 116.276 187.465 116.036 187.63 115.962C188.152 115.719 191.771 114.723 192.6 114.597ZM176.359 123.016C176.628 123.203 176.847 123.382 176.857 123.414C176.87 123.457 176.675 123.775 176.425 124.144C175.747 125.138 174.597 127.496 174.044 129.049C172.673 132.857 172.346 137.165 173.148 141.066C173.295 141.771 173.433 142.525 173.468 142.714L173.523 143.083L172.806 143.304L172.089 143.525L171.95 142.958C170.542 137.357 171.235 131.155 173.846 126.004C174.536 124.632 175.664 122.738 175.804 122.695C175.846 122.682 176.091 122.829 176.359 123.016ZM174.039 144.53C176.173 150.096 179.659 154.226 184.586 157.022C185.554 157.58 187.785 158.546 188.689 158.818L188.998 158.91L188.705 159.786C188.549 160.267 188.358 160.713 188.282 160.771C187.99 161.002 184.527 159.384 182.506 158.072C178.685 155.592 175.388 151.732 173.525 147.583C173.312 147.121 172.921 146.116 172.641 145.359L172.135 143.979L172.895 143.746L173.644 143.515L174.039 144.53ZM220.626 131.226C220.784 131.739 220.804 131.956 220.71 132.032C220.577 132.131 219.001 132.417 218.899 132.355C218.871 132.34 218.793 132.047 218.734 131.702L218.624 131.08L219.513 130.806L220.412 130.53L220.626 131.226ZM216.931 149.378L217.832 149.944L217.413 150.6C217.195 150.96 216.858 151.463 216.664 151.71L216.335 152.162L215.473 151.42L214.615 150.688L214.857 150.367C214.978 150.19 215.271 149.771 215.495 149.433C215.715 149.084 215.934 148.805 215.97 148.806C216.005 148.807 216.435 149.061 216.931 149.378ZM213.429 153.877L214.222 154.664L213.45 155.394C213.023 155.795 212.626 156.104 212.556 156.067C212.444 156.008 211.284 154.56 211.241 154.421C211.221 154.357 212.436 153.163 212.593 153.103C212.625 153.093 213 153.435 213.429 153.877Z" fill="#FFCCDE"/>
<path d="M149.444 93.6241L140.761 96.3309L140.348 97.044C139.776 98.005 139.684 98.7716 140.028 99.8495C140.209 100.438 140.344 100.725 140.546 100.885L140.817 101.118L150.879 98.022C162.376 94.4843 161.274 94.9405 161.168 93.7193C161.009 92.0222 159.687 90.6594 158.407 90.8777C158.25 90.9024 154.225 92.1409 149.444 93.6241ZM158.017 92.0873C158.208 92.2512 157.885 92.7255 157.056 93.4963L156.238 94.2637L148.498 96.6453C143.167 98.2857 140.749 98.9948 140.726 98.9198C140.66 98.7057 140.821 98.0116 141.045 97.5562L141.271 97.1115L149.588 94.5521C155.358 92.7766 157.948 92.0149 158.017 92.0873Z" fill="#FFCCDE"/>
<path d="M150.834 100.309C149.488 101.345 149.752 102.81 151.323 103.042C153.229 103.334 154.866 101.494 153.738 100.342C153.105 99.6927 151.66 99.6803 150.834 100.309ZM152.88 100.828C153.293 101.029 153.329 101.182 153.069 101.555C152.64 102.179 151.051 102.387 150.883 101.841C150.831 101.67 151.137 101.142 151.385 100.995C151.755 100.752 152.551 100.672 152.88 100.828Z" fill="#FFCCDE"/>
<path d="M215.91 82.0071C215.622 82.2129 215.13 82.5168 214.807 82.6864C213.892 83.1789 214.03 83.5115 215.254 83.7207C215.995 83.8442 216.479 84.0821 217.051 84.6091C217.568 85.071 217.886 85.1139 218.086 84.7359C218.216 84.4732 218.202 84.3135 217.952 83.4999C217.553 82.2046 216.91 81.3713 216.508 81.5887C216.469 81.6126 216.199 81.8012 215.91 82.0071Z" fill="#FFCCDE"/>
<path d="M158.777 102.506C158.038 103.226 157.794 104.11 158.074 105.02C158.644 106.836 161.011 107.291 162.221 105.817C162.666 105.282 162.874 104.245 162.673 103.592C162.479 102.961 161.721 102.21 161.059 102.003C160.321 101.773 159.288 101.997 158.777 102.506ZM160.672 102.837C161.095 102.918 161.669 103.374 161.771 103.706C161.886 104.081 161.012 104.971 160.319 105.196C159.324 105.502 158.757 105.032 158.905 104.026C159.023 103.192 159.811 102.669 160.672 102.837Z" fill="#FFCCDE"/>
<path d="M151.224 124.083C151.06 124.31 151.099 124.438 155.306 138.108L159.548 151.895L159.917 152.18C160.283 152.455 160.293 152.451 160.923 152.211C161.745 151.876 162.285 151.346 162.463 150.706L162.599 150.195L158.607 137.221C156.347 129.878 154.512 124.067 154.376 123.852C154.264 123.64 154.087 123.448 154.01 123.425C153.933 123.402 153.485 123.47 153.025 123.576C152.562 123.671 152 123.786 151.783 123.806C151.527 123.849 151.334 123.944 151.224 124.083Z" fill="#FFCCDE"/>
<path d="M189.544 120.354C186.105 121.705 183.001 124.301 181.098 127.406C178.954 130.913 178.124 134.496 178.477 138.653C178.632 140.375 179.538 143.319 180.411 144.937C181.62 147.154 183.275 149.141 185.129 150.598C188.167 152.968 192.41 154.381 196.269 154.318C198.18 154.281 199.137 154.115 201.17 153.489C202.744 153.005 203.309 152.784 204.224 152.292C209.889 149.225 213.397 143.563 213.592 137.152C213.806 130.536 210.077 124.207 204.157 121.154C202.764 120.434 202.244 120.231 200.893 119.838C197.138 118.755 193.138 118.931 189.544 120.354ZM194.351 120.093C196.615 119.912 198.891 120.149 201.006 120.776C202.332 121.164 205.024 122.563 206.148 123.435C210.355 126.711 212.766 131.688 212.707 136.944C212.693 138.307 212.302 140.654 211.863 142.008C211.143 144.198 209.685 146.581 208.018 148.324C202.227 154.371 192.602 155.118 185.953 150.04C181.202 146.404 178.77 140.672 179.443 134.747C180.087 129.111 183.632 124.142 188.792 121.64C189.759 121.166 193.343 120.169 194.351 120.093Z" fill="#FFCCDE"/>
<path d="M189.825 122.599C183.663 125.386 180.077 131.552 180.666 138.343C180.777 139.692 181.779 142.91 182.446 144.088C184.865 148.37 188.79 151.147 193.55 151.956C194.648 152.133 196.808 152.148 198.116 151.98C199.413 151.815 201.519 151.156 202.823 150.52C208.474 147.75 211.841 141.745 211.349 135.311C211.244 133.902 210.577 131.47 209.956 130.173C207.386 124.906 202.456 121.642 196.585 121.339C194.547 121.228 191.633 121.773 189.825 122.599ZM200.078 126.405C200.884 126.473 201.715 127.307 201.792 128.092C201.935 129.7 200.438 130.852 199 130.252C198.418 129.998 198.111 129.647 197.913 129.004C197.692 128.287 197.867 127.484 198.331 127.013C198.726 126.621 199.519 126.342 200.078 126.405ZM199.452 134.12C200.307 134.08 201.651 134.335 202.422 134.671C206.217 136.339 207.762 140.715 205.85 144.327C205.491 145.024 205.118 145.525 204.61 146.009C203.581 147.006 203.114 147.278 201.623 147.725C200.52 148.065 200.229 148.107 199.536 148.063C197.325 147.923 195.329 146.885 194.127 145.263C192.537 143.104 192.281 140.253 193.482 137.95C194.684 135.646 196.885 134.231 199.452 134.12Z" fill="#FFCCDE"/>
</svg>
