<svg width="267" height="179" viewBox="0 0 267 179" fill="none" xmlns="http://www.w3.org/2000/svg">
<path d="M95.0045 0.518478C94.4949 1.10088 94.4221 2.26567 94.8832 2.82381C95.053 3.01794 95.6354 3.4062 96.1936 3.67314C96.7274 3.94008 100.513 6.19687 104.59 8.69633L111.991 13.2827V17.675C111.991 21.7275 112.04 22.1401 112.501 22.771C113.01 23.4747 117.694 26.6537 122.038 29.2745C123.372 30.0753 124.367 30.8033 124.294 30.8761C124.197 30.9731 122.499 31.9923 120.485 33.1571C118.495 34.2977 115.874 35.8507 114.661 36.5787C113.472 37.2825 112.331 37.8891 112.161 37.8891C111.991 37.8891 110.22 36.8942 108.23 35.7051C106.24 34.4918 103.886 33.1814 103.013 32.7689L101.435 32.0409L98.96 32.4049L96.4848 32.7689L94.3493 31.4585C92.2866 30.1723 90.685 29.1774 85.5405 26.047C84.2058 25.2219 82.7983 24.227 82.3858 23.8145C81.5364 22.9651 80.6386 22.8681 79.8135 23.5475C78.673 24.4697 79.3767 26.7265 80.8327 26.7265C81.3666 26.7265 81.0511 26.5323 92.3351 33.4726C93.5485 34.2006 94.8104 34.9771 95.1501 35.1713C95.7082 35.511 96.145 35.511 98.8386 35.2441L101.921 34.9043L103.91 36.239C105.027 36.967 106.604 37.9862 107.453 38.4958C108.278 39.0054 108.958 39.4907 108.958 39.6121C108.958 39.7091 108.667 40.0003 108.303 40.2673C107.478 40.8497 98.1592 46.3582 97.6981 46.5281C97.504 46.6009 93.1845 44.1014 88.0642 40.971C82.9439 37.8406 78.4788 35.147 78.1634 34.9771C77.7023 34.7345 77.2169 34.7345 75.9793 34.9286C75.1057 35.0742 73.7468 35.2683 72.9945 35.3411L71.5871 35.4867L68.8692 33.8123C57.6094 26.9206 53.9208 24.6638 51.9067 23.5475C50.6448 22.8438 49.5771 22.1643 49.5286 22.0187C49.2859 21.4363 48.2667 20.6598 47.6843 20.6598C46.8835 20.6598 45.8643 21.679 45.8643 22.4798C45.8643 23.3049 46.8835 24.2998 47.7086 24.2998C48.0968 24.2998 49.383 25.0035 51.0574 26.0955C52.5376 27.0662 54.3091 28.2067 54.9643 28.595C55.6438 29.0075 57.6579 30.2209 59.4537 31.3371C61.2494 32.4291 63.7246 33.9337 64.9137 34.6859C66.127 35.4139 67.9228 36.5059 68.9177 37.1369C70.6406 38.1803 70.8348 38.2531 72.3151 38.2046C73.1887 38.1561 74.5719 37.9862 75.4212 37.8163L76.95 37.4766L85.4919 42.6939C90.1997 45.5574 94.1552 48.0083 94.325 48.1782C94.5434 48.3723 92.6749 49.5856 86.5839 53.1771C82.1674 55.7737 78.406 57.9334 78.2604 57.9819C78.1148 58.0062 76.5375 57.1811 74.766 56.0891C72.6305 54.8273 71.2959 54.1478 70.8105 54.1478C70.3252 54.1478 68.8206 54.9486 66.0542 56.6715C63.8217 58.0304 61.759 59.2923 61.4921 59.4379C61.031 59.6806 60.667 59.535 58.9441 58.4672C57.8278 57.7878 56.4203 56.9385 55.8137 56.5744C55.207 56.2104 53.2414 55.0214 51.4456 53.9051C49.6499 52.7888 47.6843 51.5998 47.0776 51.2358C46.4709 50.8718 44.5053 49.6827 42.7096 48.5665C35.7693 44.2955 30.4306 41.1166 29.921 40.9467C29.6055 40.8497 29.3629 40.6555 29.3629 40.5342C29.3629 40.0246 28.3437 39.3451 27.5671 39.3451C26.9605 39.3451 26.5965 39.515 26.2325 39.9761C25.6501 40.7041 25.6015 41.0195 25.9898 41.8689C26.281 42.4998 27.4701 43.1307 27.8583 42.8881C27.9797 42.8153 28.9018 43.2763 29.8967 43.9558C30.8917 44.611 32.2506 45.4603 32.9058 45.8486C33.561 46.2369 35.5752 47.4502 37.3709 48.5665C39.1666 49.6827 41.1323 50.8718 41.7389 51.2358C42.3456 51.5998 44.3112 52.7888 46.1069 53.9051C47.9027 55.0214 49.8683 56.2104 50.475 56.5744C51.0816 56.9385 53.0472 58.1275 54.843 59.2438C56.6387 60.36 58.7499 61.6219 59.5265 62.083L60.9097 62.9081L64.0158 61.1123C65.7145 60.1416 67.947 58.807 68.9662 58.1518L70.8591 56.987L73.0431 58.2974C74.2321 59.0254 75.2271 59.6563 75.2271 59.7291C75.2271 59.8019 74.5233 60.263 73.6497 60.7726C71.9268 61.7675 71.4172 62.4227 71.7327 63.2235C71.854 63.4904 71.9268 66.4753 71.8783 69.8483L71.8055 75.9635L69.8156 74.7259C63.3364 70.6976 60.6185 69.1446 59.8905 69.0475C59.1625 68.9262 56.3961 69.2659 46.4709 70.6491C38.6328 71.7411 38.7056 71.7411 37.9533 71.2072C36.6186 70.2851 24.1455 62.7139 22.2042 61.6704C21.1364 61.0881 19.9716 60.2872 19.6319 59.899C18.1759 58.176 15.8463 59.6563 16.6471 61.7918C16.8655 62.3014 18.006 62.8838 18.5884 62.7382C18.8796 62.6654 20.2386 63.3934 22.4954 64.8736C24.4125 66.1112 27.0333 67.7856 28.3194 68.5622C33.4397 71.644 35.1141 72.6875 36.5216 73.6339L37.9776 74.6046L40.2829 74.3134C42.3456 74.0707 47.0776 73.4155 56.4203 72.1294L59.5507 71.6926L62.123 73.2699C64.9622 75.0171 68.0198 76.9099 70.3252 78.2931L71.8297 79.2152V81.836V84.4326L69.9369 85.5246C68.8934 86.1312 67.5588 87.0048 66.9521 87.4416C66.3697 87.8784 65.5689 88.4608 65.1564 88.7035C64.7681 88.9704 63.5548 89.9168 62.4627 90.839L60.4971 92.4891L56.2262 92.3192C52.9744 92.1979 51.7854 92.2464 51.1544 92.4891C50.7176 92.659 47.4174 94.576 43.8016 96.7358L37.2496 100.643L28.1495 100.352C23.1506 100.182 18.5156 99.939 17.8362 99.7934C16.3802 99.5264 15.5551 99.8176 15.094 100.788C14.4388 102.147 15.822 103.482 17.4236 103.021C18.2244 102.802 19.1223 102.802 29.6783 103.166L38.1232 103.458L40.7197 101.905C46.7136 98.2646 49.2131 96.7358 50.5963 95.8622L52.0766 94.9158L55.2555 95.0856L58.4345 95.2312L58.5558 96.1776C58.7499 97.6336 59.6721 98.58 62.5355 100.303C63.9673 101.152 66.9278 102.924 69.1118 104.21C71.2716 105.52 73.0431 106.612 73.0431 106.661C73.0431 106.734 71.3687 107.777 69.3545 109.015C67.3161 110.228 62.0502 113.431 57.6579 116.101L49.6742 120.954L37.3952 120.541C29.1202 120.25 24.6309 120.007 23.5874 119.789C22.4468 119.522 21.913 119.498 21.4762 119.716C20.7239 120.056 20.2871 121.099 20.6026 121.876C20.9908 122.944 21.4276 123.114 23.102 122.944C23.9514 122.871 30.4063 123.017 37.468 123.308L50.3051 123.817L52.8774 122.264C54.2848 121.415 57.6822 119.352 60.4243 117.678C63.1665 116.028 66.2726 114.135 67.3404 113.48C68.4081 112.849 70.762 111.417 72.582 110.301L75.8823 108.287L79.8378 110.616C83.4292 112.752 83.7204 112.994 83.3322 113.286C82.9196 113.577 72.0481 120.226 60.9582 126.948L57.2454 129.205L49.7712 128.913L42.3213 128.622L40.5984 129.374C38.0504 130.442 33.3669 133.184 15.6521 143.934C13.5167 145.245 9.58545 147.623 6.91611 149.249C4.27103 150.85 1.84435 152.185 1.57742 152.185C1.28622 152.185 0.82515 152.428 0.533949 152.743C-0.897791 154.272 0.800883 156.432 2.66942 155.461C3.05769 155.267 3.39743 154.976 3.39743 154.854C3.39743 154.733 4.02836 154.272 4.8049 153.811C5.55717 153.35 7.23158 152.355 8.49345 151.578C9.75532 150.802 13.5409 148.497 16.8655 146.482C28.7077 139.299 31.2071 137.746 33.9736 135.999C35.5024 135.004 37.9048 133.645 39.3123 132.942L41.8603 131.68H45.3789C47.3203 131.68 50.9846 131.728 53.5083 131.801L58.1433 131.922L60.7883 130.321C62.2686 129.423 65.9814 127.19 69.039 125.322C72.1209 123.453 76.7559 120.638 79.3524 119.061C81.949 117.484 84.5698 115.882 85.1522 115.494C85.7589 115.13 86.3898 114.814 86.5597 114.814C86.8994 114.814 90.2725 116.78 90.2725 116.998C90.2725 117.071 89.8599 117.338 89.3503 117.629C87.5546 118.624 80.2018 123.162 79.7407 123.526C78.8671 124.278 78.6487 125.152 78.4788 128.501L78.309 131.825L77.5567 132.141C76.7073 132.505 74.1593 134.034 56.9542 144.517C54.1878 146.191 51.7611 147.574 51.5427 147.574C51.3486 147.574 50.8632 147.744 50.4992 147.938C49.383 148.497 49.1888 149.54 50.0139 150.583C50.6934 151.457 51.7854 151.433 52.7803 150.511C53.1686 150.147 55.1585 148.836 57.1483 147.647C59.1625 146.434 63.3606 143.886 66.491 141.993C69.6214 140.076 73.5041 137.746 75.0815 136.8C76.6588 135.854 78.406 134.665 78.9641 134.179C79.5223 133.694 80.226 133.063 80.5658 132.796C81.1482 132.359 81.1724 132.189 81.2938 129.01L81.4151 125.71L84.8124 123.623C93.233 118.503 92.9661 118.624 93.6213 118.94C93.961 119.085 96.5576 120.59 99.3968 122.289C103.255 124.594 104.493 125.443 104.274 125.637C104.105 125.783 102.576 126.754 100.829 127.797C99.1056 128.841 95.1744 131.219 92.0925 133.087C89.0349 134.956 84.2543 137.843 81.5122 139.518L76.5132 142.527L73.0188 146.774C69.7913 150.681 69.3788 151.069 67.583 152.112C65.5689 153.301 52.3678 161.261 48.7763 163.469C43.9229 166.454 42.1757 167.473 41.8603 167.473C41.1565 167.473 40.3072 168.055 40.0403 168.686C39.8219 169.22 39.8461 169.511 40.1373 170.094C40.7683 171.307 42.0301 171.477 43.0251 170.482C43.3648 170.142 45.0877 168.978 46.8835 167.91C48.655 166.818 51.8582 164.877 53.9936 163.59C56.1291 162.28 59.8419 160.023 62.2443 158.567C69.9126 153.908 71.854 152.598 72.7761 151.457C73.2372 150.85 74.4263 149.443 75.3727 148.302C76.3191 147.162 77.2655 145.949 77.5081 145.585C77.7508 145.221 80.129 143.619 83.3079 141.702C86.2684 139.906 90.4909 137.334 92.6991 135.999C94.9074 134.665 98.693 132.359 101.095 130.879C103.522 129.423 105.9 127.943 106.41 127.603L107.283 126.996L111.215 129.35C113.374 130.636 116.869 132.723 118.98 133.985C121.067 135.247 122.79 136.339 122.79 136.436C122.79 136.582 107.478 145.973 103.304 148.424C102.649 148.788 101.993 149.322 101.799 149.613C101.581 149.977 101.435 151.506 101.338 154.854C101.241 157.451 101.12 160.169 101.047 160.873C100.926 162.11 100.901 162.159 99.6637 162.765C98.4746 163.396 97.14 164.173 85.1764 171.429C82.1916 173.273 79.498 174.753 79.2068 174.753C77.678 174.753 76.9257 176.986 78.1148 177.932C78.9156 178.587 79.6922 178.514 80.6143 177.689C81.0511 177.325 82.9439 176.088 84.8124 174.947C95.8053 168.274 97.868 167.036 99.6152 165.896C100.683 165.192 101.896 164.343 102.285 164.003C102.697 163.639 103.207 163.202 103.449 162.984C103.765 162.693 103.862 162.207 103.886 160.727C103.91 159.708 103.983 157.135 104.08 155L104.226 151.142L108.715 148.424C114.321 145.026 120.509 141.265 123.494 139.445L125.775 138.062L126.77 138.62C127.328 138.911 128.347 139.542 129.075 140.003L130.361 140.828L129.318 141.459C127.765 142.357 116.238 149.346 113.69 150.923C111.287 152.428 111.142 152.549 111.142 153.35C111.142 154.054 112.574 155.097 119.101 159.101C121.916 160.824 124.197 162.256 124.173 162.28C123.712 162.644 114.685 167.958 114.539 167.958C113.496 167.958 112.452 169.269 112.744 170.239C113.229 171.841 114.83 172.084 116.068 170.773C116.505 170.337 117.67 169.463 118.665 168.881C128.007 163.275 128.711 162.644 127.255 161.139C126.891 160.751 125.338 159.659 123.833 158.737C122.329 157.791 119.829 156.262 118.301 155.315C116.772 154.369 115.461 153.495 115.389 153.398C115.34 153.301 118.301 151.409 122.013 149.152C125.702 146.919 129.657 144.493 130.798 143.74L132.836 142.406L133.953 142.697C138.248 143.862 142.519 142.867 147.518 139.566C148.27 139.081 149.314 138.426 149.872 138.11L150.867 137.528L160.719 143.546L170.571 149.589L170.644 154.636C170.717 159.295 170.765 159.732 171.226 160.363C172.051 161.479 173.532 162.474 182.899 168.177C187.801 171.186 192.12 173.952 192.484 174.316C193.236 175.117 194.061 175.19 194.959 174.486C195.833 173.807 195.833 172.545 194.959 171.865C194.595 171.574 194.11 171.356 193.867 171.356C193.479 171.356 190.276 169.463 181.758 164.197C177.754 161.722 173.92 159.465 173.726 159.465C173.605 159.465 173.508 156.966 173.508 153.932C173.508 147.526 173.774 148.205 170.595 146.313C169.601 145.706 167.295 144.298 165.499 143.206C159.797 139.712 156.691 137.819 155.259 136.946C154.482 136.485 153.851 136.023 153.851 135.902C153.851 135.659 165.548 128.646 165.961 128.646C166.252 128.646 166.858 128.986 173.022 132.772C174.818 133.888 177.317 135.393 178.555 136.145L180.812 137.504L183.7 142.964C185.859 146.992 186.878 148.666 187.606 149.322C188.65 150.268 191.052 151.894 194.741 154.175C197.871 156.092 202.87 159.125 207.918 162.207C209.083 162.935 211.024 164.124 212.213 164.852C213.426 165.58 214.81 166.43 215.319 166.721C215.804 167.036 216.678 167.643 217.212 168.104C217.77 168.565 218.474 168.929 218.789 168.929C219.59 168.929 220.585 167.91 220.585 167.109C220.585 166.333 219.59 165.289 218.862 165.289C218.571 165.289 212.795 161.916 206.049 157.791C199.303 153.69 193.236 150.001 192.557 149.637C189.475 147.89 189.621 148.06 186.248 141.75C184.112 137.746 182.85 135.684 182.365 135.32C181.977 135.004 180.157 133.864 178.361 132.772C176.565 131.655 174.114 130.151 172.901 129.423C171.712 128.695 170.304 127.846 169.819 127.579C169.309 127.287 168.945 126.972 168.97 126.826C169.067 126.584 176.662 121.9 178.118 121.221C178.579 121.002 179.453 120.469 180.06 120.056C182.341 118.454 187.582 115.494 187.873 115.639C188.043 115.712 188.844 116.198 189.645 116.707C190.446 117.217 195.445 120.274 200.735 123.526L210.369 129.423L216.994 129.229L223.618 129.059L225.802 130.466C227.719 131.704 233.349 135.198 236.601 137.14C242.182 140.489 244.366 141.945 245.119 142.745C245.798 143.449 246.186 143.692 246.769 143.692C247.764 143.692 248.492 142.939 248.492 141.896C248.492 140.974 248.201 140.683 246.453 139.809C245.774 139.469 243.736 138.28 241.94 137.164C237.572 134.47 234.563 132.602 233.107 131.753C232.451 131.364 230.995 130.442 229.831 129.69C228.69 128.938 226.846 127.821 225.73 127.239L223.691 126.171L219.906 126.317C217.819 126.39 214.955 126.487 213.548 126.511L211 126.535L200.759 120.25C195.105 116.804 190.494 113.917 190.494 113.844C190.494 113.771 192.727 112.388 195.445 110.738L200.419 107.753L202.191 108.893C203.161 109.524 205.661 111.077 207.724 112.339L211.485 114.645L220.27 114.378L229.054 114.111L234.466 117.411L239.853 120.711L244.755 120.566L249.657 120.42L252.302 121.997C253.733 122.871 255.238 123.89 255.602 124.278C256.524 125.273 257.349 125.443 258.15 124.837C259.388 123.914 258.927 121.609 257.519 121.609C257.276 121.609 255.602 120.735 253.831 119.643L250.579 117.678L245.458 117.751L240.362 117.823L238.421 116.61C234.223 113.941 232.063 112.63 230.777 111.999L229.442 111.344L220.949 111.587L212.456 111.854L211.485 111.32C210.417 110.713 204.205 106.928 203.525 106.442C203.161 106.2 203.55 105.884 206.68 104.016C217.188 97.7307 217.26 97.6822 217.479 96.4931C217.697 95.2798 217.722 92.4163 217.527 91.9067C217.455 91.6883 216.435 90.9603 215.271 90.2808C210.15 87.2475 209.204 86.6894 207.675 85.84C206.753 85.3547 206.025 84.8936 206.025 84.8451C206.025 84.7966 207.36 83.9715 209.01 83.0251C210.636 82.0544 212.407 80.9867 212.917 80.647L213.887 80.0403L225.535 80.4528C241.139 80.9867 241.382 80.9867 242.425 80.283C242.886 79.9675 245.507 78.3659 248.249 76.7158C250.991 75.0656 254.097 73.1486 255.165 72.4691C256.233 71.7896 257.495 71.1344 257.956 71.0616C259.096 70.819 259.655 70.2366 259.655 69.2659C259.655 67.5672 257.81 66.8878 256.548 68.1496C256.015 68.6835 245.677 75.0899 241.309 77.5894L240.338 78.1718L230.631 77.8078C225.317 77.6136 219.129 77.4438 216.921 77.4438H212.868L208.185 80.2344C205.588 81.7632 203.307 83.0251 203.113 83.0251C202.919 83.0008 201.997 82.5398 201.05 81.9574L199.352 80.9139L199.279 75.915L199.23 70.916L200.128 70.3336C201.948 69.1688 208.816 65.1406 209.252 64.995C209.641 64.8494 218.255 65.092 225.366 65.4318L228.059 65.5531L234.83 61.4763C241.721 57.3025 254.583 49.4886 258.611 47.0377C259.849 46.2854 261.596 45.1691 262.494 44.5625C263.44 43.9558 264.411 43.4705 264.799 43.4705C265.454 43.4705 266.449 42.5241 266.449 41.8689C266.449 39.9518 263.78 39.2238 263.003 40.9225C262.858 41.2622 262.664 41.5291 262.591 41.5291C262.3 41.5291 257.713 44.2713 240.12 54.9971C237.329 56.6958 233.665 58.9041 231.99 59.9232C230.316 60.9182 228.666 61.9616 228.278 62.2043C227.647 62.6654 227.355 62.6654 218.086 62.3742C212.844 62.2043 208.403 62.1315 208.209 62.2286C208.015 62.3256 205.928 63.539 203.598 64.9464L199.352 67.4944L199.23 65.9171C199.157 65.0678 199.012 64.267 198.866 64.1214C198.745 64 197.143 63.0051 195.348 61.9131C193.552 60.8211 192.047 59.8504 191.999 59.7534C191.975 59.6563 192.678 59.171 193.576 58.6371C194.498 58.1032 195.76 57.3025 196.415 56.8657L197.604 56.0891L203.574 56.2347L209.544 56.4046L214.033 53.6625C216.508 52.1579 219.517 50.3137 220.706 49.5856C221.92 48.8577 223.885 47.6443 225.074 46.9163C226.288 46.1883 228.132 45.0235 229.2 44.3198C230.267 43.6403 231.432 42.9851 231.821 42.8881C234.126 42.3299 233.907 39.1995 231.554 39.3937C230.85 39.4422 230.559 39.6363 230.122 40.2915C229.782 40.8011 228.884 41.4806 227.914 42.0145C227.016 42.5241 223.449 44.6353 219.978 46.7465C216.508 48.8577 212.528 51.2843 211.145 52.1094L208.622 53.6382L203.21 53.4926C196.804 53.3227 197.095 53.2499 192.266 56.1619C188.699 58.2974 189.232 58.2488 186.563 56.623C185.786 56.1619 185.156 55.7009 185.156 55.6038C185.156 55.5067 186.539 54.6088 188.262 53.5654C189.96 52.5462 192.387 51.0659 193.649 50.2651C194.911 49.4886 196.682 48.3966 197.556 47.8627C198.429 47.3289 199.279 46.7465 199.4 46.5766C199.546 46.4067 199.764 44.7081 199.861 42.8153L200.031 39.3937L202.482 37.8649C207.19 34.9771 209.107 33.8123 214.397 30.6091C217.333 28.8377 220.658 26.8235 221.798 26.1198C222.939 25.4161 225.997 23.5718 228.593 21.9945C231.19 20.4171 233.665 18.9126 234.053 18.6214C234.466 18.3302 235.242 17.9419 235.8 17.7963C237.329 17.3353 237.814 15.9763 236.892 14.8115C236.164 13.9379 234.999 14.0835 234.077 15.127C233.665 15.5881 232.573 16.4131 231.626 16.947C230.704 17.4809 228.132 19.0097 225.924 20.3443C218.644 24.7851 210.854 29.5171 204.448 33.3755C200.977 35.4867 197.944 37.4038 197.677 37.6465C197.313 38.0105 197.216 38.6171 197.071 41.5291L196.925 44.9993L194.862 46.2611C181.079 54.6574 182.219 54.0265 181.54 53.6139C176.347 50.5563 164.626 43.3977 164.577 43.2521C164.529 43.1307 164.917 42.791 165.427 42.4998C165.936 42.1843 167.271 41.3835 168.411 40.6798C169.552 39.9761 172.828 37.9862 175.716 36.239L180.933 33.0601L186.15 33.2785C189.014 33.3998 191.829 33.4969 192.436 33.5211C193.431 33.5211 194.086 33.2057 198.866 30.2937C201.803 28.4979 207.044 25.319 210.514 23.2078C213.984 21.0966 217.43 18.9611 218.207 18.4515C218.959 17.9177 219.76 17.5051 219.954 17.5051C220.682 17.5051 221.628 16.4131 221.628 15.5638C221.628 13.7195 219.129 13.1857 218.28 14.8601C218.061 15.2726 217.212 15.9521 216.144 16.5587C215.198 17.1169 211.946 19.0825 208.937 20.9025C205.928 22.7225 201.099 25.683 198.187 27.4302L192.872 30.6577L186.636 30.4878C180.933 30.3179 180.326 30.3422 179.55 30.7305C178.749 31.1673 175.57 33.0601 166.276 38.7142L161.593 41.5777L158.438 39.7091C156.715 38.6657 155.259 37.7435 155.186 37.6707C155.138 37.5737 156.982 36.3603 159.263 34.9771C168.169 29.6385 171.493 27.4545 171.76 26.8478C171.93 26.5081 172.076 25.2219 172.076 23.9843C172.1 22.7467 172.173 21.0481 172.27 20.1987L172.415 18.6699L175.934 16.5345C177.876 15.3697 181.758 13.0401 184.549 11.3171C188.917 8.64781 190.227 7.87128 192.678 6.34247C192.872 6.22115 193.333 6.07555 193.722 5.97847C194.644 5.78433 195.348 5.03207 195.348 4.207C195.348 2.53261 193.236 1.82887 192.144 3.13927C191.829 3.52754 190.907 4.207 190.13 4.69234C189.329 5.15341 187.412 6.29395 185.884 7.24034C184.355 8.18674 180.254 10.6619 176.784 12.7731C173.313 14.8843 170.231 16.8257 169.94 17.0926C169.431 17.5537 169.382 17.7963 169.382 20.5385C169.382 24.8822 169.237 25.5859 168.314 26.1198C167.902 26.3625 166.689 27.1147 165.621 27.8185C164.553 28.4979 161.107 30.6091 157.952 32.5019L152.226 35.9721L143.878 30.9489C139.291 28.2067 135.36 25.8043 135.142 25.6102C134.948 25.4161 134.559 25.2705 134.317 25.2705C134.05 25.2705 132.351 26.1441 130.531 27.2118L127.207 29.1531L124.586 27.5515C118.543 23.8387 117.524 23.2563 116.165 22.5526L114.709 21.8246L114.879 16.9955L115.025 12.1422L114.442 11.6083C114.127 11.3171 112.841 10.4678 111.579 9.71553C110.341 8.96327 107.842 7.45874 106.046 6.34247C104.25 5.22621 101.751 3.72168 100.489 2.96941C99.2512 2.21715 98.1592 1.44061 98.0864 1.24648C97.6253 -0.0153961 95.8538 -0.427917 95.0045 0.518478ZM139.243 31.4342C142.009 33.0843 152.25 39.2238 161.981 45.0963C171.736 50.9689 183.19 57.8606 187.461 60.4328C191.732 63.0051 195.323 65.1891 195.445 65.3104C195.542 65.4075 193.795 66.5966 191.562 67.9312C189.305 69.2659 182.656 73.1728 176.784 76.643C170.911 80.1131 159.942 86.5923 152.42 91.0331C144.897 95.4739 138.539 99.1624 138.321 99.211C138.078 99.2838 135.093 97.6336 130.895 95.0856C122.766 90.1838 99.3968 76.1334 85.9772 68.0768C80.8812 65.0192 76.7316 62.447 76.7559 62.3499C76.8044 62.18 80.0562 60.2144 89.1805 54.8758C90.2482 54.2449 93.5727 52.2793 96.5818 50.5078C99.5909 48.7363 105.099 45.4846 108.837 43.2763C112.574 41.0681 116.772 38.5929 118.179 37.7678C126.818 32.6961 132.812 29.1289 133.273 28.7891C133.589 28.595 133.904 28.4251 134.025 28.4251C134.147 28.4251 136.476 29.7841 139.243 31.4342ZM92.0925 75.0171C99.7122 79.5792 108.327 84.7723 111.263 86.5438C114.2 88.3152 120.921 92.3678 126.187 95.5224C131.453 98.7014 136.064 101.492 136.452 101.759L137.107 102.22V113.14C137.107 119.134 137.035 124.036 136.962 124.036C136.84 124.036 134.268 122.507 107.987 106.855C89.6901 95.935 78.1876 89.0918 76.3919 88.0483L74.7417 87.0776V75.8422V64.5825L76.5132 65.6502C77.4596 66.2083 84.497 70.4307 92.0925 75.0171ZM196.512 79.652L196.44 90.839L168.242 107.801L140.019 124.739V113.14V101.516L141.669 100.594C142.567 100.085 144.606 98.8955 146.207 97.9491C147.809 96.9784 151.036 95.0856 153.366 93.7024C155.696 92.3435 159.7 89.9896 162.223 88.4851C164.771 86.9806 168.751 84.6267 171.081 83.2678C173.41 81.8846 176.468 80.0888 177.876 79.2395C187.752 73.3912 196.197 68.4651 196.367 68.4651C196.488 68.4651 196.537 73.5126 196.512 79.652ZM203.137 86.4467C205.151 87.66 207.311 88.9219 207.942 89.2616C211.097 91.0088 213.499 92.5134 214.057 93.1443C214.421 93.5083 214.785 94.212 214.858 94.7216C215.004 95.4982 214.931 95.668 214.348 96.0806C213.523 96.6387 148.294 135.829 144.509 138.038C141.427 139.833 140.772 140.052 138.296 140.222C135.918 140.391 134.462 139.979 131.647 138.28C130.434 137.552 123.736 133.548 116.723 129.374C109.71 125.201 100.659 119.789 96.5818 117.362C92.505 114.936 83.1866 109.354 75.8337 104.986C68.5052 100.618 62.2443 96.8086 61.9531 96.5416C61.6377 96.2747 61.395 95.9107 61.395 95.7651C61.395 95.1342 65.8601 91.4699 69.403 89.1888L71.7084 87.6843L71.7812 90.1838L71.854 92.6832L74.0865 94.1392C75.3241 94.94 80.857 98.3131 86.3898 101.638C91.9226 104.962 103.498 111.927 112.113 117.095C120.727 122.289 130.021 127.87 132.764 129.52C138.66 133.063 138.733 133.087 141.572 131.583C142.543 131.049 143.951 130.248 144.654 129.787C145.382 129.326 148.367 127.53 151.303 125.807C154.24 124.084 163.097 118.843 170.959 114.208C178.846 109.549 187.898 104.21 191.077 102.341C195.979 99.4536 197.071 98.7014 198.114 97.5123L199.352 96.1048L199.255 90.1838C199.206 86.9078 199.23 84.2384 199.327 84.2384C199.4 84.2384 201.123 85.2334 203.137 86.4467ZM78.1391 91.3243C79.134 91.931 84.0602 94.843 89.0591 97.8278C94.0581 100.813 103.522 106.418 110.05 110.325C116.602 114.232 125.338 119.425 129.463 121.9L136.986 126.365L137.059 127.627L137.132 128.889L120.072 118.624C110.681 112.97 96.6546 104.55 88.8893 99.8662L74.766 91.3971L74.7417 90.3536V89.2859L75.5425 89.7712C75.9551 90.0382 77.1441 90.7419 78.1391 91.3243ZM196.512 94.576L196.44 95.935L193.042 97.9248C189.305 100.133 186.806 101.613 173.872 109.233C169.067 112.072 164.262 114.911 163.194 115.542C162.126 116.173 157.928 118.649 153.851 121.051C146.013 125.686 145.188 126.147 142.033 127.846L140.019 128.889V127.943V126.972L156.594 117.047C165.694 111.563 178.337 103.967 184.67 100.157C191.004 96.3475 196.294 93.2171 196.391 93.2171C196.488 93.2171 196.561 93.8238 196.512 94.576Z" fill="#F54E26"/>
<path d="M130.797 37.234C128.589 38.593 126.454 39.9276 126.065 40.2188C125.653 40.4858 118.615 44.7567 110.413 49.6828C94.0574 59.4865 92.0432 60.7727 91.8248 61.622C91.4851 62.9081 90.9512 62.5441 112.961 75.6724C118.567 78.9969 126.672 83.826 130.943 86.374C136.403 89.65 138.951 91.0332 139.46 91.0332C139.994 91.0332 145.891 87.6116 160.961 78.5601C172.366 71.7169 182.097 65.7959 182.558 65.4561C183.577 64.6796 183.796 64.0244 183.262 63.3692C182.68 62.714 135.723 34.7346 135.214 34.7588C134.995 34.7588 133.006 35.8994 130.797 37.234ZM139.679 39.3938C163.388 53.5412 172.148 58.7585 175.933 61.0153C178.409 62.4713 180.568 63.806 180.738 63.9759C180.981 64.1943 177.487 66.4025 163.897 74.5561C154.482 80.2103 146.668 84.8695 146.546 84.918C146.425 84.9665 146.328 84.0201 146.328 82.8311C146.328 80.186 146.255 80.0889 143.343 78.3175C141.814 77.3711 141.305 76.9585 141.523 76.7887C141.814 76.5703 144.799 74.7988 159.723 66.0143C162.757 64.2185 165.305 62.5927 165.353 62.3985C165.426 62.2044 165.523 60.8455 165.547 59.4137C165.62 56.3076 165.911 56.6959 161.737 54.1721C159.456 52.7889 159.117 52.6433 158.583 52.886C158 53.153 157.976 53.1287 157.976 52.3521C157.976 51.3815 157.83 51.2359 154.457 49.1732L151.788 47.5474L149.143 47.9599C147.663 48.1783 144.751 48.785 142.639 49.3188C140.504 49.8284 138.732 50.2652 138.66 50.2652C138.611 50.2652 138.951 49.6343 139.46 48.8577C140.358 47.4988 140.383 47.426 140.383 45.1692C140.383 41.8932 140.358 41.8204 138.053 40.4372C136.136 39.321 136.015 39.2724 135.432 39.6364C135.092 39.8306 129.341 43.2036 122.668 47.1591C115.995 51.0903 108.787 55.3369 106.652 56.5745C101.434 59.6079 101.677 59.3652 101.677 61.8161C101.677 62.9324 101.774 64.0972 101.896 64.4127C102.138 65.0436 105.997 67.5916 107.064 67.8585C107.477 67.9556 109.224 67.0335 114.175 64.0972L120.727 60.2388L120.848 62.2772C121.042 65.2135 121.066 65.2377 124.464 64.4855C125.968 64.17 127.109 64.0001 126.987 64.0972C126.89 64.1943 124.9 65.3833 122.595 66.7423C120.314 68.1012 118.251 69.4601 118.057 69.7756C117.766 70.2124 117.693 70.8919 117.742 72.5905L117.815 74.8473L129.026 81.6663C135.19 85.4276 140.237 88.558 140.261 88.6551C140.261 88.7521 140.043 88.8735 139.776 88.9705C139.412 89.0919 136.597 87.5145 129.05 83.0009C123.396 79.6521 113.398 73.6825 106.846 69.7513C100.27 65.8444 94.7126 62.5684 94.5184 62.4956C93.4992 62.1073 93.7662 61.9132 112.961 50.3866C121.649 45.1692 130.166 40.0004 131.889 38.9084C133.636 37.8164 135.214 36.9671 135.432 37.0156C135.651 37.0642 137.568 38.1319 139.679 39.3938ZM136.961 42.0388C137.446 42.33 137.835 42.6455 137.835 42.7668C137.835 42.8882 137.349 43.7375 136.767 44.6354C134.437 48.2026 131.283 53.25 131.283 53.4441C131.283 53.881 132.108 54.4148 132.593 54.2935C134.462 53.8324 150.696 50.2652 150.939 50.2652C151.327 50.2652 154.821 52.2551 154.821 52.4735C154.821 52.5463 154.093 53.0559 153.195 53.5897C152.273 54.1236 145.163 58.3945 137.374 63.078C129.584 67.7857 123.129 71.6199 122.983 71.6199C122.644 71.6199 120.896 70.6977 120.727 70.4308C120.654 70.2852 122.741 68.902 125.386 67.3489C128.031 65.7716 130.482 64.2671 130.846 64.0001C131.186 63.7089 133.564 62.2529 136.112 60.7241C140.504 58.0791 140.722 57.9092 140.334 57.4967C140.116 57.254 139.703 57.0599 139.436 57.0599C139.145 57.0599 135.335 57.8607 130.967 58.8313C124.391 60.3116 123.008 60.5543 123.105 60.2388C123.153 60.0204 123.808 58.9041 124.536 57.7879C127.618 53.0316 128.613 51.3815 128.613 51.1388C128.613 50.9932 128.419 50.7505 128.176 50.5807C127.788 50.3623 126.551 51.0175 119.853 55.0457C115.533 57.6665 110.947 60.4329 109.661 61.1852L107.307 62.5927L105.827 61.7433C105.026 61.3065 104.298 60.8212 104.225 60.6999C104.152 60.5785 108.642 57.7636 114.223 54.4391C126.842 46.9164 135.966 41.5292 136.039 41.5292C136.087 41.5292 136.5 41.7476 136.961 42.0388ZM137.034 48.9305C136.233 50.2652 135.408 51.6484 135.19 52.0124C134.947 52.4492 134.486 52.7404 133.831 52.9103C133.321 53.0316 132.836 53.1044 132.787 53.0559C132.739 53.0074 133.928 51.0175 135.456 48.6394L138.199 44.3199L138.368 45.4119C138.514 46.4311 138.417 46.6495 137.034 48.9305ZM125.75 53.9295L124.779 55.434L116.334 60.4815L107.865 65.5047L107.792 64.6553C107.744 64.17 107.841 63.6604 107.986 63.5148C108.35 63.1508 126.526 52.2308 126.623 52.3279C126.672 52.3764 126.284 53.0802 125.75 53.9295ZM155.549 54.342V55.2641L151.764 57.5452C149.677 58.8071 142.567 63.1508 135.942 67.1791L123.881 74.5076L123.808 73.634C123.76 73.1244 123.857 72.6391 124.051 72.4449C124.221 72.2993 130.967 68.174 139.048 63.3207C147.129 58.4431 154.118 54.2207 154.579 53.9538C155.04 53.6625 155.452 53.4199 155.501 53.4199C155.525 53.4199 155.549 53.8324 155.549 54.342ZM161.179 56.1377C162.878 57.1569 162.902 57.1569 162.344 57.5209C162.029 57.7393 155.598 61.622 148.051 66.1841C140.407 70.7705 134.292 74.6289 134.243 74.8231C134.195 75.1143 135.505 76.0121 138.732 77.9292C141.232 79.4337 143.319 80.6713 143.367 80.7199C143.392 80.7441 142.858 81.1081 142.203 81.5207C141.062 82.2487 140.916 82.2729 140.31 81.9575C137.859 80.6956 128.007 74.726 128.007 74.5076C128.007 74.362 134.947 70.0425 143.416 64.9223C151.885 59.7777 158.922 55.4583 159.068 55.3369C159.359 55.0457 159.262 54.9972 161.179 56.1377ZM163.509 60.7969C162.514 61.5007 138.247 76.2305 138.077 76.2305C137.932 76.2305 137.349 75.9151 136.743 75.5511L135.675 74.8716L145.794 68.7807C151.351 65.4076 157.612 61.6463 159.675 60.4087L163.436 58.1519L163.509 59.438C163.557 60.166 163.557 60.7727 163.509 60.7969ZM136.597 59.1953C132.811 61.5735 132.787 61.5977 128.128 62.6169C125.653 63.1751 123.493 63.6119 123.323 63.6119C123.153 63.6119 123.032 63.2479 123.032 62.6655V61.7191L125.289 61.2095C126.502 60.9183 129.657 60.2145 132.253 59.6321C134.85 59.0255 137.155 58.5401 137.325 58.5401C137.519 58.5159 137.204 58.8313 136.597 59.1953ZM105.317 62.6169C106.312 63.2236 106.409 63.3692 106.482 64.3156L106.555 65.3591L105.269 64.6311C104.128 63.9516 103.958 63.7817 103.837 62.9081C103.691 61.7433 103.813 61.6948 105.317 62.6169ZM121.357 71.9839C122.741 72.8332 122.765 72.8575 122.619 73.7553C122.547 74.2407 122.449 74.7017 122.401 74.726C122.377 74.7745 121.721 74.4591 120.993 74.0223C119.683 73.2457 119.635 73.1729 119.635 72.178C119.635 71.5956 119.707 71.1345 119.78 71.1345C119.877 71.1345 120.581 71.5228 121.357 71.9839ZM134.389 79.7492L140.504 83.3407V84.4084C140.504 84.9665 140.455 85.4519 140.407 85.4519C140.358 85.4519 137.98 84.0687 135.141 82.37C132.278 80.6956 129.22 78.8756 128.322 78.3417C126.672 77.3711 126.672 77.3711 126.672 76.3033V75.2113L127.473 75.6724C127.885 75.9393 131.016 77.7593 134.389 79.7492ZM144.047 84.3599C143.95 84.6025 141.863 85.9372 141.572 85.9372C141.523 85.9372 141.475 85.3305 141.475 84.6025V83.2679L142.761 82.4428L144.023 81.6177L144.095 82.8311C144.144 83.5105 144.12 84.19 144.047 84.3599Z" fill="#F54E26"/>
</svg>
