<svg width="408" height="353" viewBox="0 0 408 353" fill="none" xmlns="http://www.w3.org/2000/svg">
<path d="M197.962 293.088C197.537 292.212 196.85 291.583 196.456 290.64C196.205 290.04 195.953 289.44 195.702 288.84C195.248 287.754 194.304 286.317 194.513 285.134C194.791 283.559 195.639 283.305 196.773 282.315C198.024 281.221 199.377 280.144 200.437 278.854C202.368 276.501 199.641 272.348 198.668 270.023C198.172 268.838 197.868 267.765 198.942 266.87C199.846 266.116 200.836 264.916 201.565 263.992C202.65 262.614 201.789 259.737 201.475 258.18C201.133 256.484 200.29 255.08 201.353 253.412C202.249 252.006 204.174 251.355 205.152 250.082C206.375 248.491 204.71 245.374 203.859 243.89C202.981 242.359 201.706 240.333 201.57 238.516C201.414 236.431 203.584 234.644 205.082 233.54C207.04 232.097 207.154 231.332 205.852 229.175C205.568 228.705 204.451 227.064 203.896 226.995C203.302 226.922 202.966 225.821 202.622 225.36" stroke="#FABF29" stroke-width="3.432" stroke-linecap="round"/>
<path d="M-4.52476 407.616C-4.38869 406.455 -4.67649 405.375 -4.46632 404.167C-4.33261 403.398 -4.19891 402.629 -4.0652 401.86C-3.82314 400.468 -3.84951 398.406 -2.87396 397.345C-1.57502 395.932 -0.553975 396.222 1.23261 395.953C3.20428 395.656 5.26883 395.441 7.17382 394.82C10.6469 393.689 10.5727 387.727 11.0908 384.748C11.355 383.229 11.7401 381.947 13.404 381.736C14.8057 381.558 16.5824 380.984 17.9161 380.52C19.9038 379.828 20.8912 376.362 21.5798 374.585C22.3295 372.649 22.3846 370.684 24.5371 369.684C26.352 368.841 28.7189 369.427 30.5304 368.771C32.7943 367.953 33.125 363.725 33.2232 361.674C33.3244 359.56 33.3439 356.686 34.3802 354.762C35.5696 352.552 38.9184 352.146 41.1464 351.998C44.0581 351.804 44.6688 351.103 44.7447 348.081C44.7613 347.422 44.6926 345.042 44.1749 344.613C43.6221 344.156 43.9941 342.825 43.9439 342.137" stroke="#FABF29" stroke-width="4.11841" stroke-linecap="round"/>
<path d="M161.532 444.279C161.037 443.114 160.186 442.253 159.735 441.003C159.447 440.208 159.16 439.413 158.873 438.617C158.353 437.178 157.22 435.252 157.568 433.729C158.031 431.703 159.148 431.428 160.684 430.214C162.379 428.876 164.206 427.564 165.665 425.958C168.325 423.028 165.053 417.459 163.94 414.377C163.372 412.806 163.046 411.394 164.498 410.301C165.721 409.381 167.085 407.887 168.09 406.734C169.589 405.015 168.656 401.224 168.349 399.182C168.014 396.958 167.011 395.08 168.499 392.983C169.753 391.215 172.295 390.495 173.647 388.905C175.337 386.919 173.377 382.764 172.368 380.782C171.327 378.738 169.803 376.024 169.744 373.657C169.676 370.94 172.608 368.759 174.625 367.422C177.26 365.676 177.458 364.689 175.906 361.805C175.568 361.176 174.224 358.973 173.507 358.848C172.741 358.715 172.377 357.263 171.96 356.642" stroke="#FABF29" stroke-width="4.46161" stroke-linecap="round"/>
<path d="M100.101 235.021C100.636 234.207 100.825 233.295 101.433 232.474C101.819 231.951 102.206 231.428 102.593 230.905C103.293 229.958 104.043 228.412 105.166 227.986C106.662 227.418 107.314 228.016 108.745 228.482C110.325 228.997 111.944 229.608 113.594 229.857C116.604 230.311 118.775 225.841 120.273 223.815C121.037 222.782 121.803 221.971 123.121 222.435C124.232 222.826 125.77 223.062 126.937 223.214C128.676 223.441 130.706 221.227 131.882 220.16C133.164 218.998 133.938 217.555 135.915 217.613C137.582 217.663 139.127 218.983 140.721 219.171C142.713 219.406 144.538 216.38 145.377 214.889C146.242 213.351 147.329 211.218 148.82 210.171C150.531 208.969 153.178 209.917 154.893 210.638C157.135 211.581 157.851 211.287 159.036 209.064C159.295 208.579 160.132 206.78 159.906 206.268C159.665 205.72 160.439 204.868 160.659 204.336" stroke="#FABF29" stroke-width="3.432" stroke-linecap="round"/>
<path d="M-89.4749 256.743C-88.6488 255.658 -88.2965 254.403 -87.3676 253.314C-86.7766 252.621 -86.1857 251.929 -85.5947 251.236C-84.5248 249.982 -83.3263 247.895 -81.7165 247.409C-79.573 246.762 -78.7203 247.661 -76.7664 248.451C-74.61 249.324 -72.4092 250.334 -70.1278 250.843C-65.9686 251.77 -62.5018 245.739 -60.2118 243.055C-59.0441 241.687 -57.8964 240.629 -56.1 241.405C-54.5867 242.059 -52.4622 242.538 -50.8472 242.864C-48.4402 243.35 -45.39 240.456 -43.6428 239.08C-41.7401 237.582 -40.518 235.642 -37.7626 235.917C-35.4394 236.148 -33.4104 238.142 -31.2022 238.56C-28.4426 239.082 -25.5997 235.034 -24.2829 233.033C-22.925 230.969 -21.1989 228.096 -19.015 226.779C-16.5085 225.267 -12.9044 226.848 -10.5791 228.022C-7.54017 229.557 -6.51097 229.216 -4.63966 226.227C-4.23145 225.575 -2.88654 223.144 -3.15186 222.406C-3.43515 221.618 -2.27119 220.503 -1.91268 219.782" stroke="#FABF29" stroke-width="4.80479" stroke-linecap="round"/>
<path d="M320.694 25.6895C319.094 25.9726 316.272 27.0016 314.587 27.9291L312.817 28.8839L308.738 29.2353C304.337 29.6094 302.618 30.0498 300.203 31.3481C299.182 31.8882 298.968 31.9246 298.137 31.7704C297.612 31.6796 296.879 31.6888 296.412 31.8068C295.415 32.0687 294.429 33.1171 294.481 33.8584C294.5 34.1337 294.435 34.4362 294.353 34.5058C294.25 34.577 292.938 34.9674 291.434 35.3926C287.746 36.3975 281.535 38.7082 278.086 40.356C276.538 41.0823 273.473 42.6604 271.29 43.8784L267.294 46.0542L266.649 45.4613C265.334 44.2558 263.554 44.1259 261.935 45.07L260.981 45.648L260.452 45.1746C258.768 43.6333 256.39 42.971 252.786 43.0122C245.167 43.0811 238.427 46.7912 234.21 53.239C232.16 56.3843 230.889 60.4749 231.092 63.3975C231.191 64.8165 231.845 67.3881 232.396 68.4772C232.894 69.4423 232.927 69.9082 232.542 70.2759C232.38 70.4362 232.156 70.9415 232.08 71.3939C231.82 72.6253 232.283 73.6993 233.379 74.5584C233.882 74.9486 234.297 75.3237 234.302 75.4084C234.307 75.472 233.872 76.056 233.333 76.6899C231.418 78.9743 229.591 81.2739 228.069 83.2967C227.22 84.4419 226.486 85.3875 226.422 85.392C226.379 85.395 226.112 85.2862 225.842 85.1349C225.168 84.7568 222.433 84.2473 220.308 84.1205L218.571 83.9876L218.847 82.9891C219.002 82.4248 219.313 81.6155 219.543 81.1949C220.041 80.2872 220.009 78.8849 219.496 78.0272C219.082 77.3541 217.574 76.1622 216.684 75.7992C215.127 75.1429 213.55 75.4456 212.718 76.5258C212.498 76.7754 212.207 76.9449 212.052 76.8919C211.436 76.7226 210.135 77.8997 208.395 80.2144C207.428 81.517 206.258 83.0253 205.822 83.5881L205.028 84.6017L203.744 84.4582C201.894 84.2481 200.134 84.4147 195.977 85.1973C187.384 86.7821 179.058 89.4334 172.567 92.679C160.314 98.7995 148.289 110.054 141.517 121.705C138.835 126.299 137.828 129.222 138.006 131.785C138.131 133.585 138.615 134.338 140.058 134.896C141.835 135.601 143.539 134.949 145.763 132.77C150.252 128.367 154.221 125.491 159.355 122.916C166.095 119.525 173.213 117.214 179.121 116.457L181.434 116.167L181.377 117.213C181.315 118.495 181.837 119.479 182.96 120.103C184.579 121.031 186.514 120.278 188.325 118.064L189.441 116.709L190.049 117.07C190.408 117.258 191.24 117.731 191.935 118.108C194.991 119.808 199.471 123.684 202.046 126.865L203.25 128.334L202.875 129.467C202.255 131.426 201.47 134.419 200.892 136.992C200.387 139.347 200.331 139.479 199.738 139.649C198.89 139.879 197.984 140.517 197.515 141.231C196.951 142.122 197.008 144.183 197.652 145.371L198.149 146.315L197.393 146.624C196.258 147.066 194.683 148.028 194.243 148.527C194.022 148.777 193.861 149.257 193.885 149.596C193.917 150.061 193.801 150.261 193.3 150.509C192.612 150.856 192.28 151.369 192.324 152.004C192.339 152.216 191.947 152.797 191.44 153.258C190.062 154.568 190.171 154.901 192.709 156.914C195.449 159.062 200.547 163.427 202.993 165.681C204.793 167.342 205.59 167.924 206.042 167.914C206.15 167.906 206.595 167.47 207.012 166.951C207.709 166.094 207.875 165.997 208.631 166.007C209.429 165.994 209.512 165.945 210.011 165.037C210.415 164.328 210.658 164.098 211.027 164.115C211.656 164.155 212.357 163.063 212.857 161.24L213.253 159.786L214.521 160.314C215.856 160.88 217.435 160.917 218.222 160.436C218.45 160.292 218.66 160.214 218.706 160.253C218.843 160.35 213.82 167.025 209.038 173.108C201.518 182.683 201.516 182.662 202.395 183.494C203.458 184.504 204.774 183.539 211.876 176.654C219.606 169.171 221.762 166.933 226.712 161.391L231.438 156.057L232.253 156.595C232.976 157.055 234.66 158.596 235.851 159.896C236.835 160.997 238.503 163.561 238.297 163.703C237.928 163.984 237.341 165.792 237.394 166.555C237.47 167.656 238.269 168.898 239.335 169.631L240.31 170.286L240.328 172.413C240.356 176.242 239.453 180.966 237.88 185.057C236.907 187.531 234.48 192.384 233.002 194.744C231.506 197.148 228.091 201.155 225.992 202.963C223.487 205.141 223.057 205.788 223.166 207.355C223.239 208.414 224.24 209.45 225.629 209.863C227.637 210.467 230.081 209.592 233.931 206.873C241.837 201.293 247.558 196.293 253.156 190.131C258.692 184.016 262.622 177.779 265.525 170.445C268.505 162.978 269.722 156.252 269.626 148.023L269.575 143.557L272.128 141.142C275.875 137.558 276.373 136.949 276.32 136.186C276.283 135.657 276.397 135.436 276.874 135.147C277.227 134.952 277.751 134.404 278.044 133.958C279.003 132.528 278.477 130.245 276.815 128.703C276.19 128.108 274.811 127.524 274.165 127.549C273.692 127.582 273.69 127.561 274.061 127.301C274.287 127.136 276.464 125.514 278.884 123.662C281.305 121.831 283.36 120.324 283.446 120.318C283.876 120.288 287.575 116.643 291.348 112.504C298.153 105.065 303.114 98.1389 306.665 91.1208C309.094 86.2888 312.189 78.6007 313.75 73.4042C315.542 67.4891 316.299 63.7752 316.751 58.7846L317.029 55.6365L318.097 55.4548C320.38 55.0597 321.278 53.9962 320.965 51.9752C320.806 50.9223 320.852 50.6636 321.425 49.5804C322.299 47.8588 322.679 46.4912 322.955 43.9392C323.164 41.9665 323.129 41.4582 322.744 39.3359L322.319 36.9609L323.321 34.5918C323.878 33.2757 324.48 31.3816 324.691 30.3665C325.249 27.5179 324.814 26.2291 323.133 25.6666C322.425 25.4186 322.165 25.4156 320.694 25.6895ZM322.403 28.5273C322.466 29.438 321.956 31.4106 321.161 33.3395L320.423 35.1579L317.715 32.8588C316.222 31.5807 315.044 30.472 315.081 30.3843C315.35 29.8971 320.156 28.1962 321.679 28.0463C322.279 27.9827 322.369 28.0402 322.403 28.5273ZM315.868 34.5639C317.8 36.258 319.553 37.8583 319.765 38.12C320.355 38.8445 320.665 42.0576 320.374 44.3978C320.188 46.071 319.383 48.788 319.132 48.5929C319.085 48.5323 318.635 47.9681 318.135 47.3011C314.88 43.04 307.647 36.8461 302.935 34.3052C302.216 33.9089 301.607 33.5263 301.602 33.4627C301.569 33.2948 303.569 32.5579 305.056 32.1977C307.03 31.6967 307.865 31.5953 310.171 31.5179L312.326 31.4511L315.868 34.5639ZM299.129 35.1694C301.581 36.2734 303.495 37.3942 305.861 39.1215C310.912 42.809 315.042 46.9232 317.367 50.5475C318.771 52.7257 318.763 52.9179 317.409 53.0133C316.463 53.08 316.308 53.0271 315.992 52.5173C315.578 51.8442 312.305 47.9462 310.86 46.4094C310.321 45.8089 309.177 44.57 308.334 43.6292C305.409 40.3877 300.718 36.5897 297.739 35.0546C297.291 34.8307 296.904 34.5388 296.896 34.4329C296.877 34.1576 296.833 34.1395 299.129 35.1694ZM295.971 36.9669C297.171 37.4569 299.843 39.2265 302.038 40.9871C304.233 42.7265 311.749 50.8159 313.662 53.4903L314.523 54.6852L314.416 56.5656C314.142 61.0116 313.189 66.5696 312.116 70.0929C308.794 81.032 306.109 87.457 301.874 94.5871C297.488 102.026 290 111.13 284.112 116.228C283.338 116.899 282.319 117.78 281.873 118.194C280.066 119.854 271.85 125.945 267.393 128.941C262.214 132.414 256.452 135.906 250.81 138.942C248.416 140.239 242.213 143.273 242.142 143.193C242.096 143.153 243.07 141.935 244.287 140.488L246.522 137.84L248.739 137.109C271.994 129.574 295.722 107.067 305.977 82.7629C309.815 73.6603 311.34 66.3807 311.033 58.5492C310.859 54.1774 310.746 53.483 310.101 53.5285C309.586 53.5648 309.437 53.9158 308.139 57.9232C305.652 65.6537 301.921 73.1952 296.475 81.5387C289.506 92.2029 279.138 104.32 269.027 113.588C265.33 116.956 258.08 122.958 256.137 124.223C256.034 124.294 256.102 123.714 256.307 122.934C256.648 121.633 256.824 121.365 258.122 120.146C258.893 119.431 259.768 118.348 260.054 117.796C260.338 117.223 261.047 116.236 261.629 115.599C262.371 114.781 262.738 114.159 262.865 113.49C263.327 111.138 261.77 108.928 258.909 107.853C257.824 107.461 257.279 107.393 255.968 107.486C254.571 107.584 254.086 107.746 252.206 108.666C247.112 111.196 240.868 115.829 235.429 121.171C234.318 122.271 231.968 124.82 230.188 126.861C224.512 133.454 221.426 138.46 221.572 140.876C221.604 141.342 221.86 141.92 222.217 142.384C222.547 142.786 222.811 143.172 222.814 143.214C222.823 143.342 219.71 144.54 217.301 145.306C216.098 145.71 214.558 146.244 213.842 146.507L212.579 146.979L209.598 144.487C207.901 143.053 205.853 141.558 204.797 140.973C203.765 140.407 202.925 139.828 202.916 139.701C202.886 139.256 204.023 134.494 204.845 131.712C206.415 126.323 209.425 118.982 212.507 112.976C214.39 109.31 219.366 100.723 221.975 96.6232C225.596 90.9197 227.224 88.5491 230.368 84.369C234.285 79.1979 237.61 75.4519 240.284 73.2203C241.51 72.2187 244.199 69.8797 246.295 68.0294C248.371 66.2017 251.099 63.8173 252.321 62.7522C253.564 61.6856 256.391 59.1665 258.626 57.1361C266.674 49.8649 269.208 47.7922 271.414 46.5938C272.269 46.1505 273.808 45.2971 274.827 44.7358C279.113 42.3905 282.847 40.8078 290.879 37.9644C291.976 37.5891 293.259 37.0943 293.721 36.9127C294.812 36.4527 294.725 36.4376 295.971 36.9669ZM256.899 45.9571C257.677 46.2641 258.619 46.7723 258.965 47.0884L259.632 47.6798L258.033 49.2185C255.221 51.9493 245.199 60.3387 243.951 61.0226C242.93 61.5627 240.399 59.6343 239.752 57.7857C239.457 56.9553 239.346 54.1113 239.535 52.7997C239.668 51.9178 239.236 51.9057 238.518 52.7651C236.447 55.2946 236.288 60.7753 238.163 64.4526L238.587 65.274L238.018 65.7824C237.715 66.0804 237.364 66.318 237.257 66.3255C237.149 66.3331 236.614 66.7114 236.083 67.1531C235.531 67.5964 235.038 67.9717 234.995 67.9747C234.867 67.9838 234.585 67.3439 234.175 66.1171C231.756 58.6474 238.065 49.0513 247.223 46.2562C248.661 45.8143 249.581 45.6856 252.229 45.5628C255.328 45.4081 255.546 45.4353 256.899 45.9571ZM265.126 47.484C265.176 47.5869 264.149 48.6596 262.829 49.8593C261.508 51.0591 259.26 53.1969 257.803 54.619C256.37 56.0608 253.751 58.4589 252.019 59.9642C250.29 61.4908 248.214 63.3184 247.401 64.0568C246.61 64.7936 245.138 65.9828 244.129 66.6924C243.141 67.4004 240.82 69.1177 238.972 70.5036C237.125 71.8895 235.472 72.9637 235.317 72.9108C234.435 72.6537 234.899 70.9397 236.208 69.5705C236.791 68.9548 243.556 63.732 248.158 60.3429C251.673 57.7753 259.112 51.377 261.264 49.0971C262.23 48.0713 263.267 47.1469 263.582 47.0183C264.172 46.8064 264.945 47.0499 265.126 47.484ZM216.415 78.4572C217.137 78.8958 217.614 79.5432 217.441 79.8533C217.327 80.0742 214.641 78.412 214.618 78.0731C214.599 77.7978 215.672 78.0201 216.415 78.4572ZM214.238 80.9943C215.209 81.6069 216.074 82.2482 216.15 82.413C216.327 82.7837 215.661 83.767 213.898 85.7429C212.213 87.6068 210.753 88.6674 207.894 90.1033C206.162 90.9703 205.587 91.394 204.687 92.4363C204.088 93.1383 199.752 98.8071 195.089 105.052C190.404 111.299 186.247 116.742 185.842 117.133C184.954 118.025 183.931 118.225 183.882 117.526C183.832 116.806 184.205 116.269 184.977 115.874C185.561 115.578 185.68 115.42 185.55 115.11C185.444 114.82 185.651 114.38 186.345 113.501C186.862 112.847 192.856 104.933 199.618 95.9435C207.233 85.8722 212.05 79.6588 212.206 79.7329C212.363 79.807 213.265 80.3606 214.238 80.9943ZM202.62 87.8575C202.065 88.5776 197.835 94.2176 193.167 100.399L184.704 111.637L182.115 111.99C176.166 112.771 168.943 114.813 163.6 117.19C157.671 119.821 149.497 125.271 145.888 128.973C144.015 130.914 141.888 132.639 141.351 132.677C139.288 132.822 140.698 127.636 144.291 121.828C150.677 111.482 161.136 101.615 171.753 95.8861C178.81 92.0686 188.249 88.977 197.45 87.4345C198.86 87.2074 200.161 86.9667 200.33 86.9123C200.5 86.879 201.314 86.779 202.108 86.7018L203.589 86.5761L202.62 87.8575ZM223.008 86.9309C224.036 87.1138 224.912 87.2862 224.958 87.3255C225.004 87.3648 223.819 89.2786 222.316 91.5766C215.759 101.658 210.984 110.018 207.817 116.967L206.635 119.54L205.475 118.707C202.449 116.494 197.157 113.994 193.885 113.224C192.896 112.975 192.45 112.772 192.547 112.616C192.623 112.462 193.985 110.621 195.568 108.53C197.149 106.418 200.274 102.282 202.53 99.3136C204.764 96.3468 206.765 93.7371 206.986 93.5086C207.209 93.3014 208.267 92.6735 209.352 92.1287C212.023 90.77 213.73 89.5429 215.382 87.8303L216.792 86.3688L218.961 86.4926C220.176 86.5772 221.982 86.7691 223.008 86.9309ZM254.56 111.16C254.501 112.484 255.105 113.399 256.782 114.536C257.981 115.324 258.192 115.565 258.113 115.975C257.896 117.203 255.816 119.287 254.763 119.361C252.248 119.538 245.681 123.555 242.683 126.725C242.001 127.475 241.862 128.272 242.367 128.705C242.941 129.197 243.803 128.859 245.396 127.534C247.624 125.717 249.08 124.614 250.403 123.754C251.686 122.94 253.699 122.075 253.905 122.252C254.137 122.47 252.484 125.736 250.977 127.97C250.135 129.221 248.692 131.153 247.757 132.305C246.821 133.435 245.029 135.626 243.777 137.182C242.523 138.718 239.769 141.977 237.669 144.402C235.591 146.826 232.902 150.08 231.714 151.632C227.734 156.829 221.84 163.395 215.357 169.875C214.488 170.723 213.737 171.415 213.651 171.421C213.565 171.427 214.332 170.351 215.362 169.002C222.257 160.067 235.179 141.194 235.774 139.194C236.039 138.345 235.752 137.94 234.935 137.997C234.011 138.062 232.896 139.418 229.19 145.149C227.571 147.646 226.2 149.68 226.114 149.686C226.027 149.671 225.657 149.314 225.3 148.849C224.475 147.843 224.516 147.5 225.699 145.884C227.157 143.866 227.031 142.981 225.081 141.65C223.969 140.877 223.892 140.393 224.685 138.741C227.083 133.783 234.386 125.118 241.025 119.329C244.712 116.132 249.469 112.796 252.662 111.188C253.705 110.667 254.56 110.224 254.56 110.224C254.582 110.222 254.568 110.649 254.56 111.16ZM259.864 111.34C260.409 112.025 260.576 112.886 260.289 113.417C260.154 113.639 259.798 113.494 258.689 112.763C257.897 112.244 257.208 111.655 257.152 111.467C257.096 111.279 257.244 110.928 257.464 110.679C257.845 110.248 257.951 110.219 258.613 110.428C258.989 110.55 259.557 110.957 259.864 111.34ZM274.72 130.255C275.305 130.597 276 131.591 276.039 132.141C276.08 132.734 275.664 133.274 275.505 132.86C275.454 132.736 275.044 132.126 274.589 131.477C274.133 130.828 273.75 130.281 273.747 130.238C273.736 130.09 274.493 130.101 274.72 130.255ZM267.504 132.083C267.305 132.331 267.077 132.475 267.008 132.416C266.939 132.357 267.055 132.157 267.258 131.973C267.831 131.507 267.921 131.564 267.504 132.083ZM272.43 132.736C273.194 133.789 273.941 135.524 273.799 135.96C273.744 136.112 272.776 137.096 271.642 138.176C270.529 139.255 267.672 141.967 265.324 144.24C255.264 153.93 245.606 163.209 243.985 164.749C242.06 166.566 242.19 166.578 241.738 164.737C241.576 163.961 241.575 163.94 243.925 161.71C253.906 152.111 256.13 149.932 257.076 148.929L258.118 147.77L258.014 146.266L257.91 144.763L260.097 142.672C261.291 141.523 264.307 138.608 266.817 136.196C269.328 133.785 271.437 131.806 271.544 131.798C271.63 131.792 272.026 132.211 272.43 132.736ZM264.948 134.157C264.967 134.433 264.126 135.386 262.608 136.855C261.292 138.118 259.268 140.07 258.094 141.196C256.919 142.321 255.818 143.569 255.653 143.985C255.447 144.447 255.351 145.241 255.404 146.003C255.479 147.083 255.429 147.3 254.941 147.739C254.412 148.201 246.171 156.104 243.702 158.491C243.097 159.108 242.526 159.595 242.483 159.598C242.418 159.603 242.272 159.358 242.164 159.046C241.971 158.443 240.495 155.546 239.259 153.292C238.863 152.575 238.112 151.394 237.584 150.643L236.606 149.308L237.546 148.22C238.387 147.267 238.656 147.099 240.303 146.557C242.142 145.981 247.561 143.47 250.745 141.735C251.703 141.22 252.516 140.801 252.58 140.797C252.752 140.785 262.423 135.123 263.454 134.412C264.569 133.673 264.91 133.607 264.948 134.157ZM202.378 142.527C206.603 144.272 212.901 150.362 216.341 156.057C217.172 157.446 217.328 158.137 216.846 158.341C216.345 158.589 214.669 157.792 213.362 156.693C211.139 154.849 201.95 146.622 200.972 145.606C198.552 143.095 199.355 141.293 202.378 142.527ZM201.57 149.543C202.583 150.451 205.231 152.818 207.486 154.808C210.248 157.253 211.57 158.564 211.57 158.883C211.602 159.647 211.032 161.709 210.774 161.727C210.645 161.737 207.211 158.935 203.151 155.518C196.222 149.665 195.784 149.27 196.244 149.046C196.516 148.921 197.08 148.647 197.475 148.427C197.872 148.229 198.549 148.032 198.978 147.981C199.665 147.932 199.937 148.105 201.57 149.543ZM222.087 148.288C222.104 148.542 222.333 149.037 222.596 149.402L223.073 150.049L220.125 150.512C218.523 150.774 216.943 151.035 216.625 151.121C216.158 151.239 215.957 151.147 215.459 150.501L214.844 149.735L215.436 149.545C215.921 149.383 221.309 147.981 221.907 147.875C221.991 147.848 222.071 148.055 222.087 148.288ZM267.17 147.494C267.376 150.459 266.762 157.163 265.972 160.709C264.186 168.582 260.966 175.704 255.938 182.912C253.383 186.561 247.348 192.945 242.337 197.299C239.73 199.569 233.225 204.475 231.027 205.801C228.479 207.364 227.259 207.833 226.419 207.552C225.557 207.272 225.541 206.72 226.313 206.027C228.797 203.851 229.687 202.98 231.224 201.169C233.582 198.427 235.173 196.144 236.645 193.402C241.16 185.017 242.986 178.653 242.805 172.005C242.788 170.835 242.836 169.661 242.97 169.418C243.082 169.154 244.694 167.487 246.556 165.696C248.44 163.903 253.38 159.149 257.55 155.131C261.72 151.113 265.505 147.462 265.948 147.005C266.393 146.569 266.821 146.199 266.927 146.17C267.013 146.164 267.119 146.752 267.17 147.494ZM202.376 157.105L209.12 162.781L208.886 163.457C208.759 163.806 208.651 164.112 208.629 164.113C208.543 164.119 194.26 151.889 194.256 151.825C194.25 151.741 194.883 151.526 195.31 151.453C195.482 151.441 198.659 153.962 202.376 157.105ZM198.995 158.174C201.904 160.565 204.774 163.023 205.355 163.621C206.4 164.675 206.423 164.694 206.116 165.248L205.788 165.803L200.459 161.22C197.518 158.682 194.534 156.147 193.804 155.582L192.458 154.548L192.947 154.131C193.19 153.901 193.48 153.71 193.568 153.747C193.656 153.762 196.106 155.76 198.995 158.174ZM222.293 155.297C221.587 156.326 220.722 157.557 220.346 158.052L219.673 158.929L219.592 157.765C219.523 157.088 219.268 156.212 218.946 155.618C218.349 154.49 218.443 154.291 219.688 154.182C220.095 154.132 221.118 153.933 221.925 153.727C222.752 153.519 223.434 153.386 223.479 153.404C223.523 153.422 222.979 154.291 222.293 155.297Z" fill="#FABF29"/>
<path d="M264.869 49.4308C264.655 49.6667 264.425 50.1604 264.401 50.5472C264.352 51.1074 264.462 51.3306 264.935 51.7078C266.139 52.6485 267.701 51.8439 267.547 50.3871C267.403 49.0148 265.83 48.4758 264.869 49.4308ZM266.375 49.9554C266.899 50.1991 266.692 50.904 266.092 50.9671C265.749 51.0032 265.521 50.899 265.45 50.6291C265.35 50.298 265.627 49.842 265.97 49.8059C266.034 49.7992 266.214 49.8656 266.375 49.9554Z" fill="#FABF29"/>
<path d="M263.448 56.7105C260.047 57.7512 257.331 61.1747 256.944 64.9083C256.551 68.792 259.178 72.7635 263.074 74.1683C264.763 74.7805 264.83 74.7948 267.251 74.5402C269.629 74.29 269.799 74.2509 271.12 73.4288C272.93 72.2993 274.507 70.4044 275.116 68.5687C277.582 61.3291 270.837 54.4606 263.448 56.7105ZM268.512 58.3125C270.004 58.6894 271.955 60.1491 272.841 61.5715C273.408 62.4298 273.519 62.8664 273.721 64.7876C273.932 66.7933 273.901 67.1168 273.487 68.1209C272.903 69.5699 271.673 71.0653 270.356 71.9296C269.467 72.5354 269.109 72.6371 267.202 72.8376C265.338 73.0337 264.902 73.0154 263.801 72.6402C259.015 71.0089 257.161 65.1203 260.141 61.114C262.035 58.5241 265.198 57.4871 268.512 58.3125Z" fill="#FABF29"/>
<path d="M268.69 61.2623C268.344 61.6829 268.345 61.8963 268.665 63.6984C269.177 66.7184 268.671 67.6682 266.463 67.9003C265.264 68.0265 264.364 67.7155 263.559 66.8609C262.733 66.0086 262.488 65.1165 262.685 63.9004C262.834 63.0522 262.816 62.8833 262.507 62.617C261.421 61.7706 260.421 63.7969 260.681 66.2671C260.867 68.0406 261.421 68.9855 262.971 70.1247C265.342 71.8606 268.727 71.5045 270.578 69.3247C271.814 67.8927 272.17 66.7452 272.005 64.9695C271.86 63.5972 271.737 63.2473 271.078 62.3347C270.668 61.7374 270.045 61.1626 269.705 61.0275C269.141 60.8093 269.055 60.8184 268.69 61.2623Z" fill="#FABF29"/>
<path d="M274.667 56.0852C274.454 56.3211 274.224 56.8149 274.2 57.2016C274.151 57.7618 274.261 57.9851 274.734 58.3622C275.937 59.303 277.499 58.4983 277.346 57.0416C277.202 55.6692 275.629 55.1302 274.667 56.0852ZM276.174 56.6098C276.698 56.8535 276.491 57.5584 275.891 57.6215C275.548 57.6576 275.32 57.5535 275.248 57.2835C275.149 56.9525 275.426 56.4964 275.768 56.4603C275.833 56.4536 276.013 56.52 276.174 56.6098Z" fill="#FABF29"/>
<path d="M280.212 40.8879C279.999 41.1238 279.769 41.6176 279.745 42.0043C279.695 42.5645 279.806 42.7878 280.279 43.165C281.482 44.1057 283.044 43.301 282.891 41.8443C282.747 40.4719 281.174 39.933 280.212 40.8879ZM281.719 41.4125C282.243 41.6563 282.036 42.3611 281.436 42.4242C281.093 42.4603 280.865 42.3562 280.793 42.0862C280.694 41.7552 280.971 41.2991 281.313 41.263C281.378 41.2563 281.558 41.3227 281.719 41.4125Z" fill="#FABF29"/>
<path d="M288.804 46.8667C288.591 47.1026 288.361 47.5963 288.337 47.9831C288.287 48.5433 288.397 48.7666 288.87 49.1437C290.074 50.0845 291.636 49.2798 291.483 47.823C291.339 46.4507 289.765 45.9117 288.804 46.8667ZM290.311 47.3913C290.835 47.635 290.627 48.3399 290.027 48.403C289.684 48.4391 289.457 48.3349 289.385 48.065C289.285 47.7339 289.562 47.2779 289.905 47.2418C289.969 47.2351 290.15 47.3015 290.311 47.3913Z" fill="#FABF29"/>
<path d="M296.187 52.1762C295.973 52.4121 295.744 52.9059 295.719 53.2926C295.67 53.8528 295.78 54.0761 296.253 54.4533C297.457 55.394 299.019 54.5893 298.866 53.1326C298.721 51.7602 297.148 51.2213 296.187 52.1762ZM297.694 52.7008C298.218 52.9446 298.01 53.6494 297.41 53.7125C297.067 53.7486 296.84 53.6445 296.768 53.3745C296.668 53.0435 296.945 52.5874 297.288 52.5513C297.352 52.5446 297.533 52.611 297.694 52.7008Z" fill="#FABF29"/>
<path d="M251.091 62.6204C250.878 62.8563 250.648 63.3501 250.624 63.7369C250.574 64.2971 250.684 64.5203 251.157 64.8975C252.361 65.8382 253.923 65.0335 253.77 63.5768C253.626 62.2044 252.052 61.6655 251.091 62.6204ZM252.598 63.145C253.122 63.3888 252.914 64.0937 252.314 64.1568C251.972 64.1928 251.744 64.0887 251.672 63.8187C251.572 63.4877 251.849 63.0316 252.192 62.9956C252.257 62.9888 252.437 63.0552 252.598 63.145Z" fill="#FABF29"/>
<path d="M286.287 67.6692C286.073 67.9052 285.843 68.3989 285.819 68.7857C285.77 69.3459 285.88 69.5691 286.353 69.9463C287.557 70.887 289.118 70.0824 288.965 68.6256C288.821 67.2533 287.248 66.7143 286.287 67.6692ZM287.793 68.1939C288.317 68.4376 288.11 69.1425 287.51 69.2056C287.167 69.2417 286.939 69.1375 286.868 68.8676C286.768 68.5365 287.045 68.0805 287.388 68.0444C287.452 68.0377 287.632 68.1041 287.793 68.1939Z" fill="#FABF29"/>
<path d="M245.686 74.6748C244.5 75.1411 242.643 76.2329 242.467 76.6143C242.252 77.0425 241.825 76.8953 241.522 76.2867C240.974 75.1917 239.157 75.4254 238.703 76.6686C238.404 77.5325 238.767 78.3055 239.668 78.6377L240.366 78.8845L240.012 79.434C238.91 81.1082 238.351 83.8351 238.609 86.2842C239.231 92.1957 244.639 96.4512 250.768 95.8067C256.853 95.1667 261.295 89.8114 260.671 83.8788C260.02 77.6928 254.605 73.374 248.376 74.0931C247.497 74.1855 246.27 74.4639 245.686 74.6748ZM240.578 76.5781C241.102 76.8219 240.894 77.5268 240.294 77.5899C239.952 77.6259 239.724 77.5218 239.652 77.2518C239.552 76.9208 239.829 76.4647 240.172 76.4287C240.237 76.4219 240.417 76.4883 240.578 76.5781ZM252.782 76.2339C254.697 76.9291 256.679 78.4711 257.621 80.0156C260.364 84.466 258.906 90.1694 254.322 92.9354C253.039 93.7108 252.765 93.7823 250.686 94.0009C247.986 94.2848 246.725 94.0332 244.826 92.8668C242.394 91.3721 240.935 89.2415 240.432 86.5194C239.645 82.333 241.804 78.349 245.911 76.4016C246.696 76.0415 247.437 75.8781 249.008 75.777C250.898 75.6209 251.228 75.6716 252.782 76.2339Z" fill="#FABF29"/>
<path d="M245.736 80.09C242.252 82.8045 242.23 87.9512 245.661 90.7069C249.372 93.6467 254.805 92.1575 256.501 87.6885C256.943 86.532 257.006 86.0985 256.861 84.7262C256.721 83.3961 256.563 82.9218 255.936 81.8991C254.836 80.0936 253.577 79.4575 253.075 80.4496C252.933 80.742 253.028 81.0309 253.485 81.6659C253.989 82.3387 254.091 82.6908 254.088 83.6944C254.106 85.1013 253.627 86.5179 252.879 87.2369C252.23 87.8602 250.777 88.0556 249.676 87.6805C246.933 86.7309 245.701 82.8473 247.486 80.8665C248.067 80.2078 248.135 80.0299 247.883 79.6935C247.497 79.115 246.796 79.2527 245.736 80.09Z" fill="#FABF29"/>
<path d="M275.662 82.0238C275.448 82.2597 275.218 82.7535 275.194 83.1402C275.145 83.7004 275.255 83.9237 275.728 84.3008C276.932 85.2416 278.493 84.4369 278.34 82.9801C278.196 81.6078 276.623 81.0688 275.662 82.0238ZM277.168 82.5484C277.692 82.7921 277.485 83.497 276.885 83.5601C276.542 83.5962 276.314 83.4921 276.243 83.2221C276.143 82.8911 276.42 82.435 276.763 82.3989C276.827 82.3922 277.007 82.4586 277.168 82.5484Z" fill="#FABF29"/>
<path d="M227.613 90.7046C227.399 90.9405 227.17 91.4342 227.145 91.821C227.096 92.3812 227.206 92.6044 227.679 92.9816C228.883 93.9223 230.445 93.1177 230.291 91.6609C230.147 90.2886 228.574 89.7496 227.613 90.7046ZM229.119 91.2292C229.643 91.4729 229.436 92.1778 228.836 92.2409C228.493 92.277 228.265 92.1728 228.194 91.9029C228.094 91.5718 228.371 91.1158 228.714 91.0797C228.778 91.073 228.958 91.1394 229.119 91.2292Z" fill="#FABF29"/>
<path d="M231.191 95.2594C225.824 97.7876 223.601 103.635 226.053 108.821C228.813 114.678 236.481 116.305 241.698 112.149C244.697 109.763 246.073 105.541 245.061 101.891C244.133 98.6372 241.768 96.1322 238.508 95.0022C236.89 94.4466 236.605 94.4126 234.498 94.5701C232.737 94.7126 232.017 94.8737 231.191 95.2594ZM237.98 96.5733C240.725 97.544 242.578 99.5051 243.373 102.325C244.372 105.848 242.819 109.619 239.537 111.587C238.335 112.311 238.042 112.406 236.068 112.592C234.161 112.792 233.79 112.767 232.621 112.357C229.94 111.379 227.95 109.347 227.115 106.767C225.944 103.048 227.875 98.746 231.542 96.9515C233.192 96.1589 236.27 95.9634 237.98 96.5733Z" fill="#FABF29"/>
<path d="M229.921 100.922C228.814 102.34 228.575 103.155 228.763 104.95C228.982 106.827 229.752 108.176 231.179 109.178C233.307 110.662 236.113 110.773 238.141 109.45C241.043 107.586 241.959 103.733 240.151 100.956C239.375 99.7568 238.925 99.3985 238.347 99.4593C237.554 99.5427 237.447 100.173 238.051 101.177C239.315 103.307 237.884 106.189 235.42 106.448C234.242 106.572 233.243 106.144 232.241 105.054C231.139 103.846 230.85 102.745 231.278 101.462C231.531 100.774 231.536 100.41 231.368 100.257C230.957 99.8522 230.649 100.013 229.921 100.922Z" fill="#FABF29"/>
<path d="M263.798 96.933C263.585 97.1689 263.355 97.6627 263.331 98.0495C263.281 98.6097 263.392 98.8329 263.864 99.2101C265.068 100.151 266.63 99.3462 266.477 97.8894C266.333 96.5171 264.759 95.9781 263.798 96.933ZM265.305 97.4576C265.829 97.7014 265.621 98.4063 265.021 98.4694C264.679 98.5054 264.451 98.4013 264.379 98.1313C264.28 97.8003 264.557 97.3442 264.899 97.3082C264.964 97.3014 265.144 97.3678 265.305 97.4576Z" fill="#FABF29"/>
<path d="M218.283 107.054C218.069 107.29 217.839 107.784 217.815 108.17C217.766 108.731 217.876 108.954 218.349 109.331C219.553 110.272 221.115 109.467 220.961 108.01C220.817 106.638 219.244 106.099 218.283 107.054ZM219.789 107.579C220.313 107.822 220.106 108.527 219.506 108.59C219.163 108.626 218.935 108.522 218.864 108.252C218.764 107.921 219.041 107.465 219.384 107.429C219.448 107.422 219.628 107.489 219.789 107.579Z" fill="#FABF29"/>
<path d="M226.355 115.811C226.141 116.047 225.912 116.54 225.887 116.927C225.838 117.487 225.948 117.711 226.421 118.088C227.625 119.029 229.187 118.224 229.034 116.767C228.889 115.395 227.316 114.856 226.355 115.811ZM227.862 116.335C228.386 116.579 228.178 117.284 227.578 117.347C227.235 117.383 227.008 117.279 226.936 117.009C226.836 116.678 227.113 116.222 227.456 116.186C227.52 116.179 227.701 116.246 227.862 116.335Z" fill="#FABF29"/>
<path d="M210.8 124.492C210.587 124.728 210.357 125.222 210.333 125.609C210.283 126.169 210.393 126.392 210.866 126.769C212.07 127.71 213.632 126.905 213.479 125.448C213.335 124.076 211.761 123.537 210.8 124.492ZM212.307 125.017C212.831 125.26 212.623 125.965 212.023 126.028C211.681 126.064 211.453 125.96 211.381 125.69C211.281 125.359 211.558 124.903 211.901 124.867C211.966 124.86 212.146 124.927 212.307 125.017Z" fill="#FABF29"/>
<path d="M217.638 129.749C217.425 129.984 217.195 130.478 217.171 130.865C217.121 131.425 217.231 131.648 217.704 132.026C218.908 132.966 220.47 132.162 220.317 130.705C220.173 129.333 218.599 128.794 217.638 129.749ZM219.145 130.273C219.669 130.517 219.461 131.222 218.861 131.285C218.518 131.321 218.291 131.217 218.219 130.947C218.119 130.616 218.396 130.16 218.739 130.124C218.803 130.117 218.984 130.183 219.145 130.273Z" fill="#FABF29"/>
<ellipse cx="162.412" cy="175.937" rx="8.5454" ry="8.54542" transform="rotate(-11.3742 162.412 175.937)" fill="#F8B708"/>
<ellipse cx="153.186" cy="271.837" rx="8.5454" ry="8.54542" transform="rotate(-11.3742 153.186 271.837)" fill="#F8B708"/>
<ellipse cx="11.1091" cy="11.1091" rx="11.1091" ry="11.1091" transform="matrix(0.980359 -0.19722 0.197212 0.980361 36.2969 277.756)" fill="#F8B708"/>
<line y1="-0.842405" x2="29.8892" y2="-0.842405" transform="matrix(0.968694 -0.248259 0.248257 0.968694 87.0449 176.59)" stroke="#F8B708" stroke-width="1.68481"/>
<ellipse cx="4.61057" cy="4.61059" rx="4.61057" ry="4.61059" transform="matrix(0.968694 -0.248259 0.248257 0.968694 79.3477 172.818)" fill="#F8B708"/>
<ellipse cx="4.61057" cy="4.61059" rx="4.61057" ry="4.61059" transform="matrix(0.968694 -0.248259 0.248257 0.968694 110.15 164.924)" fill="#F8B708"/>
<line y1="-0.842405" x2="29.8892" y2="-0.842405" transform="matrix(0.207775 -0.978177 0.978176 0.207777 212.113 357.895)" stroke="#F8B708" stroke-width="1.68481"/>
<ellipse cx="4.61057" cy="4.61059" rx="4.61057" ry="4.61059" transform="matrix(0.207775 -0.978177 0.978176 0.207777 211.922 332.011)" fill="#F8B708"/>
<rect width="20.3492" height="20.35" transform="matrix(0.86713 -0.498082 0.498081 0.86713 76.9102 354.814)" fill="#F8B708"/>
<rect x="0.235269" y="1.22858" width="17.7625" height="17.762" transform="matrix(0.827479 0.561496 -0.561494 0.827481 152.586 299.039)" stroke="#F8B708" stroke-width="1.76904"/>
<rect x="59.964" y="207.741" width="14.21" height="14.2098" transform="rotate(75.9421 59.964 207.741)" stroke="#F8B708" stroke-width="1.41524"/>
<rect x="98.375" y="256.536" width="2.59448" height="16.4026" transform="rotate(11.369 98.375 256.536)" fill="#FABF29"/>
<rect x="90.0039" y="264.362" width="2.59448" height="16.4026" transform="rotate(-78.6856 90.0039 264.362)" fill="#FABF29"/>
<rect x="-8.46094" y="262.7" width="2.59448" height="16.4026" transform="rotate(-43.9984 -8.46094 262.7)" fill="#FABF29"/>
<rect x="-6.7793" y="274.034" width="2.59448" height="16.4026" transform="rotate(-134.053 -6.7793 274.034)" fill="#FABF29"/>
<rect width="1.5567" height="9.84158" transform="matrix(0.829601 -0.558367 0.558353 0.829596 191.672 310.209)" fill="#FABF29"/>
<rect width="1.5567" height="9.84159" transform="matrix(-0.559143 -0.829064 0.829069 -0.559157 191.479 317.081)" fill="#FABF29"/>
<rect width="1.5567" height="9.84158" transform="matrix(0.860052 0.510217 -0.510218 0.860038 176.07 228.016)" fill="#FABF29"/>
<rect width="1.5567" height="9.84159" transform="matrix(0.509399 -0.860524 0.860538 0.509397 169.777 230.787)" fill="#FABF29"/>
<circle cx="102.795" cy="309.491" r="7.36812" transform="rotate(-51.3742 102.795 309.491)" stroke="#F8B608" stroke-width="1.4"/>
<path d="M185.485 186.264C186.821 187.33 187.038 189.278 185.971 190.613C184.904 191.948 182.957 192.166 181.622 191.099C180.287 190.032 180.069 188.085 181.136 186.749C182.203 185.414 184.15 185.197 185.485 186.264Z" stroke="#F8B608" stroke-width="0.587997"/>
<path d="M7.57516 330.012C8.91039 331.079 9.12794 333.026 8.06108 334.361C6.99422 335.697 5.04694 335.914 3.71171 334.847C2.37648 333.78 2.15893 331.833 3.22579 330.498C4.29265 329.163 6.23993 328.945 7.57516 330.012Z" stroke="#F8B608" stroke-width="0.587997"/>
<path d="M231.13 261.532C232.465 262.599 232.683 264.546 231.616 265.882C230.549 267.217 228.602 267.434 227.266 266.367C225.931 265.301 225.714 263.353 226.78 262.018C227.847 260.683 229.795 260.465 231.13 261.532Z" stroke="#F8B608" stroke-width="0.587995"/>
</svg>
