<svg width="146" height="148" viewBox="0 0 146 148" fill="none" xmlns="http://www.w3.org/2000/svg">
<mask id="path-1-outside-1_672_1201" maskUnits="userSpaceOnUse" x="0" y="-1" width="146" height="149" fill="black">
<rect fill="white" y="-1" width="146" height="149"/>
<path d="M68.0274 1.35599C67.8225 1.61555 67.6176 2.0937 67.5219 2.5582C67.44 2.99536 67.3443 3.44618 67.3034 3.55547C67.2624 3.66476 67.1394 4.15657 67.0438 4.64838C66.9345 5.1402 66.634 6.49268 66.3607 7.65388C66.1012 8.81511 65.664 10.7277 65.4044 11.8889C65.1449 13.0501 64.7077 14.9627 64.4481 16.1239C64.1749 17.2852 63.8744 18.6376 63.7651 19.1294C63.5738 19.9901 63.3279 21.0557 61.9754 26.9438L61.3197 29.7717L60.0218 28.4465C59.2978 27.7088 58.2322 26.7935 57.6448 26.3973C56.2786 25.4547 54.0791 24.4164 52.6993 24.0475C51.2649 23.665 48.9151 23.5421 47.2621 23.7743C45.8277 23.9792 46.3195 23.8016 36.4423 27.5312C28.6416 30.4684 27.2072 31.0012 26.0596 31.4384C16.9338 34.8264 7.16594 38.5696 6.59216 38.8975C4.82984 39.8948 3.01288 41.862 2.53473 43.2691C2.41178 43.6243 2.20686 44.1025 2.07024 44.3347C1.93363 44.5533 1.6604 45.3593 1.45548 46.1107C1.15493 47.2719 1.08662 47.8457 1.03198 49.8676C0.963671 51.9714 0.990994 52.4086 1.25056 53.4878C1.61942 55.0725 2.16587 56.1381 3.13583 57.2584C3.573 57.7502 4.5976 58.9524 5.41728 59.9223C6.25063 60.8923 7.41185 62.2721 8.02661 62.9825C8.64137 63.6929 10.3627 65.7148 11.8655 67.4771C15.1715 71.3706 18.0131 74.7176 20.6497 77.8051C21.7426 79.0756 23.0678 80.6467 23.5869 81.2751C24.1197 81.9035 25.0214 82.9418 25.5815 83.5975C26.1416 84.2533 27.0706 85.3325 27.6444 86.0156C28.6416 87.2041 31.5515 90.6195 39.844 100.346C42.0844 102.969 45.8003 107.341 48.0955 110.046C50.4042 112.751 53.1502 115.975 54.2021 117.218C56.8524 120.319 63.7651 128.434 67.9318 133.339C78.4511 145.702 77.4128 144.555 78.5877 145.183C80.8418 146.385 83.4784 147 86.4703 147C88.4922 147 90.9649 146.604 91.9212 146.126C92.413 145.88 115.596 135.224 126.812 130.087C127.222 129.91 128.206 129.445 128.985 129.09C129.763 128.721 130.419 128.421 130.446 128.421C130.46 128.421 131.198 128.079 132.072 127.669C132.96 127.259 133.684 126.918 133.711 126.918C133.752 126.918 135.87 125.948 137.045 125.388C137.373 125.224 138.233 124.664 138.957 124.117C141.471 122.246 143.028 120.565 143.985 118.707C144.586 117.532 144.572 117.847 144.395 111.016C144.285 107.232 144.285 107.204 143.889 106.166C143.657 105.592 143.315 104.841 143.11 104.513C142.892 104.172 142.646 103.748 142.55 103.557C142.455 103.366 141.854 102.601 141.211 101.849C140.569 101.098 138.752 98.9802 137.195 97.1359C135.638 95.2917 132.837 91.9993 130.979 89.8271C129.121 87.6413 126.607 84.6904 125.405 83.2696C124.189 81.8352 123.165 80.6467 123.124 80.6057C123.083 80.5647 122.509 79.9089 121.84 79.1302C121.184 78.3652 120.337 77.4636 119.968 77.1357C119.189 76.439 119.094 76.6029 121.075 75.2504C125.05 72.5318 129.545 70.264 132.96 69.2531C133.52 69.0891 134.08 68.8705 134.203 68.7749C134.312 68.6656 134.504 68.5837 134.627 68.5837C134.9 68.5837 135.282 68.1465 135.282 67.8186C135.282 67.2995 130.624 58.324 127.372 52.5452C126.607 51.1927 125.993 50.0452 125.993 50.0042C125.993 49.9495 126.157 49.608 126.348 49.2528C126.771 48.5151 126.935 47.108 126.703 46.2746C126.621 45.9877 125.282 43.6653 123.711 41.1243C122.154 38.5696 120.665 36.1242 120.419 35.687C120.173 35.2635 119.749 34.7034 119.476 34.4575C118.984 34.0204 118.971 34.0204 117.523 34.0204H116.061L115.228 32.7498C113.984 30.8509 110.583 25.9192 108.793 23.4328C105.951 19.4846 105.036 18.3234 104.654 18.1595C104.326 18.0229 104.107 18.0912 102.632 18.7606C101.457 19.307 100.992 19.4573 100.992 19.3207C100.992 19.2114 101.511 16.8343 102.154 14.0338C103.656 7.5446 103.916 6.05551 103.656 5.64566C103.41 5.27681 103.342 5.24948 101.197 5.00359C100.227 4.88063 97.1125 4.51176 94.2983 4.17023C85.5823 3.1183 83.6834 2.88606 80.1587 2.46255C73.2051 1.61555 68.9427 1.08276 68.6695 1.01445C68.4646 0.959808 68.287 1.05544 68.0274 1.35599ZM74.3936 3.35056C77.1942 3.69209 81.2653 4.1839 83.4375 4.45712C97.536 6.16479 102.154 6.72491 102.195 6.7659C102.222 6.79321 102.154 7.16208 102.031 7.6129C101.908 8.05006 101.689 8.95172 101.539 9.63478C101.389 10.3042 101.197 11.1102 101.129 11.4108C101.061 11.7113 100.842 12.6676 100.651 13.5283C100.46 14.3889 100.241 15.3452 100.173 15.6458C100.104 15.9464 99.5716 18.2141 99.0114 20.7005C97.7546 26.206 97.5497 27.0531 97.5087 27.0531C97.495 27.0531 97.1808 26.6705 96.812 26.1924C94.5715 23.2962 92.4676 20.7552 92.0578 20.4409C91.4704 20.0038 91.2518 20.0038 89.8037 20.4409L88.6288 20.7961L88.4239 20.4819C86.0878 16.93 81.6478 15.0857 77.5221 15.9327C72.8362 16.889 69.5028 20.6868 69.0793 25.5503C68.9837 26.7115 69.175 28.3509 69.5438 29.4438L69.8034 30.1815L67.44 31.7662C66.1285 32.6406 64.2979 33.9247 63.3552 34.6351C61.5792 35.9603 61.5246 35.9739 61.7842 34.9083C61.8525 34.6078 62.0711 33.6515 62.276 32.7908C62.4672 31.9302 62.7131 30.8509 62.8088 30.4001C63.1093 29.1159 64.7897 21.7934 66.1421 15.7824C66.8252 12.7769 67.44 10.0719 67.5219 9.77141C67.5903 9.47086 67.9045 8.11838 68.205 6.7659C69.052 2.98169 69.1067 2.73579 69.2433 2.73579C69.2843 2.73579 71.6067 3.00902 74.3936 3.35056ZM81.7298 17.5721C83.2735 17.9136 84.5304 18.6376 85.8692 19.9628C86.5249 20.6049 87.0577 21.1923 87.0577 21.2743C87.0577 21.3563 86.7708 21.5202 86.4156 21.6568C85.4457 22.0257 81.2516 23.8699 80.1724 24.4164C79.6669 24.676 79.2161 24.8672 79.2024 24.8399C79.1614 24.7989 79.5986 22.6814 80.0358 20.7825C80.1041 20.4683 80.1314 20.4683 81.0194 20.5502C81.5249 20.6049 82.1943 20.6732 82.5221 20.7142C83.0276 20.7825 83.0959 20.7688 83.0959 20.5229C83.0959 19.9901 82.126 19.471 80.9784 19.3754C80.4456 19.3207 80.432 19.307 80.391 18.7606C80.309 17.6404 79.6942 17.6813 79.3664 18.8289C79.2024 19.389 79.1205 19.4573 78.4374 19.7306C77.2898 20.1814 76.8937 20.4409 76.2926 21.1104C75.0767 22.4902 75.227 24.0749 76.7024 25.3454C77.0166 25.6049 77.2489 25.8509 77.2079 25.8782C77.1805 25.9055 76.3609 26.37 75.3772 26.9164C74.4073 27.4629 73.0958 28.2006 72.4947 28.5695C71.8799 28.9383 71.3198 29.2389 71.2378 29.2389C71.0193 29.2389 70.6641 27.4492 70.6641 26.3153C70.6641 23.8153 71.5247 21.6978 73.2324 19.9765C75.5275 17.6813 78.4647 16.848 81.7298 17.5721ZM106.17 22.5175C108.165 25.2224 112.823 31.9165 113.752 33.3646L114.258 34.157H113.807C113.561 34.1706 112.768 34.2799 112.031 34.4029L110.719 34.6488L109.449 32.8728C106.621 28.87 103.957 25.4137 103.643 25.3317C103.26 25.2361 100.774 25.8509 100.022 26.247C99.7082 26.3973 99.4349 26.4929 99.394 26.452C99.353 26.411 99.3803 26.1104 99.4759 25.7962C99.5579 25.4683 99.7765 24.4984 99.9677 23.6377C100.159 22.777 100.337 21.93 100.378 21.7798C100.419 21.5885 100.678 21.3836 101.088 21.206C101.457 21.0557 102.263 20.6732 102.905 20.3726C103.547 20.0721 104.093 19.8262 104.134 19.8262C104.175 19.8262 105.091 21.0284 106.17 22.5175ZM78.8609 20.9054C78.8609 21.124 78.0275 24.7853 77.9729 24.8536C77.9319 24.8809 77.686 24.7306 77.4128 24.5257C76.8253 24.0749 76.4838 23.3508 76.5931 22.7634C76.7024 22.1759 77.3718 21.4109 78.0685 21.0557C78.7243 20.7278 78.8609 20.7142 78.8609 20.9054ZM93.2463 24.2115C95.8147 27.4356 98.8748 31.493 101.184 34.7581L102.905 37.2035L101.443 37.9822C96.6753 40.4958 92.7955 43.6926 90.1042 47.3539C88.984 48.8703 88.8337 49.2801 88.8337 50.9741C88.8337 54.1982 90.0496 56.6026 92.5223 58.242C93.8065 59.1027 94.6808 59.3349 96.4841 59.3486C98.8885 59.3622 99.9677 58.8841 103.069 56.4114C105.419 54.5398 108.014 52.8048 110.583 51.3976L111.621 50.8239L112.304 51.9441C115.282 56.9442 119.626 65.0454 119.422 65.223C119.394 65.2503 118.752 65.6874 118.001 66.2066C110.569 71.2613 103.328 77.5592 97.618 83.9117C96.8939 84.7314 96.2518 85.3872 96.2109 85.3872C96.1562 85.3872 95.4731 84.8134 94.6944 84.1166C93.9157 83.4199 91.0195 80.8379 88.2463 78.3789C85.4867 75.9198 81.0057 71.9307 78.2735 69.499C75.5548 67.0809 70.5001 62.5726 67.0438 59.4988C53.6283 47.5588 53.8879 47.791 52.9043 46.8894L52.2895 46.3293L53.1092 45.4959C54.0518 44.5396 57.7677 41.1106 58.9836 40.086C66.511 33.7608 75.1177 28.3509 83.9839 24.3891C85.2681 23.8153 90.76 21.6431 91.0469 21.6022C91.1015 21.5885 92.0851 22.777 93.2463 24.2115ZM51.8387 25.482C53.6147 25.8645 55.3633 26.6842 57.071 27.9547C58.3278 28.8837 58.7104 29.2389 59.7486 30.4684C60.2268 31.0285 60.6776 31.534 60.7459 31.5886C60.8142 31.6296 60.7596 32.1897 60.6229 32.8865C60.2131 34.881 60.2951 34.8264 59.2978 33.8428C57.918 32.4766 56.06 31.3427 54.4753 30.9329C53.5873 30.687 51.825 30.7006 50.7731 30.9465C49.7621 31.1788 46.8933 32.1488 45.5954 32.6815C44.7484 33.0367 39.2839 35.1269 36.3057 36.2335C33.7373 37.1898 32.7947 37.545 25.6771 40.2226C21.565 41.7664 18.1224 43.0369 18.0267 43.0369C17.412 43.0369 15.3354 44.9495 14.6934 46.097C14.3655 46.7118 14.3108 46.9304 14.3245 47.955C14.3245 49.4304 14.5431 49.8676 16.3054 51.9851C16.4284 52.1354 17.6579 53.6108 19.0377 55.2638C20.4175 56.9168 22.3711 59.2529 23.382 60.4551C24.4066 61.6573 26.4968 64.1437 28.0405 65.988C29.5843 67.8323 32.781 71.6438 35.1581 74.4581C40.1172 80.3598 46.2512 87.6686 50.3086 92.4911C51.8523 94.3354 54.9261 97.983 57.1393 100.62C59.3524 103.243 62.9727 107.546 65.1722 110.183C75.5548 122.546 75.1177 122.068 77.1532 123.639C78.5603 124.732 78.8472 124.923 79.8992 125.456C82.0577 126.535 84.1479 126.986 86.0604 126.767C87.1943 126.645 89.025 126.098 89.6261 125.716C89.8993 125.538 93.137 123.967 95.5961 122.819C96.0469 122.614 97.2218 122.054 98.1918 121.59C99.1754 121.125 101.102 120.196 102.495 119.541C103.889 118.885 105.828 117.956 106.798 117.491C107.782 117.027 109.654 116.139 110.965 115.511C112.277 114.896 114.312 113.926 115.473 113.366C116.635 112.806 119.749 111.344 122.372 110.101L127.154 107.86L128.247 106.767C129.107 105.907 129.476 105.401 129.995 104.404C130.556 103.284 130.638 103.024 130.638 102.286C130.624 101.794 130.501 101.057 130.323 100.524C130.036 99.677 129.668 99.1988 124.831 93.4337C113.424 79.8543 114.107 80.7013 114.353 80.4144C114.558 80.1958 117.017 78.1876 118.124 77.3543L118.534 77.0401L118.711 77.4772C119.025 78.2149 119.148 78.3789 129.954 91.0566C132.455 93.9802 135.091 97.095 135.829 97.9556C136.567 98.8163 138.001 100.51 139.026 101.713C141.744 104.909 142.687 106.603 142.714 108.338C142.742 110.019 142.236 111.398 141.348 112.109C140.351 112.888 137.974 114.035 122.304 121.221C115.501 124.336 109.394 127.15 108.711 127.464C108.042 127.778 104.162 129.568 100.104 131.426C96.0469 133.284 91.7163 135.306 90.4867 135.921C89.2572 136.522 87.8774 137.136 87.4129 137.3C85.6096 137.888 83.1506 137.738 81.4156 136.918C80.4729 136.481 79.7352 135.77 77.809 133.462C76.5111 131.904 71.1149 125.483 65.5957 118.926C61.4973 114.035 54.9261 106.221 50.8551 101.371C40.9779 89.6085 33.4504 80.633 32.4805 79.5128C31.8657 78.8024 29.9805 76.5482 28.2864 74.5264C26.5924 72.4908 23.6416 68.9935 21.7426 66.7394C18.1087 62.4087 10.7725 53.6791 8.72334 51.2474C8.05393 50.455 7.1796 49.4304 6.7561 48.9796C5.0211 47.108 3.9965 45.3593 3.9965 44.2527C3.9965 43.8156 4.10579 43.474 4.37902 43.0232C4.80252 42.3538 6.12768 41.097 7.07031 40.4412C7.56212 40.0997 13.3955 37.8592 25.8547 33.2007C26.4148 32.9821 27.3711 32.6269 27.9722 32.4083C31.8384 30.9602 43.232 26.6705 44.3932 26.2197C45.6091 25.7552 46.702 25.482 48.3277 25.2224C48.9698 25.1268 50.7731 25.2634 51.8387 25.482ZM104.544 28.8017C106.512 31.4247 108.916 34.8127 108.916 34.9357C108.916 35.004 108.192 35.2772 107.318 35.5641C106.43 35.851 105.419 36.1925 105.063 36.3428L104.421 36.6024L102.96 34.5258C102.154 33.3783 100.883 31.6296 100.145 30.6323C98.6426 28.6105 98.6562 28.6378 99.6808 28.1186C100.664 27.6132 102.277 27.0667 102.768 27.0667C103.219 27.0667 103.315 27.1487 104.544 28.8017ZM53.8742 32.4356C54.8988 32.6542 55.5956 32.9821 56.7841 33.7881C58.3415 34.84 59.7896 36.6024 59.612 37.2308C59.571 37.4084 58.6557 38.2964 57.4945 39.2936C56.3743 40.2636 54.489 41.9849 53.3141 43.1188L51.1829 45.209L50.2403 44.3484C49.0518 43.2828 48.7649 43.1188 48.396 43.3101C48.1228 43.4604 47.8495 43.8566 47.8495 44.1161C47.8495 44.1981 48.2594 44.6489 48.7649 45.1134C49.2703 45.5916 50.3359 46.5888 51.1283 47.3402C52.672 48.8293 52.8496 48.9796 59.3934 54.7857C61.7978 56.9305 63.7924 58.7065 63.8334 58.7475C63.8744 58.7884 66.1148 60.783 68.8198 63.1874C71.5247 65.5918 73.7652 67.5864 73.8062 67.6274C73.8472 67.6683 75.8144 69.4307 78.1778 71.5345C80.5412 73.6384 84.9949 77.6002 88.0687 80.3325C91.1425 83.0784 93.9841 85.5921 94.3802 85.9336C94.7764 86.2752 95.1043 86.6167 95.1043 86.6987C95.118 86.7806 94.6125 87.0265 93.9977 87.2178C92.8638 87.5866 90.555 88.5429 89.3802 89.1167C89.0523 89.2807 88.6834 89.5812 88.5741 89.7725C88.3965 90.1003 88.3965 90.1686 88.6015 90.4965C88.7517 90.7151 88.9703 90.8517 89.1616 90.8517C89.3392 90.8517 90.1862 90.5102 91.0605 90.1003C94.6944 88.3653 100.637 86.8353 105.091 86.4664C106.033 86.3981 107.14 86.3025 107.55 86.2615L108.301 86.1795L110.596 83.9117C112.577 81.9445 112.919 81.6576 113.055 81.8489C113.151 81.9718 114.462 83.5429 115.965 85.3325C122.127 92.655 127.591 99.1578 128.083 99.7589C128.37 100.1 128.725 100.756 128.875 101.221C129.135 101.958 129.148 102.15 128.998 102.71C128.616 104.254 127.14 106.043 125.678 106.74C125.132 106.999 123.711 107.696 122.509 108.27C121.307 108.857 119.244 109.841 117.932 110.456C116.621 111.084 114.749 111.972 113.766 112.437C112.796 112.901 111.498 113.516 110.897 113.803C110.296 114.076 106.607 115.838 102.7 117.696C98.7929 119.554 94.9267 121.399 94.0933 121.795C93.2737 122.177 91.484 123.038 90.1315 123.68C88.7244 124.363 87.2626 124.951 86.7162 125.087C84.2845 125.647 81.2516 124.773 78.4511 122.669C76.5794 121.262 75.951 120.579 70.0356 113.543C64.2842 106.672 58.8743 100.223 55.2813 95.9611C51.5654 91.5348 44.3932 82.9964 39.8576 77.6002C37.8084 75.1548 34.4204 71.1247 32.3302 68.652C22.6306 57.1081 20.7863 54.9223 19.6661 53.5698C18.9967 52.7774 18.2317 51.8758 17.9584 51.5752C17.4393 51.0015 17.1114 50.5643 16.3327 49.4031C15.9502 48.8566 15.8819 48.6244 15.8819 47.9686C15.8819 47.026 16.3191 46.261 17.3437 45.373C17.9584 44.8402 18.7508 44.5123 26.005 41.78C30.3903 40.1407 34.2975 38.6789 34.6663 38.5423C35.5816 38.2007 36.7702 37.7499 41.7702 35.8783C44.1063 35.004 46.1555 34.2116 46.3468 34.1023C46.9889 33.7471 50.8141 32.5176 51.6201 32.3947C52.7813 32.2307 52.8769 32.2307 53.8742 32.4356ZM118.26 35.6597C118.493 35.6597 118.725 35.933 119.244 36.78C119.613 37.4084 121.102 39.8538 122.536 42.2172L125.173 46.5205V47.3675C125.173 48.2145 124.968 48.638 124.558 48.638C124.463 48.638 123.725 48.4195 122.946 48.1599C121.293 47.6134 119.968 47.4085 117.919 47.3949C115.473 47.3675 114.49 47.6817 110.583 49.6763C107.195 51.425 103.342 53.9796 101.197 55.9059C100.828 56.2474 99.9951 56.7939 99.3666 57.1218L98.2327 57.7229H96.5661C94.9813 57.7229 94.872 57.7092 94.025 57.2857C92.2627 56.4114 90.9785 54.7037 90.5414 52.6681C90.2272 51.2064 90.2682 50.1818 90.678 49.3758C91.525 47.6681 94.4622 44.5669 97.1125 42.5724C101.771 39.0751 106.634 36.9849 112.536 35.9193C113.465 35.7417 116.976 35.5368 117.577 35.6051C117.796 35.6324 118.096 35.6597 118.26 35.6597ZM4.05114 48.1462C4.50197 48.761 5.18504 49.5943 5.56756 50.0042C5.96374 50.414 8.08125 52.9004 10.2944 55.537C14.3655 60.4005 18.4502 65.2639 24.6252 72.6138C26.5241 74.8679 29.9121 78.898 32.1526 81.562C36.1417 86.3161 39.68 90.5238 46.62 98.789C48.5326 101.07 51.9206 105.087 54.1338 107.724C56.3469 110.374 59.8852 114.582 61.9891 117.082C68.6968 125.06 72.5357 129.623 75.6915 133.38C79.2981 137.683 79.9265 138.229 82.0713 138.885C82.7134 139.076 83.3418 139.131 84.9402 139.131C86.7435 139.145 87.0987 139.104 87.8774 138.83C88.861 138.475 92.2081 136.932 92.5223 136.672C92.6316 136.59 93.2463 136.289 93.8884 136.003C94.5305 135.716 95.5688 135.238 96.2109 134.937C96.8529 134.65 103.738 131.481 111.512 127.915C119.285 124.349 126.047 121.235 126.539 121.016C127.031 120.784 127.769 120.442 128.179 120.251C128.588 120.073 129.326 119.732 129.818 119.5C130.31 119.281 131.047 118.94 131.457 118.748C131.867 118.571 132.591 118.229 133.069 118.024C133.534 117.806 134.299 117.45 134.777 117.232C135.241 117.027 135.761 116.795 135.938 116.754C136.116 116.699 136.635 116.426 137.099 116.166C137.564 115.907 138.752 115.306 139.722 114.841C140.706 114.363 141.785 113.762 142.127 113.489L142.769 113.01L142.851 113.571C143.042 114.855 142.974 117.136 142.742 117.683C141.84 119.814 138.807 122.669 135.911 124.131C135.105 124.554 134.394 124.855 134.367 124.814C134.326 124.773 134.353 124.39 134.449 123.967C134.695 122.683 134.654 122.177 134.258 121.918C133.971 121.74 133.834 121.713 133.575 121.836C133.206 122 133.097 122.314 132.728 124.39L132.482 125.743L129.285 127.218C127.523 128.038 126.034 128.694 125.965 128.694C125.897 128.694 125.87 128.584 125.911 128.448C126.17 127.533 126.143 127.341 125.801 126.986C125.597 126.781 125.31 126.645 125.077 126.645C124.531 126.645 115.596 130.497 115.378 130.825C115.173 131.139 114.763 133.366 114.859 133.639C114.9 133.762 113.971 134.254 111.88 135.21C110.214 135.975 107.413 137.259 105.665 138.065C103.916 138.871 102.468 139.5 102.44 139.473C102.413 139.445 102.468 138.899 102.577 138.257C102.673 137.615 102.768 136.904 102.768 136.672C102.768 135.825 101.812 135.511 101.416 136.235C101.334 136.412 101.115 137.396 100.924 138.434C100.746 139.473 100.583 140.361 100.542 140.388C100.514 140.415 98.342 141.426 95.719 142.642C90.678 144.964 89.8856 145.238 87.5359 145.429C85.1861 145.62 81.7161 144.978 79.7216 143.967C78.7243 143.475 78.4511 143.257 77.5221 142.164C76.2106 140.634 74.0521 138.106 70.9646 134.459L68.6149 131.699V129.035V126.371L68.2597 126.139C67.9318 125.934 67.8635 125.934 67.5356 126.112C67.1804 126.303 67.1804 126.344 67.1121 128.079L67.0438 129.855L64.7214 127.136C63.4509 125.634 61.4836 123.325 60.3497 122.013C59.2295 120.688 57.6311 118.803 56.7978 117.833C53.6556 114.144 50.3359 110.265 48.8878 108.543C48.0545 107.56 46.8796 106.18 46.2785 105.469C42.4806 101.016 40.1172 98.2425 38.0817 95.8381C35.8275 93.2015 33.2729 90.196 30.1581 86.5484C29.3247 85.5648 28.0815 84.103 27.3848 83.297L26.1279 81.8215V78.9117C26.1279 76.1657 26.1143 75.9745 25.8411 75.6329C25.5132 75.2094 25.3083 75.1958 24.8848 75.5373C24.5705 75.7832 24.5569 75.9062 24.4886 77.8051L24.4203 79.8133L22.3028 77.3133C21.1415 75.9471 18.8191 73.2149 17.1524 71.2613L14.1059 67.6957V65.2503C14.1059 63.1601 14.0786 62.7639 13.8737 62.5453C13.6005 62.2448 13.177 62.2311 12.8491 62.5317C12.6442 62.7229 12.6032 62.9688 12.6032 64.2393C12.6032 65.0454 12.5485 65.7148 12.4939 65.7148C12.4256 65.7148 12.166 65.4552 11.9064 65.1273C11.6469 64.8131 10.554 63.5016 9.46105 62.2311C8.36814 60.9469 7.31622 59.7038 7.09763 59.4579C6.72878 59.007 6.72878 58.9797 6.72878 57.0125C6.72878 54.854 6.61948 54.5124 5.9774 54.5124C5.48559 54.5124 5.29433 54.8813 5.22602 56.0562L5.15772 57.1491L4.29705 56.1655C3.31343 55.0725 3.02654 54.4031 2.68501 52.4359C2.4391 51.0561 2.48008 49.1982 2.78064 47.4768C2.91725 46.6708 2.97189 46.5615 3.09485 46.7801C3.17682 46.9167 3.61398 47.5315 4.05114 48.1462ZM118.356 49.7719C118.998 50.8512 120.569 53.6791 121.416 55.2638C123.219 58.6108 126.676 65.7967 126.676 66.1793C126.676 66.2885 126.143 66.5481 125.433 66.8077C121.594 68.1738 116.088 71.6301 110.979 75.8925C108.001 78.3652 103.356 83.0237 102.017 84.8817C101.757 85.2369 101.539 85.3052 99.8311 85.6604C98.7929 85.879 97.9185 86.0429 97.8912 86.0156C97.8092 85.9336 101.102 82.4363 103.328 80.2641C108.096 75.5919 113.424 71.2203 118.889 67.5044C120.132 66.6574 121.239 65.8241 121.348 65.6465C121.525 65.3459 121.512 65.2776 121.252 64.9224C121.088 64.7038 120.678 63.9524 120.323 63.2421C118.848 60.3049 115.514 54.2392 113.793 51.384L113.11 50.2364L113.411 49.9905C113.984 49.526 116.075 48.9796 117.454 48.9249C117.823 48.9113 117.919 49.0069 118.356 49.7719ZM122.659 49.7173L124.258 50.2501L125.692 52.7501C128.698 58.0644 133.424 67.1082 133.343 67.3815C133.315 67.4634 132.878 67.641 132.373 67.7913C131.17 68.1192 129.285 68.8569 127.386 69.7585C121.908 72.3405 115.2 77.1903 109.667 82.5592L107.481 84.6768L106.184 84.7724C105.473 84.8134 104.722 84.8954 104.517 84.9227C104.298 84.9637 104.134 84.9363 104.134 84.868C104.134 84.7997 104.859 83.9391 105.76 82.9828C111.962 76.2477 120.87 69.9225 126.922 67.9552C128.452 67.4634 128.725 67.3131 128.725 66.958C128.725 66.2885 123.902 56.425 121.28 51.7255C120.487 50.3047 119.845 49.1025 119.845 49.0752C119.845 48.9386 121.184 49.2391 122.659 49.7173ZM124.162 129.295C124.107 129.541 123.37 129.923 120.364 131.317C116.908 132.901 116.635 132.997 116.594 132.738C116.484 131.931 116.607 131.85 120.473 130.183C124.258 128.557 124.353 128.53 124.162 129.295Z"/>
</mask>
<path d="M68.0274 1.35599C67.8225 1.61555 67.6176 2.0937 67.5219 2.5582C67.44 2.99536 67.3443 3.44618 67.3034 3.55547C67.2624 3.66476 67.1394 4.15657 67.0438 4.64838C66.9345 5.1402 66.634 6.49268 66.3607 7.65388C66.1012 8.81511 65.664 10.7277 65.4044 11.8889C65.1449 13.0501 64.7077 14.9627 64.4481 16.1239C64.1749 17.2852 63.8744 18.6376 63.7651 19.1294C63.5738 19.9901 63.3279 21.0557 61.9754 26.9438L61.3197 29.7717L60.0218 28.4465C59.2978 27.7088 58.2322 26.7935 57.6448 26.3973C56.2786 25.4547 54.0791 24.4164 52.6993 24.0475C51.2649 23.665 48.9151 23.5421 47.2621 23.7743C45.8277 23.9792 46.3195 23.8016 36.4423 27.5312C28.6416 30.4684 27.2072 31.0012 26.0596 31.4384C16.9338 34.8264 7.16594 38.5696 6.59216 38.8975C4.82984 39.8948 3.01288 41.862 2.53473 43.2691C2.41178 43.6243 2.20686 44.1025 2.07024 44.3347C1.93363 44.5533 1.6604 45.3593 1.45548 46.1107C1.15493 47.2719 1.08662 47.8457 1.03198 49.8676C0.963671 51.9714 0.990994 52.4086 1.25056 53.4878C1.61942 55.0725 2.16587 56.1381 3.13583 57.2584C3.573 57.7502 4.5976 58.9524 5.41728 59.9223C6.25063 60.8923 7.41185 62.2721 8.02661 62.9825C8.64137 63.6929 10.3627 65.7148 11.8655 67.4771C15.1715 71.3706 18.0131 74.7176 20.6497 77.8051C21.7426 79.0756 23.0678 80.6467 23.5869 81.2751C24.1197 81.9035 25.0214 82.9418 25.5815 83.5975C26.1416 84.2533 27.0706 85.3325 27.6444 86.0156C28.6416 87.2041 31.5515 90.6195 39.844 100.346C42.0844 102.969 45.8003 107.341 48.0955 110.046C50.4042 112.751 53.1502 115.975 54.2021 117.218C56.8524 120.319 63.7651 128.434 67.9318 133.339C78.4511 145.702 77.4128 144.555 78.5877 145.183C80.8418 146.385 83.4784 147 86.4703 147C88.4922 147 90.9649 146.604 91.9212 146.126C92.413 145.88 115.596 135.224 126.812 130.087C127.222 129.91 128.206 129.445 128.985 129.09C129.763 128.721 130.419 128.421 130.446 128.421C130.46 128.421 131.198 128.079 132.072 127.669C132.96 127.259 133.684 126.918 133.711 126.918C133.752 126.918 135.87 125.948 137.045 125.388C137.373 125.224 138.233 124.664 138.957 124.117C141.471 122.246 143.028 120.565 143.985 118.707C144.586 117.532 144.572 117.847 144.395 111.016C144.285 107.232 144.285 107.204 143.889 106.166C143.657 105.592 143.315 104.841 143.11 104.513C142.892 104.172 142.646 103.748 142.55 103.557C142.455 103.366 141.854 102.601 141.211 101.849C140.569 101.098 138.752 98.9802 137.195 97.1359C135.638 95.2917 132.837 91.9993 130.979 89.8271C129.121 87.6413 126.607 84.6904 125.405 83.2696C124.189 81.8352 123.165 80.6467 123.124 80.6057C123.083 80.5647 122.509 79.9089 121.84 79.1302C121.184 78.3652 120.337 77.4636 119.968 77.1357C119.189 76.439 119.094 76.6029 121.075 75.2504C125.05 72.5318 129.545 70.264 132.96 69.2531C133.52 69.0891 134.08 68.8705 134.203 68.7749C134.312 68.6656 134.504 68.5837 134.627 68.5837C134.9 68.5837 135.282 68.1465 135.282 67.8186C135.282 67.2995 130.624 58.324 127.372 52.5452C126.607 51.1927 125.993 50.0452 125.993 50.0042C125.993 49.9495 126.157 49.608 126.348 49.2528C126.771 48.5151 126.935 47.108 126.703 46.2746C126.621 45.9877 125.282 43.6653 123.711 41.1243C122.154 38.5696 120.665 36.1242 120.419 35.687C120.173 35.2635 119.749 34.7034 119.476 34.4575C118.984 34.0204 118.971 34.0204 117.523 34.0204H116.061L115.228 32.7498C113.984 30.8509 110.583 25.9192 108.793 23.4328C105.951 19.4846 105.036 18.3234 104.654 18.1595C104.326 18.0229 104.107 18.0912 102.632 18.7606C101.457 19.307 100.992 19.4573 100.992 19.3207C100.992 19.2114 101.511 16.8343 102.154 14.0338C103.656 7.5446 103.916 6.05551 103.656 5.64566C103.41 5.27681 103.342 5.24948 101.197 5.00359C100.227 4.88063 97.1125 4.51176 94.2983 4.17023C85.5823 3.1183 83.6834 2.88606 80.1587 2.46255C73.2051 1.61555 68.9427 1.08276 68.6695 1.01445C68.4646 0.959808 68.287 1.05544 68.0274 1.35599ZM74.3936 3.35056C77.1942 3.69209 81.2653 4.1839 83.4375 4.45712C97.536 6.16479 102.154 6.72491 102.195 6.7659C102.222 6.79321 102.154 7.16208 102.031 7.6129C101.908 8.05006 101.689 8.95172 101.539 9.63478C101.389 10.3042 101.197 11.1102 101.129 11.4108C101.061 11.7113 100.842 12.6676 100.651 13.5283C100.46 14.3889 100.241 15.3452 100.173 15.6458C100.104 15.9464 99.5716 18.2141 99.0114 20.7005C97.7546 26.206 97.5497 27.0531 97.5087 27.0531C97.495 27.0531 97.1808 26.6705 96.812 26.1924C94.5715 23.2962 92.4676 20.7552 92.0578 20.4409C91.4704 20.0038 91.2518 20.0038 89.8037 20.4409L88.6288 20.7961L88.4239 20.4819C86.0878 16.93 81.6478 15.0857 77.5221 15.9327C72.8362 16.889 69.5028 20.6868 69.0793 25.5503C68.9837 26.7115 69.175 28.3509 69.5438 29.4438L69.8034 30.1815L67.44 31.7662C66.1285 32.6406 64.2979 33.9247 63.3552 34.6351C61.5792 35.9603 61.5246 35.9739 61.7842 34.9083C61.8525 34.6078 62.0711 33.6515 62.276 32.7908C62.4672 31.9302 62.7131 30.8509 62.8088 30.4001C63.1093 29.1159 64.7897 21.7934 66.1421 15.7824C66.8252 12.7769 67.44 10.0719 67.5219 9.77141C67.5903 9.47086 67.9045 8.11838 68.205 6.7659C69.052 2.98169 69.1067 2.73579 69.2433 2.73579C69.2843 2.73579 71.6067 3.00902 74.3936 3.35056ZM81.7298 17.5721C83.2735 17.9136 84.5304 18.6376 85.8692 19.9628C86.5249 20.6049 87.0577 21.1923 87.0577 21.2743C87.0577 21.3563 86.7708 21.5202 86.4156 21.6568C85.4457 22.0257 81.2516 23.8699 80.1724 24.4164C79.6669 24.676 79.2161 24.8672 79.2024 24.8399C79.1614 24.7989 79.5986 22.6814 80.0358 20.7825C80.1041 20.4683 80.1314 20.4683 81.0194 20.5502C81.5249 20.6049 82.1943 20.6732 82.5221 20.7142C83.0276 20.7825 83.0959 20.7688 83.0959 20.5229C83.0959 19.9901 82.126 19.471 80.9784 19.3754C80.4456 19.3207 80.432 19.307 80.391 18.7606C80.309 17.6404 79.6942 17.6813 79.3664 18.8289C79.2024 19.389 79.1205 19.4573 78.4374 19.7306C77.2898 20.1814 76.8937 20.4409 76.2926 21.1104C75.0767 22.4902 75.227 24.0749 76.7024 25.3454C77.0166 25.6049 77.2489 25.8509 77.2079 25.8782C77.1805 25.9055 76.3609 26.37 75.3772 26.9164C74.4073 27.4629 73.0958 28.2006 72.4947 28.5695C71.8799 28.9383 71.3198 29.2389 71.2378 29.2389C71.0193 29.2389 70.6641 27.4492 70.6641 26.3153C70.6641 23.8153 71.5247 21.6978 73.2324 19.9765C75.5275 17.6813 78.4647 16.848 81.7298 17.5721ZM106.17 22.5175C108.165 25.2224 112.823 31.9165 113.752 33.3646L114.258 34.157H113.807C113.561 34.1706 112.768 34.2799 112.031 34.4029L110.719 34.6488L109.449 32.8728C106.621 28.87 103.957 25.4137 103.643 25.3317C103.26 25.2361 100.774 25.8509 100.022 26.247C99.7082 26.3973 99.4349 26.4929 99.394 26.452C99.353 26.411 99.3803 26.1104 99.4759 25.7962C99.5579 25.4683 99.7765 24.4984 99.9677 23.6377C100.159 22.777 100.337 21.93 100.378 21.7798C100.419 21.5885 100.678 21.3836 101.088 21.206C101.457 21.0557 102.263 20.6732 102.905 20.3726C103.547 20.0721 104.093 19.8262 104.134 19.8262C104.175 19.8262 105.091 21.0284 106.17 22.5175ZM78.8609 20.9054C78.8609 21.124 78.0275 24.7853 77.9729 24.8536C77.9319 24.8809 77.686 24.7306 77.4128 24.5257C76.8253 24.0749 76.4838 23.3508 76.5931 22.7634C76.7024 22.1759 77.3718 21.4109 78.0685 21.0557C78.7243 20.7278 78.8609 20.7142 78.8609 20.9054ZM93.2463 24.2115C95.8147 27.4356 98.8748 31.493 101.184 34.7581L102.905 37.2035L101.443 37.9822C96.6753 40.4958 92.7955 43.6926 90.1042 47.3539C88.984 48.8703 88.8337 49.2801 88.8337 50.9741C88.8337 54.1982 90.0496 56.6026 92.5223 58.242C93.8065 59.1027 94.6808 59.3349 96.4841 59.3486C98.8885 59.3622 99.9677 58.8841 103.069 56.4114C105.419 54.5398 108.014 52.8048 110.583 51.3976L111.621 50.8239L112.304 51.9441C115.282 56.9442 119.626 65.0454 119.422 65.223C119.394 65.2503 118.752 65.6874 118.001 66.2066C110.569 71.2613 103.328 77.5592 97.618 83.9117C96.8939 84.7314 96.2518 85.3872 96.2109 85.3872C96.1562 85.3872 95.4731 84.8134 94.6944 84.1166C93.9157 83.4199 91.0195 80.8379 88.2463 78.3789C85.4867 75.9198 81.0057 71.9307 78.2735 69.499C75.5548 67.0809 70.5001 62.5726 67.0438 59.4988C53.6283 47.5588 53.8879 47.791 52.9043 46.8894L52.2895 46.3293L53.1092 45.4959C54.0518 44.5396 57.7677 41.1106 58.9836 40.086C66.511 33.7608 75.1177 28.3509 83.9839 24.3891C85.2681 23.8153 90.76 21.6431 91.0469 21.6022C91.1015 21.5885 92.0851 22.777 93.2463 24.2115ZM51.8387 25.482C53.6147 25.8645 55.3633 26.6842 57.071 27.9547C58.3278 28.8837 58.7104 29.2389 59.7486 30.4684C60.2268 31.0285 60.6776 31.534 60.7459 31.5886C60.8142 31.6296 60.7596 32.1897 60.6229 32.8865C60.2131 34.881 60.2951 34.8264 59.2978 33.8428C57.918 32.4766 56.06 31.3427 54.4753 30.9329C53.5873 30.687 51.825 30.7006 50.7731 30.9465C49.7621 31.1788 46.8933 32.1488 45.5954 32.6815C44.7484 33.0367 39.2839 35.1269 36.3057 36.2335C33.7373 37.1898 32.7947 37.545 25.6771 40.2226C21.565 41.7664 18.1224 43.0369 18.0267 43.0369C17.412 43.0369 15.3354 44.9495 14.6934 46.097C14.3655 46.7118 14.3108 46.9304 14.3245 47.955C14.3245 49.4304 14.5431 49.8676 16.3054 51.9851C16.4284 52.1354 17.6579 53.6108 19.0377 55.2638C20.4175 56.9168 22.3711 59.2529 23.382 60.4551C24.4066 61.6573 26.4968 64.1437 28.0405 65.988C29.5843 67.8323 32.781 71.6438 35.1581 74.4581C40.1172 80.3598 46.2512 87.6686 50.3086 92.4911C51.8523 94.3354 54.9261 97.983 57.1393 100.62C59.3524 103.243 62.9727 107.546 65.1722 110.183C75.5548 122.546 75.1177 122.068 77.1532 123.639C78.5603 124.732 78.8472 124.923 79.8992 125.456C82.0577 126.535 84.1479 126.986 86.0604 126.767C87.1943 126.645 89.025 126.098 89.6261 125.716C89.8993 125.538 93.137 123.967 95.5961 122.819C96.0469 122.614 97.2218 122.054 98.1918 121.59C99.1754 121.125 101.102 120.196 102.495 119.541C103.889 118.885 105.828 117.956 106.798 117.491C107.782 117.027 109.654 116.139 110.965 115.511C112.277 114.896 114.312 113.926 115.473 113.366C116.635 112.806 119.749 111.344 122.372 110.101L127.154 107.86L128.247 106.767C129.107 105.907 129.476 105.401 129.995 104.404C130.556 103.284 130.638 103.024 130.638 102.286C130.624 101.794 130.501 101.057 130.323 100.524C130.036 99.677 129.668 99.1988 124.831 93.4337C113.424 79.8543 114.107 80.7013 114.353 80.4144C114.558 80.1958 117.017 78.1876 118.124 77.3543L118.534 77.0401L118.711 77.4772C119.025 78.2149 119.148 78.3789 129.954 91.0566C132.455 93.9802 135.091 97.095 135.829 97.9556C136.567 98.8163 138.001 100.51 139.026 101.713C141.744 104.909 142.687 106.603 142.714 108.338C142.742 110.019 142.236 111.398 141.348 112.109C140.351 112.888 137.974 114.035 122.304 121.221C115.501 124.336 109.394 127.15 108.711 127.464C108.042 127.778 104.162 129.568 100.104 131.426C96.0469 133.284 91.7163 135.306 90.4867 135.921C89.2572 136.522 87.8774 137.136 87.4129 137.3C85.6096 137.888 83.1506 137.738 81.4156 136.918C80.4729 136.481 79.7352 135.77 77.809 133.462C76.5111 131.904 71.1149 125.483 65.5957 118.926C61.4973 114.035 54.9261 106.221 50.8551 101.371C40.9779 89.6085 33.4504 80.633 32.4805 79.5128C31.8657 78.8024 29.9805 76.5482 28.2864 74.5264C26.5924 72.4908 23.6416 68.9935 21.7426 66.7394C18.1087 62.4087 10.7725 53.6791 8.72334 51.2474C8.05393 50.455 7.1796 49.4304 6.7561 48.9796C5.0211 47.108 3.9965 45.3593 3.9965 44.2527C3.9965 43.8156 4.10579 43.474 4.37902 43.0232C4.80252 42.3538 6.12768 41.097 7.07031 40.4412C7.56212 40.0997 13.3955 37.8592 25.8547 33.2007C26.4148 32.9821 27.3711 32.6269 27.9722 32.4083C31.8384 30.9602 43.232 26.6705 44.3932 26.2197C45.6091 25.7552 46.702 25.482 48.3277 25.2224C48.9698 25.1268 50.7731 25.2634 51.8387 25.482ZM104.544 28.8017C106.512 31.4247 108.916 34.8127 108.916 34.9357C108.916 35.004 108.192 35.2772 107.318 35.5641C106.43 35.851 105.419 36.1925 105.063 36.3428L104.421 36.6024L102.96 34.5258C102.154 33.3783 100.883 31.6296 100.145 30.6323C98.6426 28.6105 98.6562 28.6378 99.6808 28.1186C100.664 27.6132 102.277 27.0667 102.768 27.0667C103.219 27.0667 103.315 27.1487 104.544 28.8017ZM53.8742 32.4356C54.8988 32.6542 55.5956 32.9821 56.7841 33.7881C58.3415 34.84 59.7896 36.6024 59.612 37.2308C59.571 37.4084 58.6557 38.2964 57.4945 39.2936C56.3743 40.2636 54.489 41.9849 53.3141 43.1188L51.1829 45.209L50.2403 44.3484C49.0518 43.2828 48.7649 43.1188 48.396 43.3101C48.1228 43.4604 47.8495 43.8566 47.8495 44.1161C47.8495 44.1981 48.2594 44.6489 48.7649 45.1134C49.2703 45.5916 50.3359 46.5888 51.1283 47.3402C52.672 48.8293 52.8496 48.9796 59.3934 54.7857C61.7978 56.9305 63.7924 58.7065 63.8334 58.7475C63.8744 58.7884 66.1148 60.783 68.8198 63.1874C71.5247 65.5918 73.7652 67.5864 73.8062 67.6274C73.8472 67.6683 75.8144 69.4307 78.1778 71.5345C80.5412 73.6384 84.9949 77.6002 88.0687 80.3325C91.1425 83.0784 93.9841 85.5921 94.3802 85.9336C94.7764 86.2752 95.1043 86.6167 95.1043 86.6987C95.118 86.7806 94.6125 87.0265 93.9977 87.2178C92.8638 87.5866 90.555 88.5429 89.3802 89.1167C89.0523 89.2807 88.6834 89.5812 88.5741 89.7725C88.3965 90.1003 88.3965 90.1686 88.6015 90.4965C88.7517 90.7151 88.9703 90.8517 89.1616 90.8517C89.3392 90.8517 90.1862 90.5102 91.0605 90.1003C94.6944 88.3653 100.637 86.8353 105.091 86.4664C106.033 86.3981 107.14 86.3025 107.55 86.2615L108.301 86.1795L110.596 83.9117C112.577 81.9445 112.919 81.6576 113.055 81.8489C113.151 81.9718 114.462 83.5429 115.965 85.3325C122.127 92.655 127.591 99.1578 128.083 99.7589C128.37 100.1 128.725 100.756 128.875 101.221C129.135 101.958 129.148 102.15 128.998 102.71C128.616 104.254 127.14 106.043 125.678 106.74C125.132 106.999 123.711 107.696 122.509 108.27C121.307 108.857 119.244 109.841 117.932 110.456C116.621 111.084 114.749 111.972 113.766 112.437C112.796 112.901 111.498 113.516 110.897 113.803C110.296 114.076 106.607 115.838 102.7 117.696C98.7929 119.554 94.9267 121.399 94.0933 121.795C93.2737 122.177 91.484 123.038 90.1315 123.68C88.7244 124.363 87.2626 124.951 86.7162 125.087C84.2845 125.647 81.2516 124.773 78.4511 122.669C76.5794 121.262 75.951 120.579 70.0356 113.543C64.2842 106.672 58.8743 100.223 55.2813 95.9611C51.5654 91.5348 44.3932 82.9964 39.8576 77.6002C37.8084 75.1548 34.4204 71.1247 32.3302 68.652C22.6306 57.1081 20.7863 54.9223 19.6661 53.5698C18.9967 52.7774 18.2317 51.8758 17.9584 51.5752C17.4393 51.0015 17.1114 50.5643 16.3327 49.4031C15.9502 48.8566 15.8819 48.6244 15.8819 47.9686C15.8819 47.026 16.3191 46.261 17.3437 45.373C17.9584 44.8402 18.7508 44.5123 26.005 41.78C30.3903 40.1407 34.2975 38.6789 34.6663 38.5423C35.5816 38.2007 36.7702 37.7499 41.7702 35.8783C44.1063 35.004 46.1555 34.2116 46.3468 34.1023C46.9889 33.7471 50.8141 32.5176 51.6201 32.3947C52.7813 32.2307 52.8769 32.2307 53.8742 32.4356ZM118.26 35.6597C118.493 35.6597 118.725 35.933 119.244 36.78C119.613 37.4084 121.102 39.8538 122.536 42.2172L125.173 46.5205V47.3675C125.173 48.2145 124.968 48.638 124.558 48.638C124.463 48.638 123.725 48.4195 122.946 48.1599C121.293 47.6134 119.968 47.4085 117.919 47.3949C115.473 47.3675 114.49 47.6817 110.583 49.6763C107.195 51.425 103.342 53.9796 101.197 55.9059C100.828 56.2474 99.9951 56.7939 99.3666 57.1218L98.2327 57.7229H96.5661C94.9813 57.7229 94.872 57.7092 94.025 57.2857C92.2627 56.4114 90.9785 54.7037 90.5414 52.6681C90.2272 51.2064 90.2682 50.1818 90.678 49.3758C91.525 47.6681 94.4622 44.5669 97.1125 42.5724C101.771 39.0751 106.634 36.9849 112.536 35.9193C113.465 35.7417 116.976 35.5368 117.577 35.6051C117.796 35.6324 118.096 35.6597 118.26 35.6597ZM4.05114 48.1462C4.50197 48.761 5.18504 49.5943 5.56756 50.0042C5.96374 50.414 8.08125 52.9004 10.2944 55.537C14.3655 60.4005 18.4502 65.2639 24.6252 72.6138C26.5241 74.8679 29.9121 78.898 32.1526 81.562C36.1417 86.3161 39.68 90.5238 46.62 98.789C48.5326 101.07 51.9206 105.087 54.1338 107.724C56.3469 110.374 59.8852 114.582 61.9891 117.082C68.6968 125.06 72.5357 129.623 75.6915 133.38C79.2981 137.683 79.9265 138.229 82.0713 138.885C82.7134 139.076 83.3418 139.131 84.9402 139.131C86.7435 139.145 87.0987 139.104 87.8774 138.83C88.861 138.475 92.2081 136.932 92.5223 136.672C92.6316 136.59 93.2463 136.289 93.8884 136.003C94.5305 135.716 95.5688 135.238 96.2109 134.937C96.8529 134.65 103.738 131.481 111.512 127.915C119.285 124.349 126.047 121.235 126.539 121.016C127.031 120.784 127.769 120.442 128.179 120.251C128.588 120.073 129.326 119.732 129.818 119.5C130.31 119.281 131.047 118.94 131.457 118.748C131.867 118.571 132.591 118.229 133.069 118.024C133.534 117.806 134.299 117.45 134.777 117.232C135.241 117.027 135.761 116.795 135.938 116.754C136.116 116.699 136.635 116.426 137.099 116.166C137.564 115.907 138.752 115.306 139.722 114.841C140.706 114.363 141.785 113.762 142.127 113.489L142.769 113.01L142.851 113.571C143.042 114.855 142.974 117.136 142.742 117.683C141.84 119.814 138.807 122.669 135.911 124.131C135.105 124.554 134.394 124.855 134.367 124.814C134.326 124.773 134.353 124.39 134.449 123.967C134.695 122.683 134.654 122.177 134.258 121.918C133.971 121.74 133.834 121.713 133.575 121.836C133.206 122 133.097 122.314 132.728 124.39L132.482 125.743L129.285 127.218C127.523 128.038 126.034 128.694 125.965 128.694C125.897 128.694 125.87 128.584 125.911 128.448C126.17 127.533 126.143 127.341 125.801 126.986C125.597 126.781 125.31 126.645 125.077 126.645C124.531 126.645 115.596 130.497 115.378 130.825C115.173 131.139 114.763 133.366 114.859 133.639C114.9 133.762 113.971 134.254 111.88 135.21C110.214 135.975 107.413 137.259 105.665 138.065C103.916 138.871 102.468 139.5 102.44 139.473C102.413 139.445 102.468 138.899 102.577 138.257C102.673 137.615 102.768 136.904 102.768 136.672C102.768 135.825 101.812 135.511 101.416 136.235C101.334 136.412 101.115 137.396 100.924 138.434C100.746 139.473 100.583 140.361 100.542 140.388C100.514 140.415 98.342 141.426 95.719 142.642C90.678 144.964 89.8856 145.238 87.5359 145.429C85.1861 145.62 81.7161 144.978 79.7216 143.967C78.7243 143.475 78.4511 143.257 77.5221 142.164C76.2106 140.634 74.0521 138.106 70.9646 134.459L68.6149 131.699V129.035V126.371L68.2597 126.139C67.9318 125.934 67.8635 125.934 67.5356 126.112C67.1804 126.303 67.1804 126.344 67.1121 128.079L67.0438 129.855L64.7214 127.136C63.4509 125.634 61.4836 123.325 60.3497 122.013C59.2295 120.688 57.6311 118.803 56.7978 117.833C53.6556 114.144 50.3359 110.265 48.8878 108.543C48.0545 107.56 46.8796 106.18 46.2785 105.469C42.4806 101.016 40.1172 98.2425 38.0817 95.8381C35.8275 93.2015 33.2729 90.196 30.1581 86.5484C29.3247 85.5648 28.0815 84.103 27.3848 83.297L26.1279 81.8215V78.9117C26.1279 76.1657 26.1143 75.9745 25.8411 75.6329C25.5132 75.2094 25.3083 75.1958 24.8848 75.5373C24.5705 75.7832 24.5569 75.9062 24.4886 77.8051L24.4203 79.8133L22.3028 77.3133C21.1415 75.9471 18.8191 73.2149 17.1524 71.2613L14.1059 67.6957V65.2503C14.1059 63.1601 14.0786 62.7639 13.8737 62.5453C13.6005 62.2448 13.177 62.2311 12.8491 62.5317C12.6442 62.7229 12.6032 62.9688 12.6032 64.2393C12.6032 65.0454 12.5485 65.7148 12.4939 65.7148C12.4256 65.7148 12.166 65.4552 11.9064 65.1273C11.6469 64.8131 10.554 63.5016 9.46105 62.2311C8.36814 60.9469 7.31622 59.7038 7.09763 59.4579C6.72878 59.007 6.72878 58.9797 6.72878 57.0125C6.72878 54.854 6.61948 54.5124 5.9774 54.5124C5.48559 54.5124 5.29433 54.8813 5.22602 56.0562L5.15772 57.1491L4.29705 56.1655C3.31343 55.0725 3.02654 54.4031 2.68501 52.4359C2.4391 51.0561 2.48008 49.1982 2.78064 47.4768C2.91725 46.6708 2.97189 46.5615 3.09485 46.7801C3.17682 46.9167 3.61398 47.5315 4.05114 48.1462ZM118.356 49.7719C118.998 50.8512 120.569 53.6791 121.416 55.2638C123.219 58.6108 126.676 65.7967 126.676 66.1793C126.676 66.2885 126.143 66.5481 125.433 66.8077C121.594 68.1738 116.088 71.6301 110.979 75.8925C108.001 78.3652 103.356 83.0237 102.017 84.8817C101.757 85.2369 101.539 85.3052 99.8311 85.6604C98.7929 85.879 97.9185 86.0429 97.8912 86.0156C97.8092 85.9336 101.102 82.4363 103.328 80.2641C108.096 75.5919 113.424 71.2203 118.889 67.5044C120.132 66.6574 121.239 65.8241 121.348 65.6465C121.525 65.3459 121.512 65.2776 121.252 64.9224C121.088 64.7038 120.678 63.9524 120.323 63.2421C118.848 60.3049 115.514 54.2392 113.793 51.384L113.11 50.2364L113.411 49.9905C113.984 49.526 116.075 48.9796 117.454 48.9249C117.823 48.9113 117.919 49.0069 118.356 49.7719ZM122.659 49.7173L124.258 50.2501L125.692 52.7501C128.698 58.0644 133.424 67.1082 133.343 67.3815C133.315 67.4634 132.878 67.641 132.373 67.7913C131.17 68.1192 129.285 68.8569 127.386 69.7585C121.908 72.3405 115.2 77.1903 109.667 82.5592L107.481 84.6768L106.184 84.7724C105.473 84.8134 104.722 84.8954 104.517 84.9227C104.298 84.9637 104.134 84.9363 104.134 84.868C104.134 84.7997 104.859 83.9391 105.76 82.9828C111.962 76.2477 120.87 69.9225 126.922 67.9552C128.452 67.4634 128.725 67.3131 128.725 66.958C128.725 66.2885 123.902 56.425 121.28 51.7255C120.487 50.3047 119.845 49.1025 119.845 49.0752C119.845 48.9386 121.184 49.2391 122.659 49.7173ZM124.162 129.295C124.107 129.541 123.37 129.923 120.364 131.317C116.908 132.901 116.635 132.997 116.594 132.738C116.484 131.931 116.607 131.85 120.473 130.183C124.258 128.557 124.353 128.53 124.162 129.295Z" fill="#FFCCDE"/>
<path d="M68.0274 1.35599C67.8225 1.61555 67.6176 2.0937 67.5219 2.5582C67.44 2.99536 67.3443 3.44618 67.3034 3.55547C67.2624 3.66476 67.1394 4.15657 67.0438 4.64838C66.9345 5.1402 66.634 6.49268 66.3607 7.65388C66.1012 8.81511 65.664 10.7277 65.4044 11.8889C65.1449 13.0501 64.7077 14.9627 64.4481 16.1239C64.1749 17.2852 63.8744 18.6376 63.7651 19.1294C63.5738 19.9901 63.3279 21.0557 61.9754 26.9438L61.3197 29.7717L60.0218 28.4465C59.2978 27.7088 58.2322 26.7935 57.6448 26.3973C56.2786 25.4547 54.0791 24.4164 52.6993 24.0475C51.2649 23.665 48.9151 23.5421 47.2621 23.7743C45.8277 23.9792 46.3195 23.8016 36.4423 27.5312C28.6416 30.4684 27.2072 31.0012 26.0596 31.4384C16.9338 34.8264 7.16594 38.5696 6.59216 38.8975C4.82984 39.8948 3.01288 41.862 2.53473 43.2691C2.41178 43.6243 2.20686 44.1025 2.07024 44.3347C1.93363 44.5533 1.6604 45.3593 1.45548 46.1107C1.15493 47.2719 1.08662 47.8457 1.03198 49.8676C0.963671 51.9714 0.990994 52.4086 1.25056 53.4878C1.61942 55.0725 2.16587 56.1381 3.13583 57.2584C3.573 57.7502 4.5976 58.9524 5.41728 59.9223C6.25063 60.8923 7.41185 62.2721 8.02661 62.9825C8.64137 63.6929 10.3627 65.7148 11.8655 67.4771C15.1715 71.3706 18.0131 74.7176 20.6497 77.8051C21.7426 79.0756 23.0678 80.6467 23.5869 81.2751C24.1197 81.9035 25.0214 82.9418 25.5815 83.5975C26.1416 84.2533 27.0706 85.3325 27.6444 86.0156C28.6416 87.2041 31.5515 90.6195 39.844 100.346C42.0844 102.969 45.8003 107.341 48.0955 110.046C50.4042 112.751 53.1502 115.975 54.2021 117.218C56.8524 120.319 63.7651 128.434 67.9318 133.339C78.4511 145.702 77.4128 144.555 78.5877 145.183C80.8418 146.385 83.4784 147 86.4703 147C88.4922 147 90.9649 146.604 91.9212 146.126C92.413 145.88 115.596 135.224 126.812 130.087C127.222 129.91 128.206 129.445 128.985 129.09C129.763 128.721 130.419 128.421 130.446 128.421C130.46 128.421 131.198 128.079 132.072 127.669C132.96 127.259 133.684 126.918 133.711 126.918C133.752 126.918 135.87 125.948 137.045 125.388C137.373 125.224 138.233 124.664 138.957 124.117C141.471 122.246 143.028 120.565 143.985 118.707C144.586 117.532 144.572 117.847 144.395 111.016C144.285 107.232 144.285 107.204 143.889 106.166C143.657 105.592 143.315 104.841 143.11 104.513C142.892 104.172 142.646 103.748 142.55 103.557C142.455 103.366 141.854 102.601 141.211 101.849C140.569 101.098 138.752 98.9802 137.195 97.1359C135.638 95.2917 132.837 91.9993 130.979 89.8271C129.121 87.6413 126.607 84.6904 125.405 83.2696C124.189 81.8352 123.165 80.6467 123.124 80.6057C123.083 80.5647 122.509 79.9089 121.84 79.1302C121.184 78.3652 120.337 77.4636 119.968 77.1357C119.189 76.439 119.094 76.6029 121.075 75.2504C125.05 72.5318 129.545 70.264 132.96 69.2531C133.52 69.0891 134.08 68.8705 134.203 68.7749C134.312 68.6656 134.504 68.5837 134.627 68.5837C134.9 68.5837 135.282 68.1465 135.282 67.8186C135.282 67.2995 130.624 58.324 127.372 52.5452C126.607 51.1927 125.993 50.0452 125.993 50.0042C125.993 49.9495 126.157 49.608 126.348 49.2528C126.771 48.5151 126.935 47.108 126.703 46.2746C126.621 45.9877 125.282 43.6653 123.711 41.1243C122.154 38.5696 120.665 36.1242 120.419 35.687C120.173 35.2635 119.749 34.7034 119.476 34.4575C118.984 34.0204 118.971 34.0204 117.523 34.0204H116.061L115.228 32.7498C113.984 30.8509 110.583 25.9192 108.793 23.4328C105.951 19.4846 105.036 18.3234 104.654 18.1595C104.326 18.0229 104.107 18.0912 102.632 18.7606C101.457 19.307 100.992 19.4573 100.992 19.3207C100.992 19.2114 101.511 16.8343 102.154 14.0338C103.656 7.5446 103.916 6.05551 103.656 5.64566C103.41 5.27681 103.342 5.24948 101.197 5.00359C100.227 4.88063 97.1125 4.51176 94.2983 4.17023C85.5823 3.1183 83.6834 2.88606 80.1587 2.46255C73.2051 1.61555 68.9427 1.08276 68.6695 1.01445C68.4646 0.959808 68.287 1.05544 68.0274 1.35599ZM74.3936 3.35056C77.1942 3.69209 81.2653 4.1839 83.4375 4.45712C97.536 6.16479 102.154 6.72491 102.195 6.7659C102.222 6.79321 102.154 7.16208 102.031 7.6129C101.908 8.05006 101.689 8.95172 101.539 9.63478C101.389 10.3042 101.197 11.1102 101.129 11.4108C101.061 11.7113 100.842 12.6676 100.651 13.5283C100.46 14.3889 100.241 15.3452 100.173 15.6458C100.104 15.9464 99.5716 18.2141 99.0114 20.7005C97.7546 26.206 97.5497 27.0531 97.5087 27.0531C97.495 27.0531 97.1808 26.6705 96.812 26.1924C94.5715 23.2962 92.4676 20.7552 92.0578 20.4409C91.4704 20.0038 91.2518 20.0038 89.8037 20.4409L88.6288 20.7961L88.4239 20.4819C86.0878 16.93 81.6478 15.0857 77.5221 15.9327C72.8362 16.889 69.5028 20.6868 69.0793 25.5503C68.9837 26.7115 69.175 28.3509 69.5438 29.4438L69.8034 30.1815L67.44 31.7662C66.1285 32.6406 64.2979 33.9247 63.3552 34.6351C61.5792 35.9603 61.5246 35.9739 61.7842 34.9083C61.8525 34.6078 62.0711 33.6515 62.276 32.7908C62.4672 31.9302 62.7131 30.8509 62.8088 30.4001C63.1093 29.1159 64.7897 21.7934 66.1421 15.7824C66.8252 12.7769 67.44 10.0719 67.5219 9.77141C67.5903 9.47086 67.9045 8.11838 68.205 6.7659C69.052 2.98169 69.1067 2.73579 69.2433 2.73579C69.2843 2.73579 71.6067 3.00902 74.3936 3.35056ZM81.7298 17.5721C83.2735 17.9136 84.5304 18.6376 85.8692 19.9628C86.5249 20.6049 87.0577 21.1923 87.0577 21.2743C87.0577 21.3563 86.7708 21.5202 86.4156 21.6568C85.4457 22.0257 81.2516 23.8699 80.1724 24.4164C79.6669 24.676 79.2161 24.8672 79.2024 24.8399C79.1614 24.7989 79.5986 22.6814 80.0358 20.7825C80.1041 20.4683 80.1314 20.4683 81.0194 20.5502C81.5249 20.6049 82.1943 20.6732 82.5221 20.7142C83.0276 20.7825 83.0959 20.7688 83.0959 20.5229C83.0959 19.9901 82.126 19.471 80.9784 19.3754C80.4456 19.3207 80.432 19.307 80.391 18.7606C80.309 17.6404 79.6942 17.6813 79.3664 18.8289C79.2024 19.389 79.1205 19.4573 78.4374 19.7306C77.2898 20.1814 76.8937 20.4409 76.2926 21.1104C75.0767 22.4902 75.227 24.0749 76.7024 25.3454C77.0166 25.6049 77.2489 25.8509 77.2079 25.8782C77.1805 25.9055 76.3609 26.37 75.3772 26.9164C74.4073 27.4629 73.0958 28.2006 72.4947 28.5695C71.8799 28.9383 71.3198 29.2389 71.2378 29.2389C71.0193 29.2389 70.6641 27.4492 70.6641 26.3153C70.6641 23.8153 71.5247 21.6978 73.2324 19.9765C75.5275 17.6813 78.4647 16.848 81.7298 17.5721ZM106.17 22.5175C108.165 25.2224 112.823 31.9165 113.752 33.3646L114.258 34.157H113.807C113.561 34.1706 112.768 34.2799 112.031 34.4029L110.719 34.6488L109.449 32.8728C106.621 28.87 103.957 25.4137 103.643 25.3317C103.26 25.2361 100.774 25.8509 100.022 26.247C99.7082 26.3973 99.4349 26.4929 99.394 26.452C99.353 26.411 99.3803 26.1104 99.4759 25.7962C99.5579 25.4683 99.7765 24.4984 99.9677 23.6377C100.159 22.777 100.337 21.93 100.378 21.7798C100.419 21.5885 100.678 21.3836 101.088 21.206C101.457 21.0557 102.263 20.6732 102.905 20.3726C103.547 20.0721 104.093 19.8262 104.134 19.8262C104.175 19.8262 105.091 21.0284 106.17 22.5175ZM78.8609 20.9054C78.8609 21.124 78.0275 24.7853 77.9729 24.8536C77.9319 24.8809 77.686 24.7306 77.4128 24.5257C76.8253 24.0749 76.4838 23.3508 76.5931 22.7634C76.7024 22.1759 77.3718 21.4109 78.0685 21.0557C78.7243 20.7278 78.8609 20.7142 78.8609 20.9054ZM93.2463 24.2115C95.8147 27.4356 98.8748 31.493 101.184 34.7581L102.905 37.2035L101.443 37.9822C96.6753 40.4958 92.7955 43.6926 90.1042 47.3539C88.984 48.8703 88.8337 49.2801 88.8337 50.9741C88.8337 54.1982 90.0496 56.6026 92.5223 58.242C93.8065 59.1027 94.6808 59.3349 96.4841 59.3486C98.8885 59.3622 99.9677 58.8841 103.069 56.4114C105.419 54.5398 108.014 52.8048 110.583 51.3976L111.621 50.8239L112.304 51.9441C115.282 56.9442 119.626 65.0454 119.422 65.223C119.394 65.2503 118.752 65.6874 118.001 66.2066C110.569 71.2613 103.328 77.5592 97.618 83.9117C96.8939 84.7314 96.2518 85.3872 96.2109 85.3872C96.1562 85.3872 95.4731 84.8134 94.6944 84.1166C93.9157 83.4199 91.0195 80.8379 88.2463 78.3789C85.4867 75.9198 81.0057 71.9307 78.2735 69.499C75.5548 67.0809 70.5001 62.5726 67.0438 59.4988C53.6283 47.5588 53.8879 47.791 52.9043 46.8894L52.2895 46.3293L53.1092 45.4959C54.0518 44.5396 57.7677 41.1106 58.9836 40.086C66.511 33.7608 75.1177 28.3509 83.9839 24.3891C85.2681 23.8153 90.76 21.6431 91.0469 21.6022C91.1015 21.5885 92.0851 22.777 93.2463 24.2115ZM51.8387 25.482C53.6147 25.8645 55.3633 26.6842 57.071 27.9547C58.3278 28.8837 58.7104 29.2389 59.7486 30.4684C60.2268 31.0285 60.6776 31.534 60.7459 31.5886C60.8142 31.6296 60.7596 32.1897 60.6229 32.8865C60.2131 34.881 60.2951 34.8264 59.2978 33.8428C57.918 32.4766 56.06 31.3427 54.4753 30.9329C53.5873 30.687 51.825 30.7006 50.7731 30.9465C49.7621 31.1788 46.8933 32.1488 45.5954 32.6815C44.7484 33.0367 39.2839 35.1269 36.3057 36.2335C33.7373 37.1898 32.7947 37.545 25.6771 40.2226C21.565 41.7664 18.1224 43.0369 18.0267 43.0369C17.412 43.0369 15.3354 44.9495 14.6934 46.097C14.3655 46.7118 14.3108 46.9304 14.3245 47.955C14.3245 49.4304 14.5431 49.8676 16.3054 51.9851C16.4284 52.1354 17.6579 53.6108 19.0377 55.2638C20.4175 56.9168 22.3711 59.2529 23.382 60.4551C24.4066 61.6573 26.4968 64.1437 28.0405 65.988C29.5843 67.8323 32.781 71.6438 35.1581 74.4581C40.1172 80.3598 46.2512 87.6686 50.3086 92.4911C51.8523 94.3354 54.9261 97.983 57.1393 100.62C59.3524 103.243 62.9727 107.546 65.1722 110.183C75.5548 122.546 75.1177 122.068 77.1532 123.639C78.5603 124.732 78.8472 124.923 79.8992 125.456C82.0577 126.535 84.1479 126.986 86.0604 126.767C87.1943 126.645 89.025 126.098 89.6261 125.716C89.8993 125.538 93.137 123.967 95.5961 122.819C96.0469 122.614 97.2218 122.054 98.1918 121.59C99.1754 121.125 101.102 120.196 102.495 119.541C103.889 118.885 105.828 117.956 106.798 117.491C107.782 117.027 109.654 116.139 110.965 115.511C112.277 114.896 114.312 113.926 115.473 113.366C116.635 112.806 119.749 111.344 122.372 110.101L127.154 107.86L128.247 106.767C129.107 105.907 129.476 105.401 129.995 104.404C130.556 103.284 130.638 103.024 130.638 102.286C130.624 101.794 130.501 101.057 130.323 100.524C130.036 99.677 129.668 99.1988 124.831 93.4337C113.424 79.8543 114.107 80.7013 114.353 80.4144C114.558 80.1958 117.017 78.1876 118.124 77.3543L118.534 77.0401L118.711 77.4772C119.025 78.2149 119.148 78.3789 129.954 91.0566C132.455 93.9802 135.091 97.095 135.829 97.9556C136.567 98.8163 138.001 100.51 139.026 101.713C141.744 104.909 142.687 106.603 142.714 108.338C142.742 110.019 142.236 111.398 141.348 112.109C140.351 112.888 137.974 114.035 122.304 121.221C115.501 124.336 109.394 127.15 108.711 127.464C108.042 127.778 104.162 129.568 100.104 131.426C96.0469 133.284 91.7163 135.306 90.4867 135.921C89.2572 136.522 87.8774 137.136 87.4129 137.3C85.6096 137.888 83.1506 137.738 81.4156 136.918C80.4729 136.481 79.7352 135.77 77.809 133.462C76.5111 131.904 71.1149 125.483 65.5957 118.926C61.4973 114.035 54.9261 106.221 50.8551 101.371C40.9779 89.6085 33.4504 80.633 32.4805 79.5128C31.8657 78.8024 29.9805 76.5482 28.2864 74.5264C26.5924 72.4908 23.6416 68.9935 21.7426 66.7394C18.1087 62.4087 10.7725 53.6791 8.72334 51.2474C8.05393 50.455 7.1796 49.4304 6.7561 48.9796C5.0211 47.108 3.9965 45.3593 3.9965 44.2527C3.9965 43.8156 4.10579 43.474 4.37902 43.0232C4.80252 42.3538 6.12768 41.097 7.07031 40.4412C7.56212 40.0997 13.3955 37.8592 25.8547 33.2007C26.4148 32.9821 27.3711 32.6269 27.9722 32.4083C31.8384 30.9602 43.232 26.6705 44.3932 26.2197C45.6091 25.7552 46.702 25.482 48.3277 25.2224C48.9698 25.1268 50.7731 25.2634 51.8387 25.482ZM104.544 28.8017C106.512 31.4247 108.916 34.8127 108.916 34.9357C108.916 35.004 108.192 35.2772 107.318 35.5641C106.43 35.851 105.419 36.1925 105.063 36.3428L104.421 36.6024L102.96 34.5258C102.154 33.3783 100.883 31.6296 100.145 30.6323C98.6426 28.6105 98.6562 28.6378 99.6808 28.1186C100.664 27.6132 102.277 27.0667 102.768 27.0667C103.219 27.0667 103.315 27.1487 104.544 28.8017ZM53.8742 32.4356C54.8988 32.6542 55.5956 32.9821 56.7841 33.7881C58.3415 34.84 59.7896 36.6024 59.612 37.2308C59.571 37.4084 58.6557 38.2964 57.4945 39.2936C56.3743 40.2636 54.489 41.9849 53.3141 43.1188L51.1829 45.209L50.2403 44.3484C49.0518 43.2828 48.7649 43.1188 48.396 43.3101C48.1228 43.4604 47.8495 43.8566 47.8495 44.1161C47.8495 44.1981 48.2594 44.6489 48.7649 45.1134C49.2703 45.5916 50.3359 46.5888 51.1283 47.3402C52.672 48.8293 52.8496 48.9796 59.3934 54.7857C61.7978 56.9305 63.7924 58.7065 63.8334 58.7475C63.8744 58.7884 66.1148 60.783 68.8198 63.1874C71.5247 65.5918 73.7652 67.5864 73.8062 67.6274C73.8472 67.6683 75.8144 69.4307 78.1778 71.5345C80.5412 73.6384 84.9949 77.6002 88.0687 80.3325C91.1425 83.0784 93.9841 85.5921 94.3802 85.9336C94.7764 86.2752 95.1043 86.6167 95.1043 86.6987C95.118 86.7806 94.6125 87.0265 93.9977 87.2178C92.8638 87.5866 90.555 88.5429 89.3802 89.1167C89.0523 89.2807 88.6834 89.5812 88.5741 89.7725C88.3965 90.1003 88.3965 90.1686 88.6015 90.4965C88.7517 90.7151 88.9703 90.8517 89.1616 90.8517C89.3392 90.8517 90.1862 90.5102 91.0605 90.1003C94.6944 88.3653 100.637 86.8353 105.091 86.4664C106.033 86.3981 107.14 86.3025 107.55 86.2615L108.301 86.1795L110.596 83.9117C112.577 81.9445 112.919 81.6576 113.055 81.8489C113.151 81.9718 114.462 83.5429 115.965 85.3325C122.127 92.655 127.591 99.1578 128.083 99.7589C128.37 100.1 128.725 100.756 128.875 101.221C129.135 101.958 129.148 102.15 128.998 102.71C128.616 104.254 127.14 106.043 125.678 106.74C125.132 106.999 123.711 107.696 122.509 108.27C121.307 108.857 119.244 109.841 117.932 110.456C116.621 111.084 114.749 111.972 113.766 112.437C112.796 112.901 111.498 113.516 110.897 113.803C110.296 114.076 106.607 115.838 102.7 117.696C98.7929 119.554 94.9267 121.399 94.0933 121.795C93.2737 122.177 91.484 123.038 90.1315 123.68C88.7244 124.363 87.2626 124.951 86.7162 125.087C84.2845 125.647 81.2516 124.773 78.4511 122.669C76.5794 121.262 75.951 120.579 70.0356 113.543C64.2842 106.672 58.8743 100.223 55.2813 95.9611C51.5654 91.5348 44.3932 82.9964 39.8576 77.6002C37.8084 75.1548 34.4204 71.1247 32.3302 68.652C22.6306 57.1081 20.7863 54.9223 19.6661 53.5698C18.9967 52.7774 18.2317 51.8758 17.9584 51.5752C17.4393 51.0015 17.1114 50.5643 16.3327 49.4031C15.9502 48.8566 15.8819 48.6244 15.8819 47.9686C15.8819 47.026 16.3191 46.261 17.3437 45.373C17.9584 44.8402 18.7508 44.5123 26.005 41.78C30.3903 40.1407 34.2975 38.6789 34.6663 38.5423C35.5816 38.2007 36.7702 37.7499 41.7702 35.8783C44.1063 35.004 46.1555 34.2116 46.3468 34.1023C46.9889 33.7471 50.8141 32.5176 51.6201 32.3947C52.7813 32.2307 52.8769 32.2307 53.8742 32.4356ZM118.26 35.6597C118.493 35.6597 118.725 35.933 119.244 36.78C119.613 37.4084 121.102 39.8538 122.536 42.2172L125.173 46.5205V47.3675C125.173 48.2145 124.968 48.638 124.558 48.638C124.463 48.638 123.725 48.4195 122.946 48.1599C121.293 47.6134 119.968 47.4085 117.919 47.3949C115.473 47.3675 114.49 47.6817 110.583 49.6763C107.195 51.425 103.342 53.9796 101.197 55.9059C100.828 56.2474 99.9951 56.7939 99.3666 57.1218L98.2327 57.7229H96.5661C94.9813 57.7229 94.872 57.7092 94.025 57.2857C92.2627 56.4114 90.9785 54.7037 90.5414 52.6681C90.2272 51.2064 90.2682 50.1818 90.678 49.3758C91.525 47.6681 94.4622 44.5669 97.1125 42.5724C101.771 39.0751 106.634 36.9849 112.536 35.9193C113.465 35.7417 116.976 35.5368 117.577 35.6051C117.796 35.6324 118.096 35.6597 118.26 35.6597ZM4.05114 48.1462C4.50197 48.761 5.18504 49.5943 5.56756 50.0042C5.96374 50.414 8.08125 52.9004 10.2944 55.537C14.3655 60.4005 18.4502 65.2639 24.6252 72.6138C26.5241 74.8679 29.9121 78.898 32.1526 81.562C36.1417 86.3161 39.68 90.5238 46.62 98.789C48.5326 101.07 51.9206 105.087 54.1338 107.724C56.3469 110.374 59.8852 114.582 61.9891 117.082C68.6968 125.06 72.5357 129.623 75.6915 133.38C79.2981 137.683 79.9265 138.229 82.0713 138.885C82.7134 139.076 83.3418 139.131 84.9402 139.131C86.7435 139.145 87.0987 139.104 87.8774 138.83C88.861 138.475 92.2081 136.932 92.5223 136.672C92.6316 136.59 93.2463 136.289 93.8884 136.003C94.5305 135.716 95.5688 135.238 96.2109 134.937C96.8529 134.65 103.738 131.481 111.512 127.915C119.285 124.349 126.047 121.235 126.539 121.016C127.031 120.784 127.769 120.442 128.179 120.251C128.588 120.073 129.326 119.732 129.818 119.5C130.31 119.281 131.047 118.94 131.457 118.748C131.867 118.571 132.591 118.229 133.069 118.024C133.534 117.806 134.299 117.45 134.777 117.232C135.241 117.027 135.761 116.795 135.938 116.754C136.116 116.699 136.635 116.426 137.099 116.166C137.564 115.907 138.752 115.306 139.722 114.841C140.706 114.363 141.785 113.762 142.127 113.489L142.769 113.01L142.851 113.571C143.042 114.855 142.974 117.136 142.742 117.683C141.84 119.814 138.807 122.669 135.911 124.131C135.105 124.554 134.394 124.855 134.367 124.814C134.326 124.773 134.353 124.39 134.449 123.967C134.695 122.683 134.654 122.177 134.258 121.918C133.971 121.74 133.834 121.713 133.575 121.836C133.206 122 133.097 122.314 132.728 124.39L132.482 125.743L129.285 127.218C127.523 128.038 126.034 128.694 125.965 128.694C125.897 128.694 125.87 128.584 125.911 128.448C126.17 127.533 126.143 127.341 125.801 126.986C125.597 126.781 125.31 126.645 125.077 126.645C124.531 126.645 115.596 130.497 115.378 130.825C115.173 131.139 114.763 133.366 114.859 133.639C114.9 133.762 113.971 134.254 111.88 135.21C110.214 135.975 107.413 137.259 105.665 138.065C103.916 138.871 102.468 139.5 102.44 139.473C102.413 139.445 102.468 138.899 102.577 138.257C102.673 137.615 102.768 136.904 102.768 136.672C102.768 135.825 101.812 135.511 101.416 136.235C101.334 136.412 101.115 137.396 100.924 138.434C100.746 139.473 100.583 140.361 100.542 140.388C100.514 140.415 98.342 141.426 95.719 142.642C90.678 144.964 89.8856 145.238 87.5359 145.429C85.1861 145.62 81.7161 144.978 79.7216 143.967C78.7243 143.475 78.4511 143.257 77.5221 142.164C76.2106 140.634 74.0521 138.106 70.9646 134.459L68.6149 131.699V129.035V126.371L68.2597 126.139C67.9318 125.934 67.8635 125.934 67.5356 126.112C67.1804 126.303 67.1804 126.344 67.1121 128.079L67.0438 129.855L64.7214 127.136C63.4509 125.634 61.4836 123.325 60.3497 122.013C59.2295 120.688 57.6311 118.803 56.7978 117.833C53.6556 114.144 50.3359 110.265 48.8878 108.543C48.0545 107.56 46.8796 106.18 46.2785 105.469C42.4806 101.016 40.1172 98.2425 38.0817 95.8381C35.8275 93.2015 33.2729 90.196 30.1581 86.5484C29.3247 85.5648 28.0815 84.103 27.3848 83.297L26.1279 81.8215V78.9117C26.1279 76.1657 26.1143 75.9745 25.8411 75.6329C25.5132 75.2094 25.3083 75.1958 24.8848 75.5373C24.5705 75.7832 24.5569 75.9062 24.4886 77.8051L24.4203 79.8133L22.3028 77.3133C21.1415 75.9471 18.8191 73.2149 17.1524 71.2613L14.1059 67.6957V65.2503C14.1059 63.1601 14.0786 62.7639 13.8737 62.5453C13.6005 62.2448 13.177 62.2311 12.8491 62.5317C12.6442 62.7229 12.6032 62.9688 12.6032 64.2393C12.6032 65.0454 12.5485 65.7148 12.4939 65.7148C12.4256 65.7148 12.166 65.4552 11.9064 65.1273C11.6469 64.8131 10.554 63.5016 9.46105 62.2311C8.36814 60.9469 7.31622 59.7038 7.09763 59.4579C6.72878 59.007 6.72878 58.9797 6.72878 57.0125C6.72878 54.854 6.61948 54.5124 5.9774 54.5124C5.48559 54.5124 5.29433 54.8813 5.22602 56.0562L5.15772 57.1491L4.29705 56.1655C3.31343 55.0725 3.02654 54.4031 2.68501 52.4359C2.4391 51.0561 2.48008 49.1982 2.78064 47.4768C2.91725 46.6708 2.97189 46.5615 3.09485 46.7801C3.17682 46.9167 3.61398 47.5315 4.05114 48.1462ZM118.356 49.7719C118.998 50.8512 120.569 53.6791 121.416 55.2638C123.219 58.6108 126.676 65.7967 126.676 66.1793C126.676 66.2885 126.143 66.5481 125.433 66.8077C121.594 68.1738 116.088 71.6301 110.979 75.8925C108.001 78.3652 103.356 83.0237 102.017 84.8817C101.757 85.2369 101.539 85.3052 99.8311 85.6604C98.7929 85.879 97.9185 86.0429 97.8912 86.0156C97.8092 85.9336 101.102 82.4363 103.328 80.2641C108.096 75.5919 113.424 71.2203 118.889 67.5044C120.132 66.6574 121.239 65.8241 121.348 65.6465C121.525 65.3459 121.512 65.2776 121.252 64.9224C121.088 64.7038 120.678 63.9524 120.323 63.2421C118.848 60.3049 115.514 54.2392 113.793 51.384L113.11 50.2364L113.411 49.9905C113.984 49.526 116.075 48.9796 117.454 48.9249C117.823 48.9113 117.919 49.0069 118.356 49.7719ZM122.659 49.7173L124.258 50.2501L125.692 52.7501C128.698 58.0644 133.424 67.1082 133.343 67.3815C133.315 67.4634 132.878 67.641 132.373 67.7913C131.17 68.1192 129.285 68.8569 127.386 69.7585C121.908 72.3405 115.2 77.1903 109.667 82.5592L107.481 84.6768L106.184 84.7724C105.473 84.8134 104.722 84.8954 104.517 84.9227C104.298 84.9637 104.134 84.9363 104.134 84.868C104.134 84.7997 104.859 83.9391 105.76 82.9828C111.962 76.2477 120.87 69.9225 126.922 67.9552C128.452 67.4634 128.725 67.3131 128.725 66.958C128.725 66.2885 123.902 56.425 121.28 51.7255C120.487 50.3047 119.845 49.1025 119.845 49.0752C119.845 48.9386 121.184 49.2391 122.659 49.7173ZM124.162 129.295C124.107 129.541 123.37 129.923 120.364 131.317C116.908 132.901 116.635 132.997 116.594 132.738C116.484 131.931 116.607 131.85 120.473 130.183C124.258 128.557 124.353 128.53 124.162 129.295Z" stroke="#FFCCDE" stroke-width="2" mask="url(#path-1-outside-1_672_1201)"/>
<path d="M73.9706 5.60469C73.8067 5.67299 73.5608 5.93256 73.4241 6.17846C73.3012 6.42437 72.905 6.92984 72.5361 7.2987L71.8941 7.96811L70.9514 7.88614C70.2547 7.83149 69.9541 7.85881 69.8585 7.98177C69.7765 8.09106 69.4487 9.30692 69.1345 10.714C68.547 13.3097 68.5334 13.6786 69.0388 13.7605C69.4623 13.8425 69.6263 13.4736 70.1044 11.3288L70.6236 9.08834L71.2247 9.06102C71.5662 9.04736 71.9897 8.97905 72.1673 8.91074C72.8504 8.63751 73.6837 7.91346 74.0526 7.24405C74.3395 6.72492 74.4897 6.58831 74.6946 6.62929C75.4324 6.77957 80.0772 7.43531 80.4871 7.44897C81.0335 7.44897 81.3341 7.10744 81.1018 6.72492C81.0062 6.57465 80.61 6.43803 79.9406 6.31508C78.9297 6.15114 74.3531 5.45441 74.3121 5.48173C74.2985 5.48173 74.1482 5.53638 73.9706 5.60469Z" fill="#FFCCDE"/>
<path d="M91.3339 7.88617C90.9514 7.96813 90.8421 8.26868 91.129 8.51459C91.3886 8.74683 92.741 9.04738 94.681 9.30695L95.9515 9.47089L95.8558 10.0583C95.7192 10.9873 96.0198 11.9709 96.6209 12.572C96.9078 12.8589 97.3313 13.1321 97.5635 13.1868C97.8777 13.2551 97.9734 13.3371 97.9324 13.501C97.7958 13.9928 96.9078 18.1322 96.8668 18.5011C96.8395 18.7606 96.9078 18.9382 97.1127 19.0748C97.6591 19.4437 97.8094 19.1158 98.4652 16.124C99.2439 12.613 99.2439 12.2715 98.5335 12.2168C98.4242 12.2032 98.1919 12.1895 98.0417 12.1758C97.5772 12.1485 97.058 11.5201 96.9624 10.878C96.8941 10.4408 96.9351 10.1403 97.14 9.68947C97.4406 9.04738 97.3723 8.69219 96.9351 8.55557C96.6345 8.47361 93.1099 7.96813 92.2492 7.88617C91.9077 7.84518 91.4979 7.84518 91.3339 7.88617Z" fill="#FFCCDE"/>
<path d="M90.1987 24.2661C88.3954 24.7579 84.6795 26.5749 81.8789 28.3509C78.7231 30.3454 74.9935 33.2006 74.611 33.911C74.4061 34.2936 74.5564 34.758 74.9525 34.9766C75.3624 35.1815 75.4853 35.1132 76.7149 34.034C77.8897 32.9957 79.3925 31.8892 81.4554 30.5094C84.4199 28.5421 85.2806 28.0776 90.5812 25.6049C91.2096 25.318 91.7834 24.9765 91.8517 24.8535C92.0156 24.5257 91.879 24.2251 91.5238 24.1295C91.1276 24.0202 91.073 24.0339 90.1987 24.2661Z" fill="#FFCCDE"/>
<path d="M110.459 53.7473C109.229 54.1298 106.101 56.0015 103.245 58.037C100.581 59.9496 99.7617 60.6327 99.7617 60.9742C99.7617 61.4114 99.9257 61.6026 100.39 61.6983C100.732 61.7666 100.95 61.6709 101.674 61.1245C104.311 59.1846 106.606 57.6135 108.437 56.5206C111.756 54.5397 112.071 54.2528 111.511 53.802C111.155 53.5151 111.21 53.5151 110.459 53.7473Z" fill="#FFCCDE"/>
<path d="M41.8385 30.3318C41.6472 30.3865 39.8712 31.0559 37.8767 31.8073C35.8821 32.5586 31.5515 34.1843 28.2454 35.4275C24.9393 36.6707 21.9885 37.7909 21.6879 37.9139C20.7043 38.3237 20.2808 38.9112 20.6907 39.321C20.9775 39.6079 21.8109 39.4986 23.136 39.0205C24.4612 38.5423 36.6335 33.9931 39.0379 33.0778C39.7893 32.7909 40.8958 32.3674 41.497 32.1351C42.9997 31.575 43.3412 30.9466 42.4396 30.4001C42.2757 30.2908 42.0434 30.2635 41.8385 30.3318Z" fill="#FFCCDE"/>
<path d="M113.493 115.47C111.69 115.716 109.518 117.205 108.725 118.762C107.673 120.866 108.466 122.97 110.624 123.776C111.704 124.172 113.521 124.117 114.654 123.639C116.95 122.669 118.329 121.016 118.452 119.063C118.493 118.216 118.466 118.024 118.111 117.369C117.332 115.88 115.638 115.183 113.493 115.47ZM115.857 116.74C117.81 117.56 117.906 119.759 116.034 121.494C115.078 122.382 114.04 122.833 112.715 122.915C111.403 123.011 110.638 122.765 109.955 121.986C108.821 120.743 109.586 118.516 111.567 117.3C112.728 116.576 114.805 116.303 115.857 116.74Z" fill="#FFCCDE"/>
<path d="M76.6063 115.032C76.3194 115.36 76.4287 115.702 77.2484 116.959C78.5326 118.953 80.6637 120.429 83.0681 120.989C84.1884 121.248 86.4971 121.18 87.5627 120.852C88.3414 120.606 88.6147 120.21 88.2458 119.841C88.0409 119.65 87.9316 119.65 86.989 119.855C83.9835 120.524 81.1829 119.705 79.161 117.573C78.6418 117.027 78.0271 116.235 77.7812 115.811C77.2347 114.855 76.9478 114.663 76.6063 115.032Z" fill="#FFCCDE"/>
<path d="M94.6664 116.44C92.9451 117.287 91.2237 118.12 90.8412 118.311C89.8029 118.817 89.8029 119.513 90.8412 119.336C91.6199 119.199 97.0571 116.644 98.0271 115.961C98.4643 115.647 98.5052 115.237 98.1364 115.032C97.9861 114.964 97.8495 114.896 97.8222 114.909C97.7948 114.909 96.3741 115.606 94.6664 116.44Z" fill="#FFCCDE"/>
<path d="M114.272 37.0942C113.699 37.586 113.494 38.1188 113.685 38.7063C114.231 40.3456 116.431 40.0451 116.431 38.3237C116.431 37.6817 116.171 37.2445 115.611 36.9576C115.051 36.6707 114.737 36.698 114.272 37.0942Z" fill="#FFCCDE"/>
<path d="M116.019 40.5505C115.787 40.7417 115.732 40.892 115.787 41.1379C115.828 41.3292 116.538 42.5723 117.345 43.9248C118.615 46.0423 118.875 46.3839 119.189 46.4249C119.626 46.4795 120.036 45.9604 119.899 45.5505C119.735 45.127 117.235 40.9466 116.935 40.6051C116.593 40.2362 116.416 40.2226 116.019 40.5505Z" fill="#FFCCDE"/>
<path d="M96.4695 46.3155C94.9667 46.5751 93.4776 47.8182 92.9312 49.2937C92.1252 51.3975 93.2181 53.8839 95.3766 54.9085C96.4558 55.414 97.9996 55.414 99.0788 54.9085C100.978 54.0205 102.043 52.0123 101.674 50.045C101.319 48.0641 99.9395 46.698 97.9176 46.3291C97.4804 46.2472 97.1116 46.1925 97.1116 46.1925C97.0979 46.2062 96.811 46.2608 96.4695 46.3155ZM98.1362 47.9685C99.2154 48.3374 99.9531 49.2527 100.117 50.4549C100.349 52.1626 98.9968 53.6926 97.2345 53.6926C94.9804 53.6926 93.6552 51.3975 94.7072 49.3346C95.2946 48.1734 96.8793 47.545 98.1362 47.9685Z" fill="#FFCCDE"/>
</svg>
